<svg xmlns="http://www.w3.org/2000/svg" width="36" height="36" viewBox="0 0 36 36">
  <g id="profile-betting-record" transform="translate(-0.101 -0.101)">
    <path id="Path_6" data-name="Path 6" d="M30.67,36.1H5.531A5.408,5.408,0,0,1,.1,30.67V5.531A5.408,5.408,0,0,1,5.531.1H30.67a5.408,5.408,0,0,1,5.43,5.43V30.67A5.408,5.408,0,0,1,30.67,36.1Z" fill="#fff"/>
    <g id="Group_7" data-name="Group 7">
      <path id="Path_7" data-name="Path 7" d="M7.24,17.7H8.849a1.113,1.113,0,0,1,1.006,1.709c-.8,1.408-1.609,2.816-2.514,4.324a1.057,1.057,0,0,1-1.911,0c-.8-1.408-1.709-2.816-2.514-4.324A1.088,1.088,0,0,1,3.922,17.7H5.028a18.768,18.768,0,0,1,.4-2.514A13.541,13.541,0,0,1,13.374,5.43,13.471,13.471,0,0,1,28.156,7.24a13.434,13.434,0,0,1,5.128,9.05A13.991,13.991,0,0,1,21.821,31.877a13.889,13.889,0,0,1-12.168-3.52,1.142,1.142,0,0,1-.2-1.609,1.045,1.045,0,0,1,1.609,0A12.718,12.718,0,0,0,17.7,29.866,11.979,11.979,0,1,0,7.441,15.385,17.952,17.952,0,0,1,7.24,17.7Z" fill="#ec6b00"/>
      <path id="Path_8" data-name="Path 8" d="M16.994,14.682V10.257c0-.8.4-1.307,1.006-1.307.7,0,1.006.5,1.006,1.307V18.6a.553.553,0,0,0,.3.5c1.508,1.207,3.017,2.413,4.425,3.52a1.4,1.4,0,0,1,.5,1.006,1,1,0,0,1-1.709.6c-.8-.7-1.709-1.307-2.514-2.011S18.3,20.916,17.5,20.212a1.179,1.179,0,0,1-.5-1.106C16.994,17.7,16.994,16.19,16.994,14.682Z" fill="#ec6b00"/>
    </g>
  </g>
</svg>
