<svg xmlns="http://www.w3.org/2000/svg" width="36" height="36" viewBox="0 0 36 36">
  <g id="profile-personal-info" transform="translate(-0.101 -0.101)">
    <path id="Path_28" data-name="Path 28" d="M30.67,36.1H5.531A5.408,5.408,0,0,1,.1,30.67V5.531A5.408,5.408,0,0,1,5.531.1H30.67a5.408,5.408,0,0,1,5.43,5.43V30.67A5.408,5.408,0,0,1,30.67,36.1Z" fill="#fff"/>
    <g id="Group_12" data-name="Group 12">
      <path id="Path_29" data-name="Path 29" d="M11.061,18.5a5.574,5.574,0,0,1-2.313-5.128A6.193,6.193,0,0,1,10.86,8.95a6.332,6.332,0,0,1,8.547.1,6.279,6.279,0,0,1-.4,9.251,4.139,4.139,0,0,0,.8.3,11.938,11.938,0,0,1,6.637,8.547,10.34,10.34,0,0,1,.1,1.81.95.95,0,0,1-1.006,1.006,1.034,1.034,0,0,1-1.106-1.006,10.17,10.17,0,0,0-1.508-5.128,8.823,8.823,0,0,0-6.939-4.123A9.378,9.378,0,0,0,5.933,27.151a10.929,10.929,0,0,0-.1,1.81.95.95,0,0,1-1.006,1.006,1.237,1.237,0,0,1-1.106-.7v-.4a11.479,11.479,0,0,1,4.626-8.95A9.491,9.491,0,0,1,11.162,18.4C10.961,18.5,10.961,18.5,11.061,18.5Zm3.922-.7a4.123,4.123,0,1,0-4.123-4.123A4.016,4.016,0,0,0,14.983,17.8Z" fill="#ec6b00"/>
      <path id="Path_30" data-name="Path 30" d="M31.475,8.547H23.832a.95.95,0,0,1-1.006-1.006v-.3a.95.95,0,0,1,1.006-1.006h7.642A1.008,1.008,0,0,1,32.48,7.24v.3A1.081,1.081,0,0,1,31.475,8.547Z" fill="#ec6b00"/>
      <path id="Path_31" data-name="Path 31" d="M28.358,12.771H23.832a.95.95,0,0,1-1.006-1.006v-.3a.95.95,0,0,1,1.006-1.006h4.525a1.008,1.008,0,0,1,1.006,1.006v.3A1.008,1.008,0,0,1,28.358,12.771Z" fill="#ec6b00"/>
    </g>
  </g>
</svg>
