<svg xmlns="http://www.w3.org/2000/svg" width="37.507" height="43.146" viewBox="0 0 37.507 43.146"><defs><style>.a{fill:#d9246e;}.b{fill:#272324;}.c{fill:#d02153;}</style></defs><g transform="translate(-63.5 -43)"><g transform="translate(67.251 43)"><path class="a" d="M172.235,76.647c-.591-2.652-1.154-5.125-1.676-7.6a1.754,1.754,0,0,1,.069-.8c.975-3.6,1.978-7.213,2.968-10.813a1.9,1.9,0,0,1,.247-.44c3.311,4.616,6.567,9.136,9.933,13.808C179.929,72.731,176.165,74.641,172.235,76.647Z" transform="translate(-159.582 -55.077)"/><path class="a" d="M101.583,56.382C98.038,51.862,94.658,47.534,91.1,43c4.685.55,9.123,1.085,13.711,1.635C103.74,48.509,102.682,52.329,101.583,56.382Z" transform="translate(-91.059 -43)"/><path class="a" d="M138.3,161.421q1.958-6.924,3.929-13.821c.055,0,.11.014.165.014.646,2.913,1.305,5.825,1.923,8.738a.7.7,0,0,1-.206.6c-1.868,1.553-3.764,3.078-5.66,4.616A1.568,1.568,0,0,1,138.3,161.421Z" transform="translate(-131.774 -133.229)"/><path class="a" d="M247.761,108.2c-.838,2.308-1.607,4.369-2.432,6.608-1.346-1.868-2.583-3.572-3.929-5.441C243.516,108.969,245.508,108.612,247.761,108.2Z" transform="translate(-220.709 -99.242)"/><path class="a" d="M285.424,110.7c.852.756,1.635,1.443,2.555,2.281H284.6C284.889,112.17,285.163,111.414,285.424,110.7Z" transform="translate(-257.974 -101.399)"/><path class="a" d="M223.393,161.506c-.206.3-.357.769-.659.879a62.379,62.379,0,0,1-6.334,2.363c2.267-1.154,4.534-2.294,6.787-3.448A1.458,1.458,0,0,0,223.393,161.506Z" transform="translate(-199.144 -145.047)"/><path class="a" d="M95.265,63.856c-1.456-1.374-2.913-2.748-4.465-4.218a1.488,1.488,0,0,1,1.882.522c.879,1.209,1.827,2.363,2.748,3.545C95.375,63.76,95.32,63.8,95.265,63.856Z" transform="translate(-90.8 -57.247)"/></g><g transform="translate(63.5 72.854)"><path class="b" d="M132.59,273.459a6.52,6.52,0,0,0-1.553-.014c-.11.014-.151-.055-.192-.137-1.25-2.226-2.8-4.245-4.19-6.375a.437.437,0,0,0-.151-.165c-.1-.055-.179-.082-.179.082v6.265c0,.33,0,.344-.343.289a2.036,2.036,0,0,0-.646,0c-.261.069-.357,0-.343-.289q.021-5.75.014-11.5c0-.357.014-.714,0-1.085-.014-.22.069-.261.261-.22a2.08,2.08,0,0,0,.824,0c.22-.041.275.027.275.247-.014,1.717,0,3.448,0,5.166v.343c0,.069-.041.165.055.192a.227.227,0,0,0,.206-.069,4.747,4.747,0,0,0,.714-.769q1.875-2.452,3.751-4.919a.379.379,0,0,1,.426-.192,3.577,3.577,0,0,0,.934-.014c-.192.234-.343.426-.508.632-1.36,1.662-2.748,3.311-4.053,5.015a.3.3,0,0,0-.014.412c1.553,2.253,3.187,4.438,4.616,6.773C132.521,273.212,132.617,273.294,132.59,273.459Z" transform="translate(-116.543 -260.297)"/><path class="c" d="M64.709,266.809c.206-.275.343-.481.508-.673a2.671,2.671,0,0,1,4.534.385,5.755,5.755,0,0,1-.55,6.114,2.864,2.864,0,0,1-3.215.838,2.511,2.511,0,0,1-1.154-1.017c-.3.3-.6.591-.893.879-.1.11-.206.192-.343.137s-.069-.192-.069-.3c-.014-4.149-.014-8.3-.027-12.447,0-.275.069-.371.343-.316a1.706,1.706,0,0,0,.591,0c.22-.041.289.027.289.261-.014,1.9,0,3.792,0,5.688A4.148,4.148,0,0,0,64.709,266.809Zm-.027,2.693a5.3,5.3,0,0,0,.055,1.237,3.287,3.287,0,0,0,.742,1.786,1.725,1.725,0,0,0,2.679-.082,3.2,3.2,0,0,0,.44-.756,6.856,6.856,0,0,0,.3-3.929,3.333,3.333,0,0,0-.3-.879,1.817,1.817,0,0,0-3.284-.069A5.965,5.965,0,0,0,64.682,269.5Z" transform="translate(-63.5 -260.379)"/><path class="b" d="M293.336,266.559a8.281,8.281,0,0,1,.687-.838,2.494,2.494,0,0,1,2.762-.536,2.112,2.112,0,0,1,1.278,1.745,6.828,6.828,0,0,1,.137,1.5v4.795c0,.192-.041.275-.247.234a1.855,1.855,0,0,0-.728,0c-.179.041-.234-.014-.234-.22.014-1.525,0-3.05,0-4.575a6.553,6.553,0,0,0-.165-1.552,1.4,1.4,0,0,0-1.2-1.2,1.744,1.744,0,0,0-1.841.742,2.893,2.893,0,0,0-.426,1.566c-.014,1.635-.014,3.27-.014,4.919,0,.261-.055.371-.33.3a1.463,1.463,0,0,0-.646,0c-.179.041-.3,0-.261-.22v-.082q0-6.244-.014-12.489c0-.289.082-.371.344-.3a1.562,1.562,0,0,0,.618-.014c.22-.041.275.041.261.247-.014,1.841,0,3.668,0,5.509C293.336,266.257,293.336,266.408,293.336,266.559Z" transform="translate(-260.693 -260.321)"/><path class="b" d="M191.034,301.848a.758.758,0,0,0-.234.234,2.768,2.768,0,0,1-2.4.962,2.023,2.023,0,0,1-1.731-1.951,2.138,2.138,0,0,1,1.814-2.473c.536-.137,1.072-.22,1.607-.343a3.135,3.135,0,0,0,.508-.165.708.708,0,0,0,.44-.618,3.147,3.147,0,0,0-.082-1.072,1.532,1.532,0,0,0-1.346-1.209,1.886,1.886,0,0,0-1.978.893.739.739,0,0,0-.1.179c-.027.069-.055.124-.137.11-.11-.014-.069-.1-.069-.151v-.687a.256.256,0,0,1,.1-.22,3.582,3.582,0,0,1,3.078-.783,2.061,2.061,0,0,1,1.607,1.786,5.647,5.647,0,0,1,.11,1.182c0,1.305-.014,2.61-.014,3.916v.4c.027.44.137.522.577.481.082,0,.22-.11.261.041s.041.289-.165.371a2.163,2.163,0,0,1-.975.137.919.919,0,0,1-.811-.728C191.075,302.026,191.048,301.944,191.034,301.848Zm-.027-1.951h0c-.014-.289-.014-.563-.014-.852,0-.481,0-.481-.481-.371a6.021,6.021,0,0,0-1.814.55,1.859,1.859,0,0,0-.481,2.638,1.183,1.183,0,0,0,.55.385,1.752,1.752,0,0,0,2.226-1.58C191.006,300.405,191.006,300.144,191.006,299.9Z" transform="translate(-169.739 -289.771)"/><path class="b" d="M245.421,302.823a3.539,3.539,0,0,1-1.607-.44.208.208,0,0,1-.124-.289c.082-.3.151-.6.234-.907.014-.069,0-.165.1-.192s.124.082.151.137a2.692,2.692,0,0,0,.714.811,1.369,1.369,0,0,0,1.594.165,1.544,1.544,0,0,0,.838-1.443,1.338,1.338,0,0,0-.866-1.319c-.371-.151-.742-.275-1.113-.412a2.068,2.068,0,0,1-1.552-2.61c.247-1.882,1.992-2.459,3.572-1.923.577.192.563.206.4.769-.055.192-.1.385-.151.577-.014.055,0,.165-.11.165-.082,0-.1-.082-.124-.137a2.224,2.224,0,0,0-.371-.563,1.162,1.162,0,0,0-1.305-.385,1.248,1.248,0,0,0-.907,1.085,1.388,1.388,0,0,0,.893,1.649c.371.179.769.3,1.154.467a2.255,2.255,0,0,1,1.223,3.325A2.83,2.83,0,0,1,245.421,302.823Z" transform="translate(-218.918 -289.551)"/></g></g></svg>