<svg xmlns="http://www.w3.org/2000/svg" width="36" height="36" viewBox="0 0 36 36">
  <g id="profile-bonus" transform="translate(-0.101 -0.101)">
    <path id="Path_9" data-name="Path 9" d="M30.67,36.1H5.531A5.408,5.408,0,0,1,.1,30.67V5.531A5.408,5.408,0,0,1,5.531.1H30.67a5.408,5.408,0,0,1,5.43,5.43V30.67A5.408,5.408,0,0,1,30.67,36.1Z" fill="#fff"/>
    <path id="Path_10" data-name="Path 10" d="M6.235,14.983H5.229a.887.887,0,0,1-.905-.8,22.659,22.659,0,0,1,0-2.615A2.918,2.918,0,0,1,7.14,9.05h3.017V6.335A2.023,2.023,0,0,1,12.57,4.324c1.106.2,2.313.5,3.419.7H18.1a17.5,17.5,0,0,0,4.525-.6,5.047,5.047,0,0,1,1.207-.2,1.933,1.933,0,0,1,2.011,1.911V9.05h2.816a3.615,3.615,0,0,1,1.106.2,2.806,2.806,0,0,1,1.911,2.715v2.011a.95.95,0,0,1-1.006,1.006h-.905V28.76a2.932,2.932,0,0,1-2.212,2.916,2.784,2.784,0,0,1-.905.1H8.95a2.931,2.931,0,0,1-3.017-3.117V15.285C6.235,15.285,6.235,15.184,6.235,14.983Zm1.911.1V28.86a1.006,1.006,0,0,0,1.106,1.106h4.827V15.084Zm13.978,0V29.966h4.726a1.067,1.067,0,0,0,1.207-1.207V15.084ZM16.19,11.061v18.8h3.922v-18.8Zm-2.112,0H7.14a.966.966,0,0,0-.905.7,4.846,4.846,0,0,0,0,1.207h7.944A11.547,11.547,0,0,1,14.078,11.061Zm15.888,2.011v-.8a1.006,1.006,0,0,0-1.106-1.106H22.123v1.911ZM15.084,9.05V6.939c-1.006-.2-1.911-.4-2.916-.6V9.05Zm6.034,0h2.916V6.335c-1.006.2-2.011.4-2.916.6ZM17.095,7.14V9.05h1.911V7.14Z" fill="#ec6b00"/>
  </g>
</svg>
