<svg xmlns="http://www.w3.org/2000/svg" xmlns:xlink="http://www.w3.org/1999/xlink" width="32.542" height="31" viewBox="0 0 32.542 31">
  <defs>
    <radialGradient id="radial-gradient" cx="0.5" cy="0.504" r="0.542" gradientUnits="objectBoundingBox">
      <stop offset="0" stop-color="#63b7e0"/>
      <stop offset="0.063" stop-color="#5ba0d2"/>
      <stop offset="0.17" stop-color="#4f80bf"/>
      <stop offset="0.286" stop-color="#4565af"/>
      <stop offset="0.413" stop-color="#3d51a3"/>
      <stop offset="0.555" stop-color="#38429b"/>
      <stop offset="0.725" stop-color="#353a96"/>
      <stop offset="1" stop-color="#343794"/>
    </radialGradient>
  </defs>
  <g id="footer-iTechLabs" transform="translate(-11.96 -13.156)">
    <path id="Path_109" data-name="Path 109" d="M14.713,31.589c-.174-.174-.29.232-.581,0a.585.585,0,0,1-.232-.581c0-.7-.232-1.336-.232-2.032a.154.154,0,0,0-.174-.174h-.465c-.813,0-.755,0-.7.813a15.264,15.264,0,0,0,3.658,8.594,15.824,15.824,0,0,0,1.336,1.452c.232.232.406.348.639-.058.116.29.232.465.581.406-.232.232-.232.465,0,.639-.174.116-.465.058-.465.348,0,.058-.116.116-.116.058-.174-.232-.348-.116-.581,0,.058-.348,0-.523-.348-.639.406-.174.29-.29.116-.523a17.078,17.078,0,0,1-4.7-7.781,14,14,0,0,1,2.613-12.485A15.554,15.554,0,0,1,26.384,13.24C33.12,12.659,38.521,15.1,42.179,20.9A16.2,16.2,0,0,1,44.5,28.4c0,.29-.058.348-.348.348h-2.09c-.348,0-.406-.116-.465-.406a14.646,14.646,0,0,0-.987-4.181,12.289,12.289,0,0,0-3.949-4.82,12.293,12.293,0,0,0-3.252-1.916c-.232-.116-.348-.232-.174-.523-.232,0-.581.116-.581-.348-.174.232-.29.523-.639.29.116.29.116.523-.116.7.232.116.523.174.348.523.29-.116.465-.348.7.058,0-.581.232-.465.465-.348A14.81,14.81,0,0,1,39.1,22.24a10.138,10.138,0,0,1,1.916,4.936c.058.406.116.755.174,1.161.058.232,0,.348-.29.348-.755,0-.755,0-.813-.7a11.788,11.788,0,0,0-1.858-5.342,10.947,10.947,0,0,0-5.865-4.007,11.657,11.657,0,0,0-2.845-.465c.116-.116.174-.232.29-.348-.755,0-1.045-.406-.929-1.1-.348.116-.523.465-.813.406-.232,0-.465-.29-.755-.465.116.7-.116,1.161-.929,1.161a.948.948,0,0,1,.348,1.51c.7-.29,1.161-.058,1.278.639.29-.232.29-.581.523-.755s.581.116.871,0a3.274,3.274,0,0,0-.232-.7,6.867,6.867,0,0,1,2.439.29,12.156,12.156,0,0,1,4.123,1.916c2.265,1.452,3.252,3.658,3.774,6.155.116.465.116.987.232,1.452.058.232-.058.29-.29.29H37.94c-.232,0-.348-.058-.406-.348a8.324,8.324,0,0,0-2.845-5.749,6.171,6.171,0,0,0-.639-.523c-.348-.174-.465-.348.058-.639-.639-.116-.871-.406-.7-1.1-.523.406-.929.523-1.219-.058-.116.116-.116.174-.116.232a.462.462,0,0,1-.523.523c-.116,0-.232,0-.232.116a.185.185,0,0,0,.174.174.412.412,0,0,1,.116.639.945.945,0,0,0-.174.348c.639-.174.929.058,1.045.581a.477.477,0,0,0,.29-.29c.116-.232.29-.29.581-.174s.406.058.29-.348a7.89,7.89,0,0,1,3.368,4.7,6.313,6.313,0,0,1,.232,1.51c0,.232-.058.29-.29.29H34.572c-.174,0-.29,0-.29-.232a5.053,5.053,0,0,0-2.555-3.891c-.348-.232-.7-.523-.581-1.045-.29.058-.523.174-.7-.116-.058-.116-.174,0-.174.058a.444.444,0,0,1-.581.348c.232.29.348.581-.058.871.348.058.7.116.639.581.29-.232.465-.406.755-.29.232.116.058-.174.174-.29,1.336.871,2.5,1.858,2.729,3.6.058.348-.058.406-.348.406h-16.2c-.406,0-.465.058-.465.465a11.779,11.779,0,0,0,1.858,5.4,1.783,1.783,0,0,0,.755.465c.348.174-.116.406.174.523-.116.058-.29.116-.29.29-.116,0-.232-.232-.406-.058,0-.174-.348-.29-.116-.523.116-.116,0-.174-.058-.232A10.9,10.9,0,0,1,16.687,28.8c0-.174-.058-.29-.29-.29h-2.09c-.174,0-.29,0-.232.232.058.465.116.929.174,1.452.058.174.058.406.406.29.058,0,.29.406.232.465a1.4,1.4,0,0,0-.174.639Z" fill="url(#radial-gradient)"/>
    <path id="Path_110" data-name="Path 110" d="M58.119,47.574a2.067,2.067,0,0,1,1.51-.639,1.465,1.465,0,0,1,1.452,1.394c.058.929,0,1.8,0,2.729a.581.581,0,0,1-.639.639c-.348,0-.581-.174-.581-.639V48.736c0-.523-.232-.813-.639-.871a.9.9,0,0,0-.987.813.524.524,0,0,1-.058.29c-.058.7,0,1.336-.058,2.032,0,.29-.058.523-.348.639a.6.6,0,0,1-.813-.465c0-.116-.058-.174-.058-.29V45.949c0-.465.174-.755.523-.755a.56.56,0,0,1,.7.581C58.178,46.355,58.119,46.936,58.119,47.574Z" transform="translate(-18.844 -13.43)" fill="#090909"/>
    <path id="Path_111" data-name="Path 111" d="M41.885,50.924H40.723c-.232,0-.232.058-.232.232a1.094,1.094,0,0,0,1.684.755,2.274,2.274,0,0,0,.581-.465.534.534,0,0,1,.7-.058.46.46,0,0,1,.058.639,1.8,1.8,0,0,1-1.278.871c-1.219.174-2.265-.058-2.729-1.161a2.662,2.662,0,0,1,.116-2.555,2.253,2.253,0,0,1,2.439-.929,2.159,2.159,0,0,1,1.684,1.858.648.648,0,0,1-.581.813A9.337,9.337,0,0,1,41.885,50.924Zm-.406-.7h.813c.116,0,.174,0,.174-.174a1.056,1.056,0,0,0-.813-.929.973.973,0,0,0-1.045.581c-.174.465-.174.523.348.523Z" transform="translate(-11.435 -14.689)" fill="#090909"/>
    <path id="Path_112" data-name="Path 112" d="M33.71,49.042v2.032c0,.523-.232.755-.639.755s-.639-.232-.639-.755V46.952c0-.29-.058-.348-.348-.348H31.039a.566.566,0,0,1-.639-.581c0-.348.232-.523.639-.523H35.1a.554.554,0,0,1,.639.523.521.521,0,0,1-.581.581h-1.1c-.232,0-.348.058-.348.348Q33.71,48,33.71,49.042Z" transform="translate(-7.732 -13.562)" fill="#090909"/>
    <path id="Path_113" data-name="Path 113" d="M50.423,52.962A2.137,2.137,0,0,1,48.1,50.639,2.2,2.2,0,0,1,50.423,48.2a2.548,2.548,0,0,1,1.568.523,1.647,1.647,0,0,1,.465.639.47.47,0,0,1-.232.639.547.547,0,0,1-.7-.116c-.058-.116-.174-.174-.232-.29a1.163,1.163,0,0,0-1.1-.465,1.15,1.15,0,0,0-.813.813,2.386,2.386,0,0,0,0,1.278.925.925,0,0,0,.813.755,1.056,1.056,0,0,0,1.1-.465,1.215,1.215,0,0,1,.232-.348c.174-.232.348-.348.639-.232a.494.494,0,0,1,.29.639,1.354,1.354,0,0,1-.755.929A1.382,1.382,0,0,1,50.423,52.962Z" transform="translate(-15.154 -14.694)" fill="#090909"/>
    <path id="Path_114" data-name="Path 114" d="M42.429,59.458c.348-.232.581-.465.929-.465a1.532,1.532,0,0,1,1.8,1.452,2.133,2.133,0,0,1-.058,1.045,1.552,1.552,0,0,1-2.671.813c-.058.174-.058.348-.232.406a.458.458,0,0,1-.7-.465V58.006a.367.367,0,0,1,.406-.406c.29,0,.465.116.465.406A11.662,11.662,0,0,1,42.429,59.458Zm1.8,1.394c0-.7-.348-1.161-.813-1.161-.523,0-.871.465-.871,1.161s.348,1.161.813,1.161C43.881,62.013,44.229,61.549,44.229,60.852Z" transform="translate(-12.386 -18.636)" fill="#090909"/>
    <path id="Path_115" data-name="Path 115" d="M37.763,61.742a4.981,4.981,0,0,0,.116,1.336c.058.232.058.465-.174.581a.4.4,0,0,1-.581-.174c-.174-.29-.29-.232-.523-.058a1.447,1.447,0,0,1-1.278.232,1.049,1.049,0,0,1-.929-.929.955.955,0,0,1,.7-1.045c.465-.116.987-.232,1.452-.348.116-.058.348,0,.29-.232a.46.46,0,0,0-.29-.465,1.019,1.019,0,0,0-1.161.406c-.174.232-.348.348-.639.232-.29-.174-.232-.406-.116-.7A1.283,1.283,0,0,1,35.382,60a2.882,2.882,0,0,1,1.568-.058.969.969,0,0,1,.871,1.045A3.572,3.572,0,0,0,37.763,61.742Zm-.987.174c-.348.058-.7.174-1.1.232a.424.424,0,0,0-.348.523c.058.29.232.348.465.406C36.485,63.135,36.834,62.671,36.775,61.916Z" transform="translate(-9.404 -19.584)" fill="#090909"/>
    <path id="Path_116" data-name="Path 116" d="M50.168,63.761a2.33,2.33,0,0,1-.871-.174,1.271,1.271,0,0,1-.581-.523c-.116-.232-.116-.523.116-.639a.388.388,0,0,1,.581.232.9.9,0,0,0,.987.465c.174-.058.406-.116.465-.348s-.174-.348-.348-.406c-.348-.116-.7-.174-1.045-.29q-.871-.348-.871-1.045a1.167,1.167,0,0,1,.987-.987,2.1,2.1,0,0,1,1.452.116,1.215,1.215,0,0,1,.348.232c.29.29.348.581.174.755-.232.232-.523.174-.813-.174a.8.8,0,0,0-.929-.29c-.116.058-.29.116-.29.29s.116.232.232.29a5.957,5.957,0,0,0,.813.232,2.08,2.08,0,0,1,.639.232.987.987,0,0,1,0,1.742C50.981,63.7,50.807,63.761,50.168,63.761Z" transform="translate(-15.364 -19.629)" fill="#090909"/>
    <path id="Path_117" data-name="Path 117" d="M27.5,60.055v-1.8c0-.523.174-.755.523-.755s.523.232.523.755v3.136c0,.29.058.348.348.348h1.684c.29,0,.523.116.523.406a.427.427,0,0,1-.465.465H27.965c-.348,0-.465-.29-.465-.581C27.5,61.391,27.5,60.752,27.5,60.055Z" transform="translate(-6.516 -18.594)" fill="#090909"/>
    <path id="Path_118" data-name="Path 118" d="M28.443,50.573v1.742c0,.406-.174.639-.523.639a.593.593,0,0,1-.639-.581,3.282,3.282,0,0,1,0-.755v-2.5a1.279,1.279,0,0,1,.058-.465.587.587,0,0,1,1.161.116C28.443,49.411,28.443,49.992,28.443,50.573Z" transform="translate(-6.414 -14.686)" fill="#090909"/>
    <path id="Path_119" data-name="Path 119" d="M28.419,45.939c0,.406-.174.581-.581.581a.566.566,0,0,1-.639-.581.686.686,0,0,1,.639-.639A.566.566,0,0,1,28.419,45.939Z" transform="translate(-6.39 -13.478)" fill="#090909"/>
    <path id="Path_120" data-name="Path 120" d="M16.7,44.9v0Z" transform="translate(-1.987 -13.311)" fill="#2f3392"/>
  </g>
</svg>
