<svg id="Layer_1" data-name="Layer 1" xmlns="http://www.w3.org/2000/svg" xmlns:xlink="http://www.w3.org/1999/xlink" viewBox="0 0 100 100"><defs><style>.cls-1{fill:url(#linear-gradient);}.cls-2{fill:#fff;}</style><linearGradient id="linear-gradient" x1="50" y1="11.33" x2="50" y2="93.68" gradientUnits="userSpaceOnUse"><stop offset="0" stop-color="#f38020"/><stop offset="0.54" stop-color="#f26e23"/><stop offset="1" stop-color="#f05724"/></linearGradient></defs><circle class="cls-1" cx="50" cy="52.5" r="41.18"/><path class="cls-2" d="M62,65.3l1.46,6.92-7.8-4.67a27.18,27.18,0,0,1-5.62.61c-12.16,0-22-7.92-22-17.69s9.85-17.69,22-17.69S72,40.7,72,50.47C72,56.69,68,62.15,62,65.3ZM38.34,47.5a3,3,0,1,0,3,3A3,3,0,0,0,38.34,47.5ZM50,47.5a3,3,0,1,0,3,3A3,3,0,0,0,50,47.5Zm11.66,0a3,3,0,1,0,3,3A3,3,0,0,0,61.66,47.5Z"/></svg>