<svg xmlns="http://www.w3.org/2000/svg" width="32" height="32" viewBox="0 0 32 32"><defs><style>.a{fill:#ffaa39;}.b{fill:#ff9100;}.c{fill:#ffe92f;}.d{fill:#fff634;}.e{fill:#fc9e2d;}</style></defs><g transform="translate(-889.994 -385)"><g transform="translate(840.494 323.8)"><circle class="a" cx="16" cy="16" r="16" transform="translate(49.5 61.2)"/><path class="b" d="M157.523,83.2A16.005,16.005,0,0,1,141.4,110.773,16,16,0,1,0,157.523,83.2Z" transform="translate(-84.861 -20.315)"/><circle class="c" cx="11.098" cy="11.098" r="11.098" transform="translate(54.402 66.102)"/><path class="d" d="M114.58,137.279a11.1,11.1,0,0,1,18.443-8.318,11.1,11.1,0,1,0-15.671,15.655A11.079,11.079,0,0,1,114.58,137.279Z" transform="translate(-59.19 -59.098)"/><path class="e" d="M191.687,194.528l1,2.03a.946.946,0,0,0,.72.521l2.236.322a.952.952,0,0,1,.529,1.624l-1.616,1.578a.963.963,0,0,0-.276.842l.383,2.229a.952.952,0,0,1-1.379,1l-2-1.049a.958.958,0,0,0-.888,0l-2,1.049a.949.949,0,0,1-1.379-1l.383-2.229a.942.942,0,0,0-.276-.842l-1.616-1.578a.952.952,0,0,1,.528-1.624l2.236-.322a.972.972,0,0,0,.72-.521l1-2.03A.936.936,0,0,1,191.687,194.528Z" transform="translate(-125.329 -122.629)"/></g></g></svg>