<svg xmlns="http://www.w3.org/2000/svg" width="24.003" height="24" viewBox="0 0 24.003 24"><defs><style>.a{fill:#acacac;}</style></defs><g transform="translate(-16.8 -16.804)"><path class="a" d="M29.553,40.8h-1.5l-.459-.059a12.083,12.083,0,0,1-10.611-9.878c-.079-.439-.124-.878-.183-1.317v-1.5a1.509,1.509,0,0,0,.039-.183,12.034,12.034,0,0,1,11.5-11.05,11.444,11.444,0,0,1,7.9,2.587A11.737,11.737,0,0,1,40.8,28.66a11.306,11.306,0,0,1-1.657,6.2,11.874,11.874,0,0,1-8.273,5.751C30.438,40.706,29.992,40.745,29.553,40.8ZM28.82,19.659a9.141,9.141,0,1,0,9.125,9.151A9.164,9.164,0,0,0,28.82,19.659Z"/><path class="a" d="M89.636,97.372a7.736,7.736,0,1,1,7.742-7.742A7.748,7.748,0,0,1,89.636,97.372Zm-.007-14.031a.7.7,0,0,0-.662.432c-.445.917-.9,1.834-1.356,2.751a.344.344,0,0,1-.288.223c-1.015.138-2.024.3-3.039.439a.721.721,0,0,0-.668.5.743.743,0,0,0,.255.8c.629.609,1.231,1.245,1.893,1.821a.983.983,0,0,1,.341,1.087c-.19.884-.321,1.782-.465,2.673a.689.689,0,0,0,.773.812,1.243,1.243,0,0,0,.367-.138c.865-.452,1.736-.9,2.587-1.369a.475.475,0,0,1,.531.007c.419.236.852.452,1.284.681.472.249.937.491,1.408.74a.7.7,0,0,0,1.035-.721c-.013-.079-.02-.157-.033-.229-.164-.963-.328-1.926-.5-2.882a.368.368,0,0,1,.118-.367c.74-.707,1.467-1.428,2.2-2.142a.715.715,0,0,0-.4-1.271c-1.022-.144-2.037-.308-3.059-.445a.359.359,0,0,1-.308-.229c-.445-.917-.9-1.834-1.356-2.751A.666.666,0,0,0,89.629,83.341Z" transform="translate(-60.836 -60.832)"/><path class="a" d="M144.176,145.977c.1-.59.183-1.114.275-1.644.177-1.028.242-.93-.517-1.677-.393-.386-.76-.8-1.133-1.2.517-.079,1.074-.2,1.638-.229a1.32,1.32,0,0,0,1.323-.93,14.577,14.577,0,0,1,.662-1.369c.033-.066.072-.131.131-.229.17.347.328.655.478.969s.328.622.465.943a.909.909,0,0,0,.819.563c.675.079,1.343.19,2.063.295-.072.079-.118.138-.17.183-.472.459-.937.917-1.408,1.376a.784.784,0,0,0-.242.786c.124.642.229,1.29.334,1.939.013.059.007.124.02.223-.314-.164-.6-.314-.884-.459-.354-.183-.707-.367-1.055-.557a.8.8,0,0,0-.819,0C145.505,145.29,144.87,145.617,144.176,145.977Z" transform="translate(-117.747 -113.912)"/></g></svg>