<svg id="Layer_1" data-name="Layer 1" xmlns="http://www.w3.org/2000/svg" xmlns:xlink="http://www.w3.org/1999/xlink" viewBox="0 0 100 100"><defs><style>.cls-1{fill:url(#linear-gradient);}.cls-2{fill:url(#linear-gradient-2);}.cls-3{fill:#323232;}.cls-4{fill:#fff;}</style><linearGradient id="linear-gradient" x1="50" y1="16.95" x2="50" y2="79.81" gradientTransform="translate(22.35 -15.46) rotate(22.53)" gradientUnits="userSpaceOnUse"><stop offset="0" stop-color="#70c49c"/><stop offset="1" stop-color="#368f6b"/></linearGradient><linearGradient id="linear-gradient-2" x1="50" y1="17.63" x2="50" y2="80.49" gradientTransform="translate(22.55 -15.39) rotate(22.47)" xlink:href="#linear-gradient"/></defs><g id="call_center" data-name="call center"><circle class="cls-1" cx="50" cy="48.38" r="31.43" transform="translate(-14.72 22.85) rotate(-22.53)"/><circle class="cls-2" cx="50" cy="49.06" r="31.43" transform="translate(-14.96 22.84) rotate(-22.47)"/><path class="cls-3" d="M59.8,88.47a3.54,3.54,0,0,1-3.44,3.63H43.64a3.54,3.54,0,0,1-3.44-3.63h0a3.54,3.54,0,0,1,3.44-3.63H56.36a3.54,3.54,0,0,1,3.44,3.63Z"/><path class="cls-3" d="M10.44,64A5.31,5.31,0,0,1,5,58.81V39.74a5.32,5.32,0,0,1,5.45-5.17h0a5.32,5.32,0,0,1,5.44,5.17V58.81A5.31,5.31,0,0,1,10.44,64Z"/><path class="cls-3" d="M89.56,64a5.31,5.31,0,0,1-5.44-5.16V39.74a5.32,5.32,0,0,1,5.44-5.17h0A5.32,5.32,0,0,1,95,39.74V58.81A5.31,5.31,0,0,1,89.56,64Z"/><path class="cls-3" d="M50,7.9A41.42,41.42,0,0,0,8.62,49.27h3.63A37.75,37.75,0,1,1,50,87v3.63A41.38,41.38,0,1,0,50,7.9Z"/></g><path class="cls-4" d="M27.05,49.06l-.77-1.88L30.92,42a12,12,0,0,0,.84-1c.3-.36.58-.73.85-1.12a7.42,7.42,0,0,0,.66-1.12,2.49,2.49,0,0,0,.25-1,1.84,1.84,0,0,0-.22-.94,1.4,1.4,0,0,0-.64-.61,2.29,2.29,0,0,0-1.07-.22,2.07,2.07,0,0,0-1.08.31,3.35,3.35,0,0,0-1,.89,5.84,5.84,0,0,0-.8,1.45l-2.53-1.45A7.1,7.1,0,0,1,27.5,35a5.91,5.91,0,0,1,2-1.52A5.46,5.46,0,0,1,32,32.91a5.26,5.26,0,0,1,2.47.57,4.45,4.45,0,0,1,1.73,1.6,4.29,4.29,0,0,1,.64,2.35,5.4,5.4,0,0,1-.17,1.3,6.66,6.66,0,0,1-.56,1.41,11.7,11.7,0,0,1-1,1.57,22.5,22.5,0,0,1-1.47,1.78l-3.55,3.87L29.6,46h7.83v3.05Z"/><path class="cls-4" d="M45.26,49.06V36.32l1.51.09L41.3,43.09l-.36-.55H51.16v2.88H39.26l-1.38-2.67,7.92-9.62h2.72V49.06Z"/><path class="cls-4" d="M62.53,67.28,69,52.91l.79,1.45H61.58v-3H71.74l.34,1.77L66,67.28Z"/><path class="cls-4" d="M49.32,59.64l9.38-19h3.15l-9.34,19Z"/></svg>