<?xml version="1.0" encoding="utf-8"?>
<!-- Generator: Adobe Illustrator 26.0.3, SVG Export Plug-In . SVG Version: 6.00 Build 0)  -->
<svg version="1.1" id="Layer_1" xmlns="http://www.w3.org/2000/svg" xmlns:xlink="http://www.w3.org/1999/xlink" x="0px" y="0px"
	 viewBox="0 0 36 36" style="enable-background:new 0 0 36 36;" xml:space="preserve">
<style type="text/css">
	.st0{fill:#FFFFFF;}
	.st1{fill:#EC6B00;}
</style>
<path class="st0" d="M30.6,36h-25c-3,0-5.4-2.4-5.4-5.4v-25c0-3,2.4-5.4,5.4-5.4h25c3,0,5.4,2.4,5.4,5.4v25C36,33.6,33.6,36,30.6,36
	z"/>
<g>
	<path class="st1" d="M24.6,19.5c0.8-0.7,1.6-1.5,2.3-2.2c0.4-0.3,0.7-0.7,1-1c0.8-0.8,2-1,3.1,0c0.8,0.7,0.8,2,0.1,2.9
		c-1.5,1.8-3.1,3.7-4.6,5.5c-0.9,1.1-2.2,1.6-3.6,1.6c-2.3,0-4.5,0-6.8,0c-0.8,0-1.4,0.4-1.9,0.9c0,0.1,0,0.2,0,0.2
		c0.1,0.6-0.1,1.1-0.5,1.6c-0.8,0.8-1.6,1.6-2.4,2.4c-0.4,0.4-0.6,0.3-1,0c-1.9-1.9-3.8-3.9-5.8-5.8c-0.4-0.4-0.4-0.6,0-1
		c0.8-0.8,1.6-1.6,2.3-2.4c0.4-0.4,0.8-0.5,1.3-0.5c0.1,0,0.2-0.1,0.3-0.2c1.8-3.2,5.7-3.8,8.4-2.8c0.1,0.1,0.3,0.1,0.4,0.1
		c1.8,0,3.5,0,5.3,0C23.5,18.8,24.2,19,24.6,19.5z M13.5,26.4c0.1,0,0.1,0,0.1-0.1c0,0,0.1-0.1,0.1-0.1c0.7-0.8,1.5-1,2.5-1
		c2.2,0,4.4,0,6.6,0c1.2,0,2.2-0.4,2.9-1.4c0.2-0.2,0.3-0.4,0.5-0.6c1.3-1.6,2.7-3.2,4-4.8c0.4-0.5,0.3-1.1-0.1-1.5
		c-0.5-0.4-1-0.4-1.5,0.1c-1.1,1.2-2.3,2.3-3.4,3.5c-0.1,0.1-0.1,0.2-0.1,0.3c0.1,1.1-0.8,2.3-2.4,2.3c-1.3,0-2.6,0-3.9,0
		c-0.1,0-0.2,0-0.3,0c-0.3,0-0.5-0.3-0.5-0.5c0-0.3,0.2-0.5,0.5-0.5c0.1,0,0.2,0,0.3,0c1.3,0,2.7,0,4,0c0.7,0,1.2-0.5,1.1-1.2
		c-0.1-0.5-0.5-0.9-1.1-0.9c-1.9,0-3.8,0-5.7,0c-0.2,0-0.4,0-0.5-0.1c-1-0.4-2-0.5-3.1-0.4c-1.8,0.2-3.1,1-4.1,2.5
		c-0.1,0.2-0.1,0.3,0,0.5c0.6,0.6,1.1,1.1,1.7,1.7C12,24.9,12.8,25.7,13.5,26.4z M5.6,25.1c1.8,1.8,3.6,3.5,5.4,5.3
		c0.7-0.7,1.4-1.4,2.1-2.2c0.2-0.2,0.2-0.5-0.1-0.8c-1.5-1.5-2.9-2.9-4.4-4.4c-0.3-0.3-0.6-0.3-0.8,0c-0.3,0.3-0.6,0.6-0.8,0.8
		C6.4,24.2,6,24.6,5.6,25.1z"/>
	<path class="st1" d="M26.1,10.2c0,3.2-2.6,5.9-5.9,5.9c-3.2,0-5.9-2.6-5.9-5.9c0-3.2,2.6-5.9,5.9-5.9C23.4,4.3,26.1,7,26.1,10.2z
		 M15.4,10.2c0,2.7,2.1,4.8,4.8,4.8c2.6,0,4.8-2.2,4.8-4.8c0-2.6-2.2-4.8-4.8-4.8C17.6,5.4,15.4,7.5,15.4,10.2z"/>
	<path class="st1" d="M21.7,8.5c0,0.3-0.2,0.4-0.4,0.5c-0.1,0.1-0.4,0-0.5,0c-0.2,0-0.2-0.1-0.3-0.2c-0.2-0.1-0.5-0.2-0.7,0
		c-0.2,0.1-0.3,0.3-0.2,0.6c0.1,0.3,0.3,0.4,0.5,0.4c0.7,0,1.2,0.4,1.5,1.1c0.2,0.6,0.1,1.3-0.5,1.7c-0.4,0.3-0.5,0.5-0.5,1
		c0,0.3-0.3,0.5-0.5,0.5c-0.3,0-0.5-0.2-0.5-0.5c0.1-0.5-0.1-0.8-0.6-1c-0.2-0.1-0.3-0.3-0.4-0.4c-0.2-0.2-0.2-0.5,0-0.7
		c0.2-0.2,0.5-0.2,0.7,0c0.1,0.1,0.3,0.3,0.4,0.4c0.2,0.1,0.4,0.1,0.6,0c0.2-0.1,0.2-0.3,0.2-0.6c-0.1-0.2-0.3-0.3-0.5-0.4
		c-0.8-0.1-1.4-0.5-1.5-1.3c-0.2-0.7,0.2-1.4,0.9-1.8c0.1,0,0.1-0.2,0.2-0.3c0-0.1,0-0.3,0-0.4c0-0.3,0.3-0.5,0.5-0.5
		c0.3,0,0.6,0.2,0.5,0.5c-0.1,0.5,0.1,0.7,0.5,0.9C21.4,8,21.6,8.2,21.7,8.5z"/>
</g>
<g>
	<path class="st1" d="M24.7,19.5c0.9-0.9,1.7-1.8,2.6-2.7c0.4-0.4,0.7-0.8,1.3-1.1c0.8-0.4,1.9-0.3,2.6,0.5c0.7,0.8,0.7,2.1,0,2.9
		c-0.5,0.6-1,1.3-1.6,1.9c-0.7,0.8-1.4,1.7-2.1,2.5c-0.4,0.5-0.9,1.1-1.4,1.5c-0.5,0.5-1.1,0.8-1.8,0.9c-0.4,0.1-0.9,0.2-1.3,0.2
		c-2.2,0-4.5,0-6.7,0c-0.8,0-1.3,0.4-1.8,0.9c0,0-0.1,0.1-0.1,0.2c0.2,0.8-0.1,1.3-0.7,1.8c-0.7,0.6-1.3,1.3-1.9,1.9
		c-0.1,0.1-0.2,0.2-0.3,0.3c-0.4,0.4-0.8,0.3-1.1-0.1c-0.1-0.1-0.1-0.2-0.2-0.2c-1.8-1.8-3.6-3.6-5.4-5.5c-0.4-0.4-0.4-0.7,0-1.1
		c0.8-0.8,1.6-1.6,2.4-2.5c0.3-0.3,0.7-0.4,1.2-0.5c0.1,0,0.2,0,0.2-0.1c0.5-0.8,1.1-1.5,1.9-2.1c1-0.7,2-1,3.2-1.1
		c1.1-0.1,2.2,0,3.3,0.4c0.2,0.1,0.3,0.1,0.5,0.1c1.8,0,3.6,0,5.4,0C23.6,18.8,24.2,19,24.7,19.5z M13.6,26.2c0,0,0.1-0.1,0.1-0.1
		c0.7-0.7,1.5-1,2.5-1c2.2,0,4.4,0,6.6,0c0.7,0,1.3-0.1,1.9-0.5c0.4-0.2,0.7-0.5,1-0.9c0.5-0.5,0.9-1,1.3-1.6c0.5-0.6,1-1.2,1.5-1.8
		c0.5-0.6,1.1-1.2,1.6-1.9c0.4-0.4,0.3-1.1,0-1.4c-0.5-0.4-1-0.4-1.4,0.1c-0.6,0.6-1.1,1.2-1.7,1.7c-0.4,0.5-0.9,0.9-1.4,1.4
		c-0.2,0.2-0.4,0.5-0.5,0.9c-0.1,1.2-1,1.9-2,2c-1.5,0-3,0-4.4,0c-0.2,0-0.4-0.1-0.5-0.3c-0.1-0.1-0.1-0.4,0-0.6
		c0.1-0.2,0.3-0.3,0.6-0.3c1.4,0,2.8,0,4.2,0c0.4,0,0.7-0.1,0.9-0.5c0.2-0.3,0.2-0.7,0-1c-0.2-0.3-0.6-0.5-0.9-0.5
		c-1.9,0-3.8,0-5.7,0c-0.1,0-0.3,0-0.4-0.1c-0.3-0.1-0.6-0.2-0.9-0.3c-1.2-0.3-2.4-0.2-3.5,0.2c-0.8,0.3-1.4,0.7-2,1.3
		c-0.3,0.4-0.6,0.7-0.9,1.1C10.9,23.5,12.2,24.9,13.6,26.2z M5.8,25c1.7,1.7,3.3,3.5,5,5.2c0.8-0.8,1.5-1.5,2.2-2.2
		c0.2-0.2,0.2-0.4,0-0.6c-0.7-0.7-1.3-1.4-2-2c-0.8-0.8-1.7-1.7-2.5-2.5c-0.2-0.2-0.4-0.2-0.6,0c-0.3,0.3-0.6,0.5-0.8,0.8
		C6.7,24.2,6.3,24.6,5.8,25z"/>
	<path class="st1" d="M20.2,4.4c3.2-0.1,5.9,2.7,5.9,5.8c0,3.2-2.7,5.9-5.9,5.9c-3.3,0-5.9-2.6-5.9-5.9C14.3,7,16.9,4.3,20.2,4.4z
		 M20.2,5.6c-2.6,0-4.7,2.1-4.7,4.7c0,2.6,2.1,4.7,4.7,4.7c2.6,0,4.7-2.1,4.7-4.7C24.9,7.7,22.8,5.5,20.2,5.6z"/>
	<path class="st1" d="M20.1,14c-0.4,0-0.6-0.2-0.6-0.7c0-0.3-0.1-0.5-0.4-0.6c-0.2-0.1-0.4-0.3-0.6-0.5c-0.2-0.2-0.2-0.5,0-0.8
		c0.2-0.2,0.6-0.3,0.8,0c0.1,0.1,0.3,0.2,0.4,0.3c0.2,0.2,0.5,0.1,0.6-0.1c0.1-0.2,0.1-0.5-0.1-0.6c-0.1-0.1-0.3-0.1-0.5-0.1
		c-0.7-0.1-1.1-0.5-1.4-1.2C18.3,9,18.6,8.2,19,8c0.2-0.2,0.4-0.1,0.5-0.3c0-0.2,0-0.5,0-0.6c0.1-0.4,0.3-0.6,0.6-0.5
		c0.3,0,0.6,0.3,0.6,0.6c0,0.5,0.1,0.6,0.5,0.8c0.2,0.1,0.4,0.4,0.4,0.6c0.1,0.2-0.1,0.5-0.3,0.6c-0.2,0.1-0.5,0-0.7-0.1
		c-0.1-0.1-0.3-0.2-0.5-0.2c-0.3-0.1-0.4,0.1-0.5,0.3c0,0.3,0.1,0.5,0.4,0.5c0.3,0.1,0.6,0.1,0.8,0.2c0.9,0.4,1.2,1.8,0.4,2.5
		c-0.1,0.1-0.2,0.3-0.4,0.3c-0.2,0.1-0.2,0.2-0.2,0.4c0,0.1,0,0.3,0,0.4C20.6,13.9,20.4,14,20.1,14z"/>
</g>
</svg>
