<svg xmlns="http://www.w3.org/2000/svg" width="36" height="36" viewBox="0 0 36 36">
  <g id="profile-fb" transform="translate(-0.101 -0.101)">
    <path id="Path_53" data-name="Path 53" d="M30.67,36.1H5.531A5.408,5.408,0,0,1,.1,30.67V5.531A5.408,5.408,0,0,1,5.531.1H30.67a5.408,5.408,0,0,1,5.43,5.43V30.67A5.408,5.408,0,0,1,30.67,36.1Z" fill="#fff"/>
    <path id="Path_54" data-name="Path 54" d="M25.039,4.425c.7.3.8.8.8,1.609v3.52a1.407,1.407,0,0,1-1.609,1.508H21.922c-.6,0-.7.1-.7.7v2.011h2.916a1.425,1.425,0,0,1,1.508,1.508v3.922a1.481,1.481,0,0,1-1.508,1.508H21.117V30.57a1.558,1.558,0,0,1-.2.8,1.155,1.155,0,0,1-1.106.6H15.385a1.268,1.268,0,0,1-1.307-1.307V20.514H11.263a1.285,1.285,0,0,1-1.106-1.207V14.883a1.331,1.331,0,0,1,1.307-1.307h2.615V10.86a6.909,6.909,0,0,1,1.709-4.425,5.742,5.742,0,0,1,3.52-2.011,5.67,5.67,0,0,1,.7-.1A16.546,16.546,0,0,1,25.039,4.425ZM11.866,19.207h2.916a.777.777,0,0,1,.8.7V30.369h3.821V20.112a.964.964,0,0,1,1.106-1.106h3.52V15.285h-3.52c-.6,0-.905-.3-.905-.8V11.363a1.807,1.807,0,0,1,1.307-1.81,3.732,3.732,0,0,1,.905-.2h2.413V5.832c-1.408,0-2.615,0-3.922.1A4.766,4.766,0,0,0,17.6,7.14a4.586,4.586,0,0,0-1.709,3.821c-.1,1.106,0,2.212,0,3.218a1.006,1.006,0,0,1-1.106,1.106H11.966C11.866,16.693,11.866,17.9,11.866,19.207Z" fill="#ec6b00"/>
  </g>
</svg>
