<svg xmlns="http://www.w3.org/2000/svg" width="25" height="25" viewBox="0 0 25 25"><defs><style>.a{fill:#cc1f1f;}.b{fill:#fff;}</style></defs><g transform="translate(-85.5 -85.5)"><path class="a" d="M101.766,110.5H94.234a8.731,8.731,0,0,1-8.734-8.734V94.234A8.731,8.731,0,0,1,94.234,85.5h7.533a8.731,8.731,0,0,1,8.734,8.734v7.533A8.731,8.731,0,0,1,101.766,110.5Z"/><path class="b" d="M147.679,139.432c-.36-.066-.731-.109-1.092-.186a6.4,6.4,0,0,1-1.878-11.6c.065-.044.131-.076.207-.12a3.056,3.056,0,0,0,1.583,2.915v-.873a11.567,11.567,0,0,1,.808-4.214,5.8,5.8,0,0,1,2.162-2.74c.065-.044.131-.076.186-.109.055.382.076.753.153,1.124a6.159,6.159,0,0,0,1.2,2.511c.535.7,1.1,1.386,1.638,2.074a7.949,7.949,0,0,1,1.583,3.057,6.449,6.449,0,0,1-1.2,5.8,6.152,6.152,0,0,1-4.072,2.3l-.437.065ZM151,130.12a3.728,3.728,0,0,1-1.856,1.889,8.355,8.355,0,0,1-1.7.622,2.377,2.377,0,0,0-.1,4.542,2.829,2.829,0,0,0,2.9-.873,4.461,4.461,0,0,0,.983-2.467,10.833,10.833,0,0,0-.065-2.849C151.107,130.721,151.052,130.448,151,130.12Z" transform="translate(-50.115 -32.961)"/></g></svg>