<svg xmlns="http://www.w3.org/2000/svg" width="25" height="25" viewBox="0 0 25 25"><defs><style>.a{fill:#08b22c;}.b{fill:#fff;}</style></defs><g transform="translate(-85.5 -85.5)"><path class="a" d="M101.766,110.5H94.234a8.731,8.731,0,0,1-8.734-8.734V94.234A8.731,8.731,0,0,1,94.234,85.5h7.533a8.731,8.731,0,0,1,8.734,8.734v7.533A8.731,8.731,0,0,1,101.766,110.5Z"/><g transform="translate(89.692 95.653)"><path class="b" d="M128.485,183.937h-1.4l-1.79-3.144v3.144h-1.4V178.5h1.4l1.79,3.144V178.5h1.4Z" transform="translate(-123.9 -178.5)"/><path class="b" d="M177.808,183.937H176.4V178.5h1.408Zm2.391-4.3h-2.882V178.5H180.2Zm-.382,2.063h-2.5v-1.081h2.5Zm.36,2.238h-2.871v-1.124h2.871Z" transform="translate(-170.669 -178.5)"/><path class="b" d="M218.393,183.74l-.284.2h-.873L216.1,178.5h1.386Zm.349-5.24h.677l.415.218-1.135,5.207h-.753l-.262-.262Zm2.282,5.218-.273.229H220l-1.168-5.218.426-.207h.677Zm.164-5.218h1.386l-1.135,5.437h-.873l-.284-.229Z" transform="translate(-206.035 -178.5)"/></g></g></svg>