<svg xmlns="http://www.w3.org/2000/svg" width="74.868" height="31" viewBox="0 0 74.868 31">
  <g id="footer-Casinos-Analyzer" transform="translate(-6.1 -14.2)">
    <path id="Path_148" data-name="Path 148" d="M76.289,45.2H10.779A4.693,4.693,0,0,1,6.1,40.521V18.879A4.693,4.693,0,0,1,10.779,14.2h65.51a4.693,4.693,0,0,1,4.679,4.679v21.7A4.643,4.643,0,0,1,76.289,45.2Z" fill="#222633"/>
    <g id="Group_49" data-name="Group 49" transform="translate(12.768 19.347)">
      <g id="Group_45" data-name="Group 45" transform="translate(0 0)">
        <path id="Path_149" data-name="Path 149" d="M34.053,41.892a5.8,5.8,0,0,1-.994.643,11.45,11.45,0,0,1-3.334,1.228h-.117a1,1,0,0,0,.058-.409V42.126c0-.292-.117-.409-.468-.468-.351,0-.7.058-1.053.058-.526,0-1.053-.058-1.579-.058-.409,0-.526.117-.526.468v1.4a.215.215,0,0,0,.058.175,10.363,10.363,0,0,1-4.5-1.93c.175.175.292,0,.409-.117a5.082,5.082,0,0,0,.936-.994c.234-.292.234-.468-.058-.7a11.618,11.618,0,0,1-1.7-1.7c-.292-.351-.409-.351-.76-.058a8.933,8.933,0,0,0-1.053,1.053.215.215,0,0,0-.058.175A11,11,0,0,1,17.5,35.108a8.8,8.8,0,0,0,1.755,0c.234,0,.351-.175.351-.409a5.031,5.031,0,0,0-.058-.936,8.609,8.609,0,0,1,0-1.228c0-.175.058-.409.058-.585a.387.387,0,0,0-.351-.409,7.129,7.129,0,0,0-1.579,0c-.058,0-.117,0-.117.058a9.965,9.965,0,0,1,1.813-4.328c.058.117.175.234.234.351l.877.877c.292.234.468.234.7-.058a7.409,7.409,0,0,0,.643-.76c.351-.351.76-.7,1.111-.994.234-.234.292-.409.058-.643a5.83,5.83,0,0,0-1.228-1.17A10.524,10.524,0,0,1,26.1,23.058a8.215,8.215,0,0,0,0,1.7.4.4,0,0,0,.409.409c.409,0,.819-.058,1.228-.058.468,0,.936.058,1.4.058h.117a.369.369,0,0,0,.409-.409V23a10.442,10.442,0,0,1,4.387,1.813c-.058-.058-.175,0-.234.058-.351.351-.7.643-1.053,1.053l-.058.058c-.175.234-.175.409.058.585.175.175.351.292.526.468a7.815,7.815,0,0,1,1.17,1.228c.058.058.117.175.234.234a.309.309,0,0,0,.468.058,1.577,1.577,0,0,0,.468-.409,9,9,0,0,0,.7-.76.178.178,0,0,0,0-.234A1.224,1.224,0,0,1,36.1,26.8a10.26,10.26,0,0,1,2.164,4.8.742.742,0,0,0-.351-.058H36.568c-.292,0-.409.175-.409.468,0,.409.058.819.058,1.228a7.079,7.079,0,0,1-.058,1.111V34.7a.31.31,0,0,0,.351.351,7.665,7.665,0,0,0,1.638,0c.058,0,.058,0,.117-.058A10.739,10.739,0,0,1,36.1,39.845h-.058c.117-.117.175-.234.292-.351.058-.058.058-.117,0-.234a9.969,9.969,0,0,0-1.111-1.111c-.292-.175-.409-.175-.643.058-.351.409-.7.819-1.111,1.228-.234.175-.409.351-.643.526l-.175.175a.458.458,0,0,0-.058.468,1.551,1.551,0,0,0,.292.351,10.809,10.809,0,0,0,.819.819c.175.117.234.175.351.117Zm-12.342-8.54a6.155,6.155,0,0,0,6.025,6.142,6.144,6.144,0,1,0,0-12.283A6.151,6.151,0,0,0,21.711,33.353Zm-.7-.877H20.6c-.292,0-.351,0-.351.292a5.637,5.637,0,0,0,0,1.4c0,.058,0,.117.117.117h.526c.058,0,.058,0,.058-.058A17.011,17.011,0,0,1,21.009,32.475Zm6.785,8.481a4.427,4.427,0,0,0,.877-.058c.058,0,.117,0,.117-.117V40.2c0-.058,0-.058-.058-.058-.117.058-.234,0-.351.058a4.755,4.755,0,0,1-1.287-.058c-.058,0-.117,0-.117.058v.526c0,.117,0,.117.117.117A1.484,1.484,0,0,0,27.794,40.957Zm6.492-10.236h0a2.371,2.371,0,0,1,.526-.292c.058-.058.058-.058.058-.117a6.368,6.368,0,0,0-.819-1.345.215.215,0,0,0-.175-.058,2.543,2.543,0,0,1-.409.234c-.117.058-.117.117-.058.175a14.715,14.715,0,0,1,.877,1.4C34.228,30.662,34.228,30.721,34.287,30.721Zm1.17,2.632a3.862,3.862,0,0,0-.058-.819.126.126,0,0,0-.117-.117h-.526c-.058,0-.058,0-.058.117a7.665,7.665,0,0,1,0,1.638c0,.058,0,.117.058.117h.526c.058,0,.117,0,.117-.117A3.862,3.862,0,0,0,35.457,33.353Zm-3.1-6.025a.2.2,0,0,0-.058-.117,5.732,5.732,0,0,0-1.287-.76c-.117-.058-.175,0-.175.058-.058.117-.175.292-.234.409-.058.058-.058.117.058.175a3.729,3.729,0,0,1,.819.468l.526.351c.058,0,.117.058.117,0A6.068,6.068,0,0,1,32.357,27.328Zm-3.568-1.111v-.292c0-.058,0-.117-.117-.117a7.665,7.665,0,0,0-1.638,0c-.058,0-.117,0-.117.117v.526c0,.058,0,.117.117.058a10.811,10.811,0,0,1,1.345-.058c.117,0,.292.058.351,0C28.847,26.451,28.73,26.275,28.789,26.217Zm3.568,13.16a.057.057,0,0,0-.058-.058,2.543,2.543,0,0,1-.234-.409.215.215,0,0,0-.175-.058,11.019,11.019,0,0,1-1.4.819c-.058,0-.058.058-.058.117a1.466,1.466,0,0,1,.234.409.215.215,0,0,0,.175.058,10,10,0,0,0,1.345-.76C32.357,39.494,32.357,39.436,32.357,39.377Zm2.457-2.983c0-.058-.058-.058-.058-.117-.117-.117-.292-.175-.409-.292-.058-.058-.117,0-.117.058a4.834,4.834,0,0,1-.409.76,3.934,3.934,0,0,1-.409.643c-.058.058-.058.117.058.175l.351.175c.058.058.117.058.175-.058a9.309,9.309,0,0,0,.76-1.287C34.813,36.453,34.813,36.453,34.813,36.394ZM21.77,37.857a.057.057,0,0,0,.058-.058l.351-.175c.175-.117.175-.117.058-.234a10,10,0,0,1-.76-1.345c0-.058-.058-.058-.117-.058a1.466,1.466,0,0,1-.409.234.215.215,0,0,0-.058.175,10,10,0,0,0,.76,1.345C21.711,37.857,21.711,37.857,21.77,37.857Zm1.93.994c-.058,0-.058.058-.117.058a3.355,3.355,0,0,1-.234.409c-.058.117-.058.117.058.175.234.175.468.292.7.468a2.162,2.162,0,0,0,.643.292c.058.058.117,0,.175-.058.058-.117.175-.292.234-.409.058-.058,0-.117-.058-.117-.175-.058-.351-.175-.526-.234-.292-.117-.526-.351-.819-.468C23.759,38.909,23.7,38.909,23.7,38.851ZM22.355,29.2c0-.058,0-.058-.058-.058-.117-.058-.292-.175-.409-.234-.058-.058-.117,0-.175.058a6.118,6.118,0,0,0-.76,1.345c0,.058,0,.117.058.117.175.117.292.175.468.292.058.058.058,0,.117-.058a9.309,9.309,0,0,1,.76-1.287A.11.11,0,0,1,22.355,29.2Zm2.866-2.223a.057.057,0,0,0-.058-.058c-.058-.117-.175-.292-.234-.409-.058-.058-.117-.117-.175-.058a10,10,0,0,0-1.345.76.11.11,0,0,0,0,.175l.175.351c.117.175.117.175.234.058a8.055,8.055,0,0,1,1.4-.819C25.162,27.036,25.221,27.036,25.221,26.977ZM36.276,37.33a.526.526,0,1,0-.526-.526A.491.491,0,0,0,36.276,37.33ZM24.4,24.462a.524.524,0,0,0-.526.526.465.465,0,0,0,.526.526.524.524,0,0,0,.526-.526A.565.565,0,0,0,24.4,24.462Zm11.874,4.913a.526.526,0,1,0,.526.526A.524.524,0,0,0,36.276,29.375Zm-4.913-4.913a.526.526,0,1,0,.526.526C31.83,24.7,31.655,24.462,31.362,24.462ZM19.957,36.8a.526.526,0,1,0-.526.526A.465.465,0,0,0,19.957,36.8ZM24.4,41.191a.526.526,0,1,0,.526.526A.524.524,0,0,0,24.4,41.191Zm6.9,0a.526.526,0,1,0,.526.526A.491.491,0,0,0,31.3,41.191ZM18.9,29.9a.526.526,0,1,0,.526-.526A.565.565,0,0,0,18.9,29.9Z" transform="translate(-17.5 -23)" fill="#fff"/>
        <path id="Path_150" data-name="Path 150" d="M32.842,42.01a11.27,11.27,0,0,1-1.4-.058c-.175,0-.234-.117-.175-.292a2.543,2.543,0,0,1,.234-.409,4.834,4.834,0,0,0,.409-.76c0-.058.058-.117,0-.175s-.117,0-.175,0a2.123,2.123,0,0,1-1.579.117,2.075,2.075,0,0,1-1.462-1.755,2.7,2.7,0,0,1,.351-1.638,7.627,7.627,0,0,1,1.638-1.989,10.88,10.88,0,0,1,1.638-1.228.443.443,0,0,1,.585,0,12.336,12.336,0,0,1,2.515,2.106,3.838,3.838,0,0,1,1.053,2.047,2.162,2.162,0,0,1-1.228,2.4,1.685,1.685,0,0,1-1.4.058,1.377,1.377,0,0,0-.468-.117c-.117-.058-.175,0-.117.117s.058.234.117.292a4.839,4.839,0,0,0,.526.936c.117.175,0,.351-.234.351Z" transform="translate(-22.139 -27.446)" fill="#fff"/>
      </g>
      <g id="Group_48" data-name="Group 48" transform="translate(23.806 0.994)">
        <g id="Group_46" data-name="Group 46">
          <path id="Path_151" data-name="Path 151" d="M60.657,25.1,59.6,27.5h-.351L58.2,25.1h.351l.877,1.989.877-1.989Z" transform="translate(-58.2 -24.866)" fill="#fff"/>
          <path id="Path_152" data-name="Path 152" d="M64.113,27.053H62.651a.636.636,0,0,0,.643.526.57.57,0,0,0,.526-.234l.175.234a.969.969,0,0,1-.7.292.939.939,0,0,1-.994-.936A.924.924,0,0,1,63.236,26a.846.846,0,0,1,.877.936C64.113,26.994,64.113,27.053,64.113,27.053Zm-1.462-.234h1.17a.622.622,0,0,0-.585-.526A.54.54,0,0,0,62.651,26.819Z" transform="translate(-59.902 -25.24)" fill="#fff"/>
          <path id="Path_153" data-name="Path 153" d="M67.194,25.958v.292h-.058a.553.553,0,0,0-.585.585v.877H66.2V25.9h.292v.292A.989.989,0,0,1,67.194,25.958Z" transform="translate(-61.521 -25.198)" fill="#fff"/>
          <path id="Path_154" data-name="Path 154" d="M68.5,24.934a.234.234,0,1,1,.234.234A.214.214,0,0,1,68.5,24.934Zm.058.585h.351v1.813h-.351Z" transform="translate(-62.475 -24.7)" fill="#fff"/>
          <path id="Path_155" data-name="Path 155" d="M70.636,24.758a.627.627,0,0,1,.351.117l-.117.234a.352.352,0,0,0-.234-.058.276.276,0,0,0-.292.292v.175h.526v.292h-.526v1.521h-.351V25.811H69.7v-.292h.292v-.175A.6.6,0,0,1,70.636,24.758Zm.76.175a.234.234,0,1,1,.234.234A.252.252,0,0,1,71.4,24.934Zm.058.585h.351v1.813h-.351Z" transform="translate(-62.974 -24.7)" fill="#fff"/>
          <path id="Path_156" data-name="Path 156" d="M75.913,27.053H74.451a.636.636,0,0,0,.643.526.57.57,0,0,0,.526-.234l.175.234a.969.969,0,0,1-.7.292.939.939,0,0,1-.994-.936A.924.924,0,0,1,75.036,26a.846.846,0,0,1,.877.936C75.913,26.994,75.913,27.053,75.913,27.053Zm-1.521-.234h1.17a.588.588,0,0,0-1.17,0Z" transform="translate(-64.8 -25.24)" fill="#fff"/>
          <path id="Path_157" data-name="Path 157" d="M79.572,24.8v2.574h-.292v-.292a.745.745,0,0,1-.643.292.89.89,0,0,1-.936-.936.924.924,0,0,1,.936-.936.939.939,0,0,1,.643.292V24.8h.292Zm-.351,1.638a.6.6,0,0,0-.585-.643.57.57,0,0,0-.585.643.6.6,0,0,0,.585.643A.57.57,0,0,0,79.221,26.438Z" transform="translate(-66.294 -24.742)" fill="#fff"/>
          <path id="Path_158" data-name="Path 158" d="M85.606,26.855c0,.409-.292.643-.936.643H83.5V25.1h1.053c.526,0,.877.234.877.643a.512.512,0,0,1-.351.526A.538.538,0,0,1,85.606,26.855Zm-1.7-1.462v.76h.7c.351,0,.526-.117.526-.409,0-.234-.175-.409-.526-.409h-.7Zm1.4,1.4c0-.292-.234-.409-.585-.409h-.76v.819h.76C85.079,27.206,85.313,27.089,85.313,26.8Z" transform="translate(-68.702 -24.866)" fill="#fff"/>
          <path id="Path_159" data-name="Path 159" d="M89.289,26.1l-.877,1.989c-.175.409-.351.526-.643.526a.664.664,0,0,1-.468-.175l.117-.234a.627.627,0,0,0,.351.117c.175,0,.234-.058.351-.292l.058-.117L87.358,26.1h.351l.643,1.462L89,26.1Z" transform="translate(-70.279 -25.281)" fill="#fff"/>
        </g>
        <g id="Group_47" data-name="Group 47" transform="translate(0 5.615)">
          <path id="Path_160" data-name="Path 160" d="M58.8,36.757A2.463,2.463,0,0,1,61.374,34.3a2.347,2.347,0,0,1,1.872.819l-.585.526a1.772,1.772,0,0,0-1.287-.585,1.7,1.7,0,0,0,0,3.392,1.579,1.579,0,0,0,1.287-.585l.585.526a2.432,2.432,0,0,1-1.872.819A2.365,2.365,0,0,1,58.8,36.757Z" transform="translate(-58.449 -34.3)" fill="#fff"/>
          <path id="Path_161" data-name="Path 161" d="M70.3,38.085H67.9L67.436,39.2H66.5l2.164-4.8h.877l2.164,4.8H70.77Zm-.292-.643-.936-2.106L68.2,37.442Z" transform="translate(-61.645 -34.342)" fill="#fff"/>
          <path id="Path_162" data-name="Path 162" d="M75.8,38.728l.292-.7a2.834,2.834,0,0,0,1.579.526c.76,0,1.053-.292,1.053-.643,0-1.053-2.866-.351-2.866-2.106,0-.76.643-1.4,1.93-1.4a3.322,3.322,0,0,1,1.579.409l-.292.7a2.717,2.717,0,0,0-1.345-.351c-.76,0-1.053.292-1.053.643,0,.994,2.866.351,2.866,2.106,0,.76-.643,1.4-1.93,1.4A2.8,2.8,0,0,1,75.8,38.728Z" transform="translate(-65.506 -34.342)" fill="#fff"/>
          <path id="Path_163" data-name="Path 163" d="M83.8,34.5h.877v4.8H83.8Z" transform="translate(-68.826 -34.383)" fill="#fff"/>
          <path id="Path_164" data-name="Path 164" d="M91.77,34.458v4.8h-.76l-2.632-3.275V39.2H87.5V34.4h.76l2.632,3.217V34.4h.877Z" transform="translate(-70.362 -34.342)" fill="#fff"/>
          <path id="Path_165" data-name="Path 165" d="M96.4,36.757a2.576,2.576,0,1,1,2.574,2.457A2.4,2.4,0,0,1,96.4,36.757Zm4.27,0a1.628,1.628,0,0,0-1.7-1.7,1.661,1.661,0,0,0-1.7,1.7,1.7,1.7,0,1,0,3.392,0Z" transform="translate(-74.057 -34.3)" fill="#fff"/>
          <path id="Path_166" data-name="Path 166" d="M106.2,38.728l.292-.7a2.834,2.834,0,0,0,1.579.526c.76,0,1.053-.292,1.053-.643,0-1.053-2.866-.351-2.866-2.106,0-.76.643-1.4,1.93-1.4a3.322,3.322,0,0,1,1.579.409l-.292.7a2.717,2.717,0,0,0-1.345-.351c-.76,0-1.053.292-1.053.643,0,.994,2.866.351,2.866,2.106,0,.76-.643,1.4-1.93,1.4A2.8,2.8,0,0,1,106.2,38.728Z" transform="translate(-78.124 -34.342)" fill="#fff"/>
          <path id="Path_167" data-name="Path 167" d="M62,52.185H59.6L59.136,53.3H58.2l2.164-4.8h.877l2.164,4.8H62.47Zm-.292-.7-.936-2.106L59.9,51.483Z" transform="translate(-58.2 -40.194)" fill="#fff"/>
          <path id="Path_168" data-name="Path 168" d="M72.37,48.5v4.8h-.76l-2.632-3.217V53.3H68.1V48.5h.76l2.632,3.217V48.5Z" transform="translate(-62.309 -40.194)" fill="#fff"/>
          <path id="Path_169" data-name="Path 169" d="M80.2,52.185H77.8L77.336,53.3H76.4l2.164-4.8h.877l2.164,4.8H80.67Zm-.292-.7-.877-2.106-.877,2.106Z" transform="translate(-65.755 -40.194)" fill="#fff"/>
          <path id="Path_170" data-name="Path 170" d="M86.4,48.5h.877v4.036h2.515v.76H86.4Z" transform="translate(-69.906 -40.194)" fill="#fff"/>
          <path id="Path_171" data-name="Path 171" d="M94.049,51.6v1.7h-.877V51.6L91.3,48.5h.936l1.4,2.34,1.4-2.34h.877Z" transform="translate(-71.94 -40.194)" fill="#fff"/>
          <path id="Path_172" data-name="Path 172" d="M103.694,52.536v.76H99.6v-.585l2.808-3.451H99.658V48.5h3.919v.585l-2.808,3.451Z" transform="translate(-75.385 -40.194)" fill="#fff"/>
          <path id="Path_173" data-name="Path 173" d="M111.568,52.536v.76H108V48.5h3.509v.76h-2.632v1.228h2.34v.76h-2.34v1.345h2.691Z" transform="translate(-78.872 -40.194)" fill="#fff"/>
          <path id="Path_174" data-name="Path 174" d="M119,53.3l-.994-1.4h-1.228v1.4H115.9V48.5h1.989c1.287,0,2.047.643,2.047,1.7a1.534,1.534,0,0,1-.994,1.521l1.111,1.579Zm-1.228-4.036h-1.053v1.872h1.053c.76,0,1.17-.351,1.17-.936S118.591,49.26,117.772,49.26Z" transform="translate(-82.151 -40.194)" fill="#fff"/>
        </g>
      </g>
    </g>
  </g>
</svg>
