<svg xmlns="http://www.w3.org/2000/svg" width="51" height="51" viewBox="0 0 51 51">
  <g id="footer-24cs-1" transform="translate(-5 -5)">
    <path id="Path_103" data-name="Path 103" d="M54.725,56H6.275A1.278,1.278,0,0,1,5,54.725V6.275A1.2,1.2,0,0,1,6.275,5h48.45A1.278,1.278,0,0,1,56,6.275v48.45A1.371,1.371,0,0,1,54.725,56Z" fill="#d5d5d5"/>
    <g id="Group_38" data-name="Group 38" transform="translate(13.925 21.703)">
      <path id="Path_104" data-name="Path 104" d="M28.993,40.08h-2.04V35.618a.7.7,0,0,0-.51-.765,1.239,1.239,0,0,0-1.148.128c-.127,0-.127.255-.127.382V40.08H23V30.9h2.168v3.06a.125.125,0,0,1,.127.127c0-.127,0-.127.127-.255a2.131,2.131,0,0,1,3.57.765,3.53,3.53,0,0,1,.128,1.147v4.08C28.993,39.825,28.993,39.953,28.993,40.08Z" transform="translate(-8.975 -14.58)" fill="#ec6b00"/>
      <path id="Path_105" data-name="Path 105" d="M18.248,40.046H12V38.771a.445.445,0,0,1,.128-.255c.893-.893,1.785-1.785,2.55-2.678a18.651,18.651,0,0,0,1.148-1.658,2.17,2.17,0,0,0,.128-.893.947.947,0,0,0-.765-.765,1.16,1.16,0,0,0-1.02.51c-.128.127-.128.255-.128.51v.51H12a2.961,2.961,0,0,1,1.148-2.423,3.841,3.841,0,0,1,4.335.128,2.738,2.738,0,0,1,.255,3.7c-.765.893-1.53,1.785-2.423,2.678a1.76,1.76,0,0,0-.383.51H18.5C18.248,38.9,18.248,39.409,18.248,40.046Z" transform="translate(-12 -14.546)" fill="#ec6b00"/>
      <path id="Path_106" data-name="Path 106" d="M22.738,36.538h.892v1.53h-.892V39.98H20.7V38.068h-3.57c0-.382-.128-.765-.128-1.275a.445.445,0,0,1,.128-.255c1.147-1.785,2.3-3.7,3.443-5.483.128-.127.255-.255.382-.255h1.785Zm-3.953,0H20.57V33.733h-.128C19.933,34.625,19.423,35.518,18.785,36.538Z" transform="translate(-10.625 -14.607)" fill="#ec6b00"/>
      <path id="Path_107" data-name="Path 107" d="M24.3,29.193V18.1h1.913v9.053h5.1v1.913C29.018,29.193,26.723,29.193,24.3,29.193Z" transform="translate(-8.617 -18.1)" fill="#ec6b00"/>
    </g>
    <path id="Path_108" data-name="Path 108" d="M20.963,13.154,19.433,14.3a17.9,17.9,0,0,0-5.61,7.4c0,.128-.128.255-.255.51-.127-.128-.127-.255-.255-.383a1.028,1.028,0,0,0-1.785,1.02c.51.893.893,1.785,1.4,2.678a1.026,1.026,0,0,0,1.4.382,16.334,16.334,0,0,0,2.55-1.4,1.026,1.026,0,0,0,.382-1.4.9.9,0,0,0-1.275-.51.445.445,0,0,0-.255.128h-.128c0-.128.128-.128.128-.255a15.049,15.049,0,0,1,7.778-8.288,15.7,15.7,0,0,1,18.87,4.208c3.953,4.973,4.59,10.583,2.168,16.448a14.6,14.6,0,0,1-5.1,6.375,1.059,1.059,0,0,0-.255,1.53,1.041,1.041,0,0,0,1.53.127,18,18,0,0,0,6.758-19.125c-.255-.893-.637-1.658-.892-2.55,0-.127,0-.255-.127-.255-.382-.638-.638-1.275-1.02-1.913-.127-.128-.255-.382-.383-.51a17.909,17.909,0,0,0-7.905-6.5,17.25,17.25,0,0,0-12.368-.51A15.465,15.465,0,0,1,23,12.134C22.238,12.516,21.6,12.771,20.963,13.154Z" transform="translate(1.76 1.536)" fill="#ec6b00"/>
  </g>
</svg>
