<svg xmlns="http://www.w3.org/2000/svg" xmlns:xlink="http://www.w3.org/1999/xlink" viewBox="0 0 303.44 418.15"><defs><style>.cls-1{fill:url(#linear-gradient);}</style><linearGradient id="linear-gradient" x1="151.72" x2="151.72" y2="418.15" gradientUnits="userSpaceOnUse"><stop offset="0" stop-color="#ffab2d"/><stop offset="1" stop-color="#f70"/></linearGradient></defs><g id="Layer_2" data-name="Layer 2"><g id="Glyph"><path class="cls-1" d="M197.48,393.79c43.43-77.1,25.25-174.13-43.24-230.7l-.11-.1.29.74,0,.55a134.2,134.2,0,0,1-4.92,107.14L137.9,294.83,134.36,269a109.76,109.76,0,0,0-19.22-48.61h-1.61l-.84-2.4a189.5,189.5,0,0,1-16.61,78.13,109.47,109.47,0,0,0,5.72,100.57l12.5,21-22.49-9.5c-37.1-15.68-66.76-45.87-81.37-82.84a151.69,151.69,0,0,1,8.12-128,216.61,216.61,0,0,0,23.31-63.81l4.18-21.69,10.68,19.34a111.44,111.44,0,0,1,11.17,29.7l.24.25.25,1.68.23-.07A273.62,273.62,0,0,0,122.53,13.86L123.25,0l11.64,7.58a207.81,207.81,0,0,1,90.62,136.34l.23,1.14.12.18.52-.74a69.43,69.43,0,0,0,14.22-42.28V78.39l14.37,19a239.53,239.53,0,0,1,48.26,154.2c-2.83,65.09-38.33,122.22-95,153.17l-24.52,13.4Z"/></g></g></svg>