<?xml version="1.0" encoding="UTF-8"?>
<svg width="11px" height="10px" viewBox="0 0 11 10" version="1.1" xmlns="http://www.w3.org/2000/svg" xmlns:xlink="http://www.w3.org/1999/xlink">
    <g stroke="none" stroke-width="1" fill="none" fill-rule="evenodd">
        <g id="tag/recommond" transform="translate(-5.000000, -2.000000)" fill="#FFFFFF" fill-rule="nonzero">
            <path d="M7.75000155,4.85721453 L7.75000155,12 L5.68750039,12 C5.30778911,12 5,11.6801789 5,11.2857215 L5,11.2857215 L5,5.57149308 C5,5.17699204 5.30778911,4.85721453 5.68750039,4.85721453 L5.68750039,4.85721453 L7.75000155,4.85721453 Z M11.8840627,2.00013392 L11.958251,2.01075881 L12.4631341,2.14189607 C12.777011,2.22315882 13.0307949,2.44672015 13.1593658,2.75503134 C13.2879363,3.06299611 13.2718234,3.40792836 13.1147185,3.70124328 L13.1147185,3.70124328 L12.3986869,5.04086555 C12.3127491,5.20199679 12.3731742,5.34255074 12.4030509,5.39521485 C12.4329276,5.44822789 12.521886,5.57134308 12.6994681,5.57134308 L12.6994681,5.57134308 L14.7304068,5.5713343 C15.4303282,5.5713343 16,6.16319264 16,6.8903782 C16,6.99012577 15.9889221,7.08987406 15.9674377,7.18718022 L15.9674377,7.18718022 L15.2336136,10.6860308 C15.0298522,11.4592531 14.3480581,11.9994962 13.5759607,11.9994962 L13.5759607,11.9994962 L10.1562513,11.999845 C9.20858704,11.999845 8.43750035,11.1987245 8.43750035,10.2141486 L8.43750035,10.2141486 L8.43750035,6.47674328 C8.43750035,6.03520486 8.5939335,5.61110126 8.87826579,5.28221241 L8.87826579,5.28221241 L11.6195361,2.11817988 C11.7051381,2.01947808 11.8353871,1.97867206 11.958251,2.01075881 Z"></path>
        </g>
    </g>
</svg>