<svg xmlns="http://www.w3.org/2000/svg" width="30.533" height="27.832" viewBox="0 0 30.533 27.832">
  <g id="m-side-logout" transform="translate(-0.7 -5)">
    <path id="Path_5" data-name="Path 5" d="M30.533,48.6h0Z" transform="translate(0.7 -15.768)" fill="#fff"/>
    <g id="Group_5" data-name="Group 5" transform="translate(4.407 5)">
      <path id="Path_3" data-name="Path 3" d="M15.144,31.45a20.569,20.569,0,0,1-3.707-1.885C10.307,29,9.176,28.308,8.108,27.68A2.7,2.7,0,0,1,6.6,25.167V7.89A2.839,2.839,0,0,1,9.616,5H22.809a2.79,2.79,0,0,1,3.016,2.827v3.518a.762.762,0,0,1-.5.817,1.025,1.025,0,0,1-.942-.126c-.251-.188-.251-.44-.251-.754V7.827a1.162,1.162,0,0,0-.942-1.194h-12.5a.867.867,0,0,1,.251.188c1.948,1.068,3.9,2.2,5.906,3.267a2.9,2.9,0,0,1,1.633,2.764V25.544h4.335a1.148,1.148,0,0,0,1.319-1.257V21.272a.854.854,0,0,1,1.068-.88.9.9,0,0,1,.628.628v.188c0,1.131.063,2.262,0,3.33a2.753,2.753,0,0,1-2.89,2.639H18.474v.628a10.179,10.179,0,0,1-.063,1.382,2.671,2.671,0,0,1-2.262,2.136c-.063,0-.126.063-.188.063A3.582,3.582,0,0,1,15.144,31.45ZM8.359,7.262c0,.251-.063.5-.063.691V25.167a1.105,1.105,0,0,0,.628,1.068c.5.251,1.005.565,1.508.817,1.508.817,3.016,1.7,4.461,2.513a1.238,1.238,0,0,0,.942.188,1.134,1.134,0,0,0,.942-1.257V12.728a1.232,1.232,0,0,0-.754-1.194c-1.508-.817-2.953-1.633-4.461-2.45C10.558,8.455,9.49,7.89,8.359,7.262Z" transform="translate(-6.6 -5)" fill="#303030"/>
      <path id="Path_4" data-name="Path 4" d="M35.633,19.694c-.44-.44-.88-.817-1.257-1.257a.847.847,0,1,1,1.194-1.194c.565.5,1.068,1.068,1.633,1.571.377.314.691.691,1.068,1.005a.8.8,0,0,1,0,1.257c-.88.88-1.822,1.759-2.7,2.639a.894.894,0,0,1-1.257.063.774.774,0,0,1,.063-1.194c.377-.377.817-.754,1.257-1.194H27.717a.885.885,0,0,1-.817-.88.8.8,0,0,1,.88-.754h7.476A.68.68,0,0,1,35.633,19.694Z" transform="translate(-14.146 -9.453)" fill="#303030"/>
    </g>
  </g>
</svg>
