<?xml version="1.0" encoding="utf-8"?>
<!-- Generator: Adobe Illustrator 26.0.3, SVG Export Plug-In . SVG Version: 6.00 Build 0)  -->
<svg version="1.1" id="Layer_1" xmlns="http://www.w3.org/2000/svg" xmlns:xlink="http://www.w3.org/1999/xlink" x="0px" y="0px"
	 viewBox="0 0 100 100" style="enable-background:new 0 0 100 100;" xml:space="preserve">
<style type="text/css">
	.st0{fill:#EC6B00;}
</style>
<g>
	<path class="st0" d="M55,7.3c2,1.2,2.4,1.8,1.9,4.3c-0.1,0.7,0.4,0.6,0.7,0.6c3.2,0.6,6.4,1.6,9.4,3c12.8,6.3,20.8,16.5,23.1,30.7
		c3.1,20.1-8.3,38.6-27.6,45c-5.8,1.9-11.6,2.4-17.7,1.6C27.4,90.3,14.3,77.3,10.6,62c-5.7-22.5,8.8-45.3,31.5-49.8
		c0.9-0.2,1.2-0.3,1-1.4c-0.4-1.6,0.3-2.6,2-3.6C48.4,7.3,51.7,7.3,55,7.3z M50.1,83.6c-8.5,0-16.9-3.4-22.8-9.7
		c-8.1-8.8-10.6-18.9-7.5-30.4c1.6-5.8,4.7-10.6,9.2-14.6s9.7-6.6,15.8-7.6c0.9-0.1,1.3-0.3,0.9-1.4c-0.5-1.5-1.1-3.1-1.5-4.7
		c-0.2-0.7-0.5-0.9-1.3-0.7C22.3,18.2,8.5,38.3,12.3,59C16.2,80.3,37,94.3,58,89.7c22.1-4.8,35.4-27.5,28.5-48.9
		C81.9,26.3,71.8,17.7,57,14.5c-0.7-0.2-1.1,0.1-1.2,0.7c-0.4,1.5-1,3-1.4,4.5c-0.4,1.5-0.6,1.3,0.9,1.5c6.9,1.2,12.9,4.4,17.6,9.6
		c7.8,8.7,10.3,18.7,7.2,29.9C76.5,74.3,64.2,83.5,50.1,83.6z M62.8,52.2c0-7.1-5.8-12.8-12.7-12.8c-7.1,0-12.8,5.7-12.8,12.8
		C37.3,59.2,43,65,50,65C57,65,62.8,59.2,62.8,52.2z M20.9,52.1c0,1.8,0.2,3.5,0.5,5.2c0.1,0.3,0.1,0.7,0.6,0.6
		c4.2-0.7,8.3-1.6,12.6-2.4c0.5-0.1,0.6-0.3,0.5-0.9c-0.3-1.7-0.4-3.5,0-5.2c0.1-0.7-0.1-0.9-0.6-1c-4.1-0.7-8.1-1.4-12.2-2.2
		c-0.6-0.1-0.9,0.1-1,0.6C21.1,48.7,20.9,50.4,20.9,52.1z M79.2,52.1c0-1.7-0.2-3.4-0.5-5.1c-0.1-0.4-0.2-0.7-0.7-0.6
		c-4.2,0.7-8.2,1.5-12.4,2.2c-0.5,0.1-0.7,0.3-0.6,0.9c0.3,1.7,0.3,3.5,0,5.2c-0.1,0.6,0,0.9,0.6,1c4.1,0.7,8.2,1.5,12.3,2.2
		c0.6,0.1,0.7-0.1,0.9-0.6C78.9,55.6,79.2,53.9,79.2,52.1z M40.7,79.6c0.4,0,0.4-0.4,0.5-0.6c1.4-3.8,2.8-7.7,4.2-11.6
		c0.2-0.5,0.2-0.9-0.4-1.1c-1.6-0.5-3.2-1.4-4.5-2.6c-0.5-0.5-0.9-0.4-1.3,0.1c-2.6,3.1-5.2,6.3-7.9,9.3c-0.4,0.5-0.4,0.7,0.1,1.2
		c2.7,2.2,5.6,4,8.9,5.1C40.4,79.5,40.5,79.6,40.7,79.6z M59.5,79.6c0.1,0,0.1,0,0.2-0.1c3.4-1.2,6.6-3,9.4-5.4
		c0.3-0.3,0.2-0.4,0-0.7c-2.8-3.2-5.6-6.5-8.2-9.7c-0.2-0.3-0.4-0.5-0.9-0.1c-1.5,1.3-3.1,2.2-5,2.9c-0.4,0.1-0.4,0.3-0.3,0.7
		c1.5,4.1,2.9,8.1,4.4,12.1C59.1,79.4,59.1,79.7,59.5,79.6z M45.5,37.4c0-0.1,0-0.2-0.1-0.3C43.9,33.1,42.5,29,41,25
		c-0.1-0.4-0.3-0.4-0.7-0.3c-3.4,1.2-6.5,3-9.3,5.4c-0.2,0.2-0.2,0.3,0,0.6c2.8,3.3,5.6,6.5,8.3,9.8c0.3,0.3,0.4,0.3,0.7,0
		c1.5-1.3,3.1-2.2,4.9-2.9C45.3,37.8,45.5,37.8,45.5,37.4z M60.4,41.1c0.2-0.2,0.3-0.3,0.5-0.5c2.7-3.1,5.3-6.3,8-9.4
		c0.3-0.4,0.4-0.6,0-1.1c-2.7-2.2-5.7-4.1-9.1-5.2c-0.5-0.2-0.7-0.1-0.9,0.4c-1.4,4-2.8,7.9-4.3,11.9c-0.2,0.5-0.1,0.7,0.4,1
		c1.8,0.5,3.3,1.5,4.7,2.8C60,40.7,60.1,40.9,60.4,41.1z M35.6,57.8c-0.1,0-0.2,0-0.2,0c-4.2,0.7-8.3,1.5-12.6,2.2
		c-0.6,0.1-0.6,0.4-0.4,1c1.3,3.8,3.2,7.3,5.9,10.3c0.5,0.6,0.9,0.9,1.5,0c2.4-2.9,4.8-5.8,7.3-8.5c1.1-1.3,1.1-1.3,0.2-2.8
		c-0.3-0.5-0.6-1.2-1-1.7C36.1,58.1,36,57.7,35.6,57.8z M64.4,57.8c-0.3-0.1-0.4,0.2-0.6,0.4c-0.4,1-1,1.8-1.6,2.7
		c-0.3,0.4-0.2,0.6,0.1,1c2.8,3.2,5.4,6.4,8.2,9.6c0.4,0.5,0.6,0.4,1.1,0c2.8-3.1,4.8-6.6,6.1-10.6c0.2-0.7,0-0.9-0.6-1
		c-1.8-0.3-3.5-0.6-5.3-1C69.3,58.7,67,58.3,64.4,57.8z M50,81.2c2,0,4.1-0.2,6.1-0.6c0.7-0.1,0.7-0.4,0.5-1.1
		c-1.3-3.5-2.5-6.9-3.7-10.5c-0.6-1.9-0.6-1.9-2.8-1.9c-0.5,0-1.1,0-1.7-0.1c-0.4,0-0.6,0.1-0.9,0.5c-1.4,4.1-2.9,8-4.3,12
		c-0.2,0.5-0.1,0.7,0.4,0.9C45.8,81,48,81.2,50,81.2z M35.6,46.4c0.3,0.1,0.5-0.1,0.6-0.4c0.4-1,1-1.8,1.6-2.7c0.3-0.3,0.2-0.6,0-1
		c-2.8-3.2-5.4-6.4-8.2-9.6c-0.4-0.4-0.6-0.4-1.1,0c-2.8,3.1-4.8,6.6-6.2,10.6c-0.2,0.5-0.1,0.7,0.5,0.9c1.4,0.2,2.8,0.5,4.2,0.7
		C29.9,45.3,32.7,45.9,35.6,46.4z M64.5,46.4c0.1,0,0.2,0,0.2,0c4.2-0.7,8.3-1.5,12.6-2.2c0.7-0.1,0.5-0.5,0.3-1
		c-1.3-3.8-3.3-7.3-6-10.4c-0.5-0.6-0.9-0.6-1.3,0c-2.5,2.9-4.9,5.9-7.4,8.7c-0.9,1-1.1,1.6-0.2,2.6c0.4,0.5,0.6,1.2,1,1.8
		C64,46.2,64.1,46.5,64.5,46.4z M50,37.1c0.5,0,1.1,0,1.6,0c0.5,0.1,0.7-0.1,0.9-0.6c1.4-4,2.9-7.9,4.3-12c0.2-0.4,0.2-0.7-0.4-0.9
		c-0.7-0.1-1.4-0.2-2.1-0.4c-0.5-0.1-0.9,0-1,0.6c-0.2,1-0.5,1.9-0.9,2.9c-0.4,1-1.2,1.5-2.2,1.5c-1.1,0-1.8-0.5-2.1-1.5
		c-0.2-0.4-0.2-0.7-0.4-1.2c-0.7-2.5-0.7-2.5-3.4-2c-0.7,0.1-0.9,0.4-0.6,1.1c1.3,3.4,2.5,6.8,3.7,10.3C47.9,37,47.9,37,50,37.1z
		 M49.9,25.8c0.1,0,0.2,0,0.2,0c0.4-1.5,0.9-3,1.4-4.4c1.1-3.5,2.1-6.9,3.2-10.4c0.3-1,0.1-1.3-1-1.3c-2.6,0-5,0-7.6,0
		c-0.9,0-1.2,0.4-0.9,1.2c0.2,0.9,0.5,1.6,0.7,2.5C47.3,17.5,48.6,21.6,49.9,25.8z"/>
	<path class="st0" d="M14,52.2c0.1-0.7,0.4-1.2,1.2-1.2c0.6,0,1.1,0.4,1.1,1.1c0,0.7-0.4,1.2-1.2,1.2C14.4,53.2,14.1,52.8,14,52.2z"
		/>
	<path class="st0" d="M86.1,52.2c-0.1,0.7-0.4,1.2-1.2,1.2c-0.6,0-1.1-0.4-1.1-1.2c0-0.7,0.4-1.2,1.2-1.2C85.7,51,86,51.4,86.1,52.2
		z"/>
	<path class="st0" d="M50,85.9c0.7,0,1.2,0.4,1.2,1.2c0,0.6-0.4,1.1-1.1,1.1c-0.7,0-1.2-0.4-1.2-1.2C48.9,86.4,49.3,85.9,50,85.9z"
		/>
	<path class="st0" d="M31.4,21.9c0.1-0.6,0.4-1.1,1.1-1.2c0.7,0,1.2,0.4,1.2,1.2c0,0.6-0.4,1.1-1.1,1.2
		C31.9,23.1,31.5,22.7,31.4,21.9z"/>
	<path class="st0" d="M68.6,21.9c-0.1,0.7-0.4,1.2-1.2,1.2c-0.6,0-1.1-0.4-1.1-1.2s0.4-1.2,1.2-1.2C68.2,20.8,68.6,21.2,68.6,21.9z"
		/>
	<path class="st0" d="M20.9,34.7c0,0.6-0.3,1.1-1.1,1.2c-0.7,0-1.2-0.4-1.2-1.1c0-0.7,0.4-1.2,1.2-1.2C20.5,33.6,20.8,34,20.9,34.7z
		"/>
	<path class="st0" d="M80.3,35.8c-0.6,0-1.2-0.3-1.2-1.1s0.3-1.2,1.1-1.3c0.7,0,1.2,0.4,1.2,1.2C81.4,35.3,81,35.7,80.3,35.8z"/>
	<path class="st0" d="M20.9,69.6c-0.1,0.6-0.4,1.1-1.1,1.1c-0.7,0-1.2-0.4-1.2-1.2s0.4-1.2,1.2-1.1C20.6,68.5,20.9,69,20.9,69.6z"/>
	<path class="st0" d="M80.3,68.4c0.6,0.1,1.1,0.4,1.1,1.2c0,0.7-0.4,1.2-1.2,1.2s-1.2-0.5-1.1-1.2C79.2,68.8,79.6,68.5,80.3,68.4z"
		/>
	<path class="st0" d="M32.6,83.5c-0.6,0-1.1-0.4-1.1-1.1c0-0.7,0.4-1.2,1.1-1.2c0.7,0,1.2,0.4,1.2,1.2
		C33.8,83.1,33.3,83.5,32.6,83.5z"/>
	<path class="st0" d="M67.5,83.5c-0.7,0-1.2-0.4-1.2-1.1c0-0.7,0.4-1.2,1.2-1.2s1.2,0.4,1.1,1.2C68.6,83.2,68.2,83.5,67.5,83.5z"/>
</g>
</svg>
