<svg xmlns="http://www.w3.org/2000/svg" width="35" height="35" viewBox="0 0 35 35">
  <g id="profile-withdrawal" transform="translate(-0.098 -0.098)">
    <path id="Path_24" data-name="Path 24" d="M29.818,35.1H5.377A5.257,5.257,0,0,1,.1,29.818V5.377A5.257,5.257,0,0,1,5.377.1H29.818A5.257,5.257,0,0,1,35.1,5.377V29.818A5.257,5.257,0,0,1,29.818,35.1Z" fill="#ec6b00"/>
    <g id="Group_11" data-name="Group 11">
      <path id="Path_25" data-name="Path 25" d="M21.7,31.285v-8.7H9.385V8.7H8.31a2.4,2.4,0,0,1,0-4.791H24.05a2.417,2.417,0,0,1,2.444,1.858A2.321,2.321,0,0,1,24.246,8.7h-.88v1.466a.21.21,0,0,0,.2.2c1.858,1.76,3.617,3.422,5.475,5.182a.845.845,0,0,1,.293.587V31.187C26.69,31.285,24.148,31.285,21.7,31.285ZM19.455,5.573a3.829,3.829,0,0,1-.587,4.986,3.694,3.694,0,0,1-4.693.2A3.37,3.37,0,0,1,12.807,8.7,3.944,3.944,0,0,1,13.3,5.573H11.047V17.7a6.231,6.231,0,0,0,.684.2,4.474,4.474,0,0,1,2.737,3.031c0,.1.1.2.293.2H18.38a.341.341,0,0,0,.2-.1,4.351,4.351,0,0,1,1.173-2.053A3.019,3.019,0,0,1,18.673,17.4a2.094,2.094,0,0,1,.293-1.858A2.377,2.377,0,0,1,22,14.469V5.67A23.853,23.853,0,0,0,19.455,5.573ZM24.637,19.26l-1.075-1.075-2.053-2.053a.834.834,0,0,0-1.271,0,.921.921,0,0,0,.1,1.271l2.835,2.835a.741.741,0,0,1,.2.391V22a2.611,2.611,0,0,0,1.955,2.444.881.881,0,0,1,.489.1V26.1a4.017,4.017,0,0,1-2.542-.88v4.5h4.4V16.816a.741.741,0,0,0-.2-.391c-1.271-1.271-2.64-2.444-3.911-3.715l-.2-.2v2.933a.741.741,0,0,0,.2.391l2.053,2.053.2.2A13.272,13.272,0,0,0,24.637,19.26ZM18.478,7.626a2.151,2.151,0,1,0-2.151,2.151A2.053,2.053,0,0,0,18.478,7.626ZM9.385,7.137V5.573H8.31a.782.782,0,1,0,0,1.564Zm13.98,0h.88a.83.83,0,0,0,.684-.782.756.756,0,0,0-.684-.782h-.88C23.366,6.061,23.366,6.55,23.366,7.137ZM12.709,21.02a2.372,2.372,0,0,0-1.662-1.662V21.02Zm7.919-1.075a6.576,6.576,0,0,1-.684,1.075h1.662C21.313,20.726,21.02,20.335,20.628,19.944Z" fill="#fff"/>
      <path id="Path_26" data-name="Path 26" d="M17.109,13.2v1.564H15.545V13.2Z" fill="#fff"/>
    </g>
    <path id="Path_27" data-name="Path 27" d="M17.207,28.645l1.858-1.858a.628.628,0,0,1,.88-.1.655.655,0,0,1,.391.684c0,.1-.1.391-.293.391l-3.128,3.128a.892.892,0,0,1-1.173,0l-3.128-3.128a.83.83,0,0,1,1.173-1.173l1.564,1.564.1.1V24.637c0-.587.293-.88.684-.88a.945.945,0,0,1,.88.88v3.128A2,2,0,0,1,17.207,28.645Z" fill="#fff"/>
  </g>
</svg>
