<svg xmlns="http://www.w3.org/2000/svg" width="35" height="35" viewBox="0 0 35 35">
  <g id="profile-deposit" transform="translate(-0.098 -0.098)">
    <path id="Path_20" data-name="Path 20" d="M29.818,35.1H5.377A5.257,5.257,0,0,1,.1,29.818V5.377A5.257,5.257,0,0,1,5.377.1H29.818A5.257,5.257,0,0,1,35.1,5.377V29.818A5.257,5.257,0,0,1,29.818,35.1Z" fill="#ec6b00"/>
    <path id="Path_21" data-name="Path 21" d="M25.126,4.5c.1,0,.293,0,.293.1a2.385,2.385,0,0,1,1.76,2.151V17.109h3.128V21.9H4.791V17.109H7.919V6.844A2.278,2.278,0,0,1,9.777,4.4h0C15.056,4.5,20.14,4.5,25.126,4.5ZM12.807,6.061A4.278,4.278,0,0,1,9.777,9.19V20.433H25.615V9.19a3.63,3.63,0,0,1-3.031-3.128ZM6.55,18.771v1.564H8.115V18.771Zm22.193,0H27.179v1.564h1.564ZM9.777,7.332a2.42,2.42,0,0,0,1.466-1.466h-.684c-.391,0-.587.1-.684.587A4.3,4.3,0,0,0,9.777,7.332ZM24.148,6.061a2.42,2.42,0,0,0,1.466,1.466V6.844a.515.515,0,0,0-.587-.587A1.453,1.453,0,0,0,24.148,6.061Z" fill="#fff"/>
    <path id="Path_22" data-name="Path 22" d="M16.913,26.006l-1.858,1.858a.628.628,0,0,1-.88.1.655.655,0,0,1-.391-.684c0-.1.1-.391.293-.391l3.128-3.128a.892.892,0,0,1,1.173,0l3.128,3.128a.83.83,0,1,1-1.173,1.173l-1.564-1.564-.2-.2v3.617c0,.587-.293.88-.684.88a.945.945,0,0,1-.88-.88V26.788A2.752,2.752,0,0,1,16.913,26.006Z" fill="#fff"/>
    <path id="Path_23" data-name="Path 23" d="M14.567,14.763h2.444l.1-.1a2.07,2.07,0,0,1,.293-.684,2.569,2.569,0,0,1,2.933-1.369,2.727,2.727,0,0,1,1.858,1.858.312.312,0,0,0,.293.293h.391c.391.1.489.391.489.782a.668.668,0,0,1-.684.684c-.391,0-.489.1-.684.489a2.774,2.774,0,0,1-2.64,1.76.83.83,0,0,1-.782-.684.83.83,0,0,1,.684-.782,1.664,1.664,0,0,0,.684-.1,1.169,1.169,0,0,0,.684-.684H18.087c-.1,0-.1,0-.293.1-.1.293-.293.489-.391.782-.293,1.173-1.173,1.564-2.444,1.173a2.731,2.731,0,0,1-2.053-2.151h-.391a.771.771,0,0,1-.782-.782c0-.391.293-.684.782-.782h.391A2.217,2.217,0,0,1,13.98,13a2.669,2.669,0,0,1,1.76-.489.756.756,0,0,1,.782.684c0,.391-.293.684-.782.782a5.018,5.018,0,0,1-.978.391c0,.2-.2.293-.2.391Zm6.159,0a1.313,1.313,0,0,0-1.369-.684c-.293,0-.489.391-.684.684Zm-6.159,1.662a1.3,1.3,0,0,0,1.369.684c.293,0,.489-.293.684-.684Z" fill="#fff"/>
  </g>
</svg>
