<svg xmlns="http://www.w3.org/2000/svg" width="36" height="36" viewBox="0 0 36 36">
  <g id="profile-inbox" transform="translate(-0.101 -0.101)">
    <path id="Path_36" data-name="Path 36" d="M30.67,36.1H5.531A5.408,5.408,0,0,1,.1,30.67V5.531A5.408,5.408,0,0,1,5.531.1H30.67a5.408,5.408,0,0,1,5.43,5.43V30.67A5.408,5.408,0,0,1,30.67,36.1Z" fill="#fff"/>
    <g id="Group_14" data-name="Group 14">
      <path id="Path_37" data-name="Path 37" d="M18.1,31.475H8.045a3.114,3.114,0,0,1-3.318-3.318V15.385a3.057,3.057,0,0,1,1.911-3.017c.3-.2.6-.3.905-.5.2-.1.3-.2.3-.4V5.933A1.067,1.067,0,0,1,9.05,4.726h18.2a1.067,1.067,0,0,1,1.207,1.207v5.631c0,.2.1.3.3.4a9.344,9.344,0,0,1,1.006.5,3.074,3.074,0,0,1,1.81,2.916V28.358a3.061,3.061,0,0,1-3.218,3.218C24.838,31.475,21.52,31.475,18.1,31.475Zm10.257-17.3v1.81a1.262,1.262,0,0,1-.6,1.106c-3.017,1.709-6.034,3.318-9.05,5.028a1.282,1.282,0,0,1-1.207,0c-.7-.4-1.508-.8-2.212-1.207C13.073,19.709,10.76,18.4,8.547,17.2a1.219,1.219,0,0,1-.7-1.207V14.279c-.8.3-1.006.6-1.006,1.408v12.67a1.067,1.067,0,0,0,1.207,1.207H28.156c.905,0,1.207-.4,1.207-1.207V15.687C29.363,14.782,29.162,14.38,28.358,14.179ZM9.855,6.838v8.346a.553.553,0,0,0,.3.5c2.615,1.408,5.128,2.816,7.642,4.223a.633.633,0,0,0,.6,0c2.514-1.408,5.128-2.816,7.642-4.223.2-.1.3-.2.3-.4V6.939C20.816,6.838,15.385,6.838,9.855,6.838Z" fill="#ec6b00"/>
      <path id="Path_38" data-name="Path 38" d="M18.1,14.48H12.972a.969.969,0,0,1-1.006-1.307.929.929,0,0,1,1.006-.6H23.128c.8,0,1.307.6,1.006,1.307a.929.929,0,0,1-1.006.6Z" fill="#ec6b00"/>
      <path id="Path_39" data-name="Path 39" d="M18.1,10.86H12.972a.969.969,0,0,1-1.006-1.307.929.929,0,0,1,1.006-.6H23.128c.8,0,1.307.6,1.006,1.307a.929.929,0,0,1-1.006.6Z" fill="#ec6b00"/>
    </g>
  </g>
</svg>
