<?xml version="1.0" encoding="utf-8"?>
<!-- Generator: Adobe Illustrator 25.3.1, SVG Export Plug-In . SVG Version: 6.00 Build 0)  -->
<svg version="1.1" id="圖層_1" xmlns="http://www.w3.org/2000/svg" xmlns:xlink="http://www.w3.org/1999/xlink" x="0px" y="0px"
	 viewBox="0 0 78.5 78.5" style="enable-background:new 0 0 78.5 78.5;" xml:space="preserve">
<style type="text/css">
	.st0{fill:url(#SVGID_1_);}
	.st1{fill:url(#SVGID_2_);}
</style>
<linearGradient id="SVGID_1_" gradientUnits="userSpaceOnUse" x1="39.24" y1="78.48" x2="39.24" y2="-9.094947e-13">
	<stop  offset="0" style="stop-color:#D3D3D3"/>
	<stop  offset="1" style="stop-color:#FFFFFF"/>
</linearGradient>
<circle class="st0" cx="39.2" cy="39.2" r="39.2"/>
<linearGradient id="SVGID_2_" gradientUnits="userSpaceOnUse" x1="16.6069" y1="27.8211" x2="61.3792" y2="72.5934">
	<stop  offset="0" style="stop-color:#FFCC3A"/>
	<stop  offset="1" style="stop-color:#FF7200"/>
</linearGradient>
<path class="st1" d="M67,67c-7.1,7.1-16.9,11.5-27.8,11.5c-10.8,0-20.7-4.4-27.8-11.5c4.9-10.4,15.5-17.6,27.8-17.6S62.1,56.6,67,67
	z M38.7,47.4c9.5,0,17.3-7.7,17.3-17.3c0-9.5-7.7-17.3-17.3-17.3c-9.5,0-17.3,7.7-17.3,17.3C21.5,39.7,29.2,47.4,38.7,47.4z"/>
</svg>
