<svg xmlns="http://www.w3.org/2000/svg" width="27.085" height="31" viewBox="0 0 27.085 31">
  <g id="footer-payment-bank" transform="translate(-16.881 -13.5)">
    <path id="Path_84" data-name="Path 84" d="M43.438,44.5H17.361a.754.754,0,0,1-.469-.82V41.453c0-.586.234-.82.82-.82h1.113V38.816a.681.681,0,0,1,.762-.762h.527V32.9h-.527c-.527,0-.762-.234-.762-.762V30.26H17.537a.586.586,0,0,1-.645-.645V27.8a.765.765,0,0,1,.41-.7l4.219-2.11c.82-.41,1.641-.82,2.52-1.289-.059-.117-.059-.176-.117-.293A7.023,7.023,0,0,1,27.5,14.086,11.8,11.8,0,0,1,29.55,13.5h1.7c.059,0,.176.059.234.059a7.092,7.092,0,0,1,5.86,8.263c-.117.645-.352,1.231-.527,1.875.059,0,.117.059.234.117,2.11,1.055,4.219,2.11,6.388,3.164a.83.83,0,0,1,.527.82V29.44c0,.527-.234.762-.762.762H42.032v1.582c0,.82-.176,1-.938,1H40.8v5.157h.41c.586,0,.82.234.82.82v1.758H43.2c.527,0,.762.234.762.762v2.285C43.966,44.09,43.849,44.324,43.438,44.5ZM30.429,26.451a5.777,5.777,0,0,0,5.8-5.8,5.853,5.853,0,0,0-5.8-5.8,5.765,5.765,0,0,0-5.743,5.8A5.692,5.692,0,0,0,30.429,26.451Zm12.248,2.578V28.56a.47.47,0,0,0-.352-.586l-3.868-1.934c-.762-.41-1.582-.762-2.168-1.113-.527.586-1.055,1.113-1.582,1.641l-.117-.117h.938a.647.647,0,1,1,0,1.289H25.507a.743.743,0,0,1-.352-.059.571.571,0,0,1-.469-.586.628.628,0,0,1,.527-.645,2.364,2.364,0,0,1,.645,0h.469c-.059.059-.117.059-.117.117-.469-.527-1-1.055-1.524-1.641-2.051,1-4.161,2.051-6.27,3.164-.059.059-.176.117-.176.176v.762ZM27.206,30.319H25.272v1.817a.622.622,0,0,1-.7.7h-.527V38h.352c.7,0,.879.234.879.879v1.641h1.934V38.64a.622.622,0,0,1,.7-.7H28.5V32.78h-.41c-.645,0-.879-.176-.879-.879Zm6.446,10.314h1.934V38.991c0-.7.176-.938.879-.938h.352V32.9h-.586a.632.632,0,0,1-.7-.645V30.319H33.593v1.7c0,.645-.176.879-.82.879h-.41v5.157h.41c.645,0,.82.234.82.82C33.652,39.46,33.652,40.046,33.652,40.632ZM18.181,43.211H42.618V41.98H18.181Zm11.6-5.157h1.231v-5.1H29.784Zm-7.091,0v-5.1H21.463v5.1Zm15.471,0h1.289v-5.1H38.164v5.1Zm-5.8-7.735H28.554v1.289h3.809Zm-12.189,0v1.289h3.809V30.319Zm20.569,0H36.934v1.231h3.809ZM20.115,40.632h3.809V39.4H20.115Zm8.38-1.289v1.231H32.3V39.343Zm8.38,1.289h3.809V39.4H36.875Z" transform="translate(0 0)" fill="#ec6b00"/>
    <path id="Path_85" data-name="Path 85" d="M37.49,19.189V18.6a.665.665,0,0,1,.645-.7.632.632,0,0,1,.645.7v.586h1.289a.687.687,0,0,1,.645.527.6.6,0,0,1-.352.7,1.142,1.142,0,0,1-.469.059H37.549a.614.614,0,0,0-.7.527.622.622,0,0,0,.645.762h1.348a1.855,1.855,0,0,1,1.817,1.758,1.885,1.885,0,0,1-1.465,1.992c-.117.059-.293.059-.469.117v.586a.647.647,0,1,1-1.289,0v-.586H36.2a.669.669,0,0,1-.645-.938c.117-.293.41-.352.7-.352h2.4a.658.658,0,0,0,.7-.527.677.677,0,0,0-.645-.762H37.549A2,2,0,0,1,35.5,21.182a1.933,1.933,0,0,1,1.817-1.992A.11.11,0,0,0,37.49,19.189Z" transform="translate(-7.706 -1.822)" fill="#585858"/>
  </g>
</svg>
