<svg xmlns="http://www.w3.org/2000/svg" width="34.507" height="45.175" viewBox="0 0 34.507 45.175"><defs><style>.a{fill:#eb1d25;}.b{fill:#f5931f;}</style></defs><g transform="translate(0 0)"><g transform="translate(0 30.962)"><path class="a" d="M177.811,262.164a14.9,14.9,0,0,1,3.142-2.323,2.427,2.427,0,0,1,3.025.585,2.766,2.766,0,0,0,.292.292c.468.482.453.672-.058,1.081a2.238,2.238,0,0,0-.687,1.257,9.278,9.278,0,0,0-.161,5.129c.161.555.468.7,1.008.511.292-.1.541-.058.585.292.058.526.263,1.111-.263,1.534a1.6,1.6,0,0,1-1.768-.058,3.533,3.533,0,0,1-1.33-2.236,24.061,24.061,0,0,1-.468-5.114c-.015-.161.088-.38-.073-.453s-.321.117-.453.219a6.075,6.075,0,0,0-2.367,3.916.249.249,0,0,1-.015.1c-.146.862-.234.906-1.037.584-.395-.161-.789-.336-1.184-.482a.5.5,0,0,1-.38-.57c.015-2.265,0-4.53.015-6.795,0-.365-.058-.526-.468-.5a12.239,12.239,0,0,1-1.637,0c-.38-.029-.453.088-.453.468q.022,5.48.015,10.974v.395c-.029.424-.248.555-.614.351-.468-.248-.906-.541-1.374-.789-.263-.132-.219-.336-.219-.541V262a1.432,1.432,0,0,0-.292-.906,5.268,5.268,0,0,0-1.973-1.827,2.166,2.166,0,0,0-1.68-.1,1.189,1.189,0,0,0-.833,1.154.646.646,0,0,0,.833.628,3.058,3.058,0,0,1,1.213-.175,2.741,2.741,0,0,1,1.87,2.163,3.2,3.2,0,0,1-4.033,3.522,2.184,2.184,0,0,1-1.359-3.434c.146.029.175.19.248.278a1.9,1.9,0,0,0,2.849.234.776.776,0,0,0,.132-1.038.66.66,0,0,0-.95-.234,2.635,2.635,0,0,1-1.885.161,2.251,2.251,0,0,1-1.33-3.551,3.811,3.811,0,0,1,3.39-1.578,4.1,4.1,0,0,1,2.645,1.125c.351.307.716.614,1.154.994,0-.511.015-.935,0-1.374-.015-.38.132-.526.526-.526q6.97.022,13.94,0c.38,0,.555.161.541.526,0,.161-.015.336,0,.5.029.424-.175.585-.6.585-2.338-.015-4.661,0-7-.015-.38,0-.468.1-.453.468C177.841,260.41,177.811,261.243,177.811,262.164Z" transform="translate(-151.388 -257.298)"/><path class="a" d="M90.817,265.2c0-1.49-.015-2.849.015-4.208,0-.336-.088-.409-.409-.409-2.543.015-5.1.015-7.642.015-.687,0-.7-.015-.7-.687a3.554,3.554,0,0,0,0-.395c-.029-.38.117-.511.511-.511q5.436.022,10.872,0c.424,0,.614.132.57.57a2.821,2.821,0,0,0,0,.5c.029.409-.161.6-.555.541s-.468.088-.453.453c.015,3.726.015,7.438,0,11.164,0,.248.117.555-.2.7-.278.132-.453-.117-.672-.19a2.007,2.007,0,0,1-1.359-2.411A5.237,5.237,0,0,0,89.224,266a2.758,2.758,0,0,0-2.484-.833,1.491,1.491,0,0,0-1.052,1.242,1.1,1.1,0,0,0,.643,1.125,1.359,1.359,0,0,0,1.52-.219c.336-.336.117-.76.219-1.125a1.925,1.925,0,0,1,1.564,1.768,1.955,1.955,0,0,1-1.447,1.958c-2.119.468-3.945-.365-4.325-3.054a3.808,3.808,0,0,1,.511-2.513,2.9,2.9,0,0,1,4.033-1.242,6.22,6.22,0,0,1,2.075,1.724A2.2,2.2,0,0,1,90.817,265.2Z" transform="translate(-82.075 -258.751)"/></g><g transform="translate(2.805 0)"><path class="b" d="M119.456,79.1c-.219.614-.468,1.227-.658,1.841a14.028,14.028,0,0,0-.555,5.67,12.506,12.506,0,0,0,1.841,5.655c1.885,2.981,4.574,4.384,7.993,3.551a6.547,6.547,0,0,0,5.129-5.275,6.711,6.711,0,0,0-1.7-6.167c-.029-.044-.073-.073-.1-.117-.015-.015,0-.029,0-.044,1.49-.336,5.187.921,6.824,2.513a13.031,13.031,0,0,1-.468,4.5,11.523,11.523,0,0,1-10.024,7.993,11.5,11.5,0,0,1-12.318-10.258,11.2,11.2,0,0,1,2.309-8.139A6.248,6.248,0,0,1,119.456,79.1Z" transform="translate(-113.299 -74.177)"/><path class="a" d="M107.427,70.22a6.353,6.353,0,0,0-1.739,1.739,11.267,11.267,0,0,0-2.309,8.139A11.5,11.5,0,0,0,115.7,90.356a11.523,11.523,0,0,0,10.024-7.993,13.031,13.031,0,0,0,.468-4.5c.015,0,.044,0,.044.015.511.395.511.395.877-.146a1.9,1.9,0,0,0,.088-.175,13.1,13.1,0,1,1-18.88-8.855A9.032,9.032,0,0,1,107.427,70.22Z" transform="translate(-101.271 -65.297)"/><path class="b" d="M183.5,76.888c-.029-.351-.044-.687-.073-1.037-.029-.248.058-.351.336-.351a9.772,9.772,0,0,1,5.874,2.133c.234.175.19.321.058.526-1.052,1.593-2.1,3.171-3.142,4.778-.161.248-.292.219-.5.044a9.934,9.934,0,0,0-8.008-2.455,10.077,10.077,0,0,0-6.342,3.288c-.117.132-.248.453-.424.321-.234-.161.058-.38.146-.541a10.11,10.11,0,0,1,5.962-5.187,9.727,9.727,0,0,1,4.924-.365,3.162,3.162,0,0,1,.964.2c.219.1.248-.044.248-.219v-1.14Z" transform="translate(-160.975 -71.103)"/><path class="b" d="M140.2,62.345a10.42,10.42,0,0,1-1.52-3.376,11.366,11.366,0,0,1-.2-5.056,11.7,11.7,0,0,1,2.484-5.348,12.441,12.441,0,0,1,3.77-3.039c.248-.132.438-.219.614.132.672,1.286,1.359,2.572,2.075,3.858.161.292.146.38-.175.526a11.485,11.485,0,0,0-6.736,7.73,10.283,10.283,0,0,0-.307,4.121Z" transform="translate(-132.87 -45.41)"/><path class="a" d="M174.737,50.909v2.674c0,.248-.029.336-.321.292a12.685,12.685,0,0,0-5.728.482A12.132,12.132,0,0,0,162.96,58.3a15.5,15.5,0,0,0-.891,1.286c-.058.1-.1.292-.278.219s-.015-.219.015-.307a10.181,10.181,0,0,1,6.3-7.233c.307-.117.307-.234.175-.482-.336-.6-.643-1.227-.979-1.827-.146-.234-.132-.351.117-.5a11.52,11.52,0,0,1,3.419-1.417,12.923,12.923,0,0,1,3.171-.263c.395,0,.526.146.526.555,0,.862.073,1.724.1,2.572Z" transform="translate(-152.873 -47.433)"/></g></g></svg>