<svg xmlns="http://www.w3.org/2000/svg" width="36" height="36" viewBox="0 0 36 36">
  <g id="profile-reset-password" transform="translate(-0.101 -0.101)">
    <path id="Path_32" data-name="Path 32" d="M30.67,36.1H5.531A5.408,5.408,0,0,1,.1,30.67V5.531A5.408,5.408,0,0,1,5.531.1H30.67a5.408,5.408,0,0,1,5.43,5.43V30.67A5.408,5.408,0,0,1,30.67,36.1Z" fill="#fff"/>
    <g id="Group_13" data-name="Group 13">
      <path id="Path_33" data-name="Path 33" d="M5.128,14.983a2.629,2.629,0,0,1,.3-.8,2.556,2.556,0,0,1,2.313-1.408h.8v-.3a24.5,24.5,0,0,1,.1-2.715,5.773,5.773,0,0,1,4.525-4.927A5.632,5.632,0,0,1,19.81,9.352a4.9,4.9,0,0,1,.1,1.207V12.67h.8a2.5,2.5,0,0,1,2.514,2.112V18.7a.876.876,0,0,1-.6.8.755.755,0,0,1-.905-.4,1.275,1.275,0,0,1-.1-.6V15.385c0-.7-.3-1.006-1.006-1.006H7.844a.9.9,0,0,0-1.006,1.006v9.453a.9.9,0,0,0,1.006,1.006H17.8a1.209,1.209,0,0,1,.8.2.782.782,0,0,1,.2.8.907.907,0,0,1-.6.6H7.944a2.476,2.476,0,0,1-2.715-2.112v-.1C5.128,21.922,5.128,18.4,5.128,14.983ZM18.2,12.771V10.358a4,4,0,0,0-3.62-3.821,3.934,3.934,0,0,0-4.223,3.117c-.2,1.006-.1,2.112-.2,3.117Z" fill="#ec6b00"/>
      <path id="Path_34" data-name="Path 34" d="M24.939,31.374c-.5-.1-.905-.2-1.408-.3a4.208,4.208,0,0,1-1.81-1.106l-.2-.2v.3a.966.966,0,0,1-.905.7c-.4,0-.7-.4-.8-.8V27.553a.793.793,0,0,1,.8-.8h2.313a.856.856,0,1,1,.1,1.709h-.2a.1.1,0,0,0,.1.1,3.965,3.965,0,0,0,6.335-1.609c0-.1.1-.1.1-.2a.786.786,0,0,1,1.106-.5.856.856,0,0,1,.5,1.106,5.645,5.645,0,0,1-4.626,3.922c-.1,0-.2,0-.2.1Z" fill="#ec6b00"/>
      <path id="Path_35" data-name="Path 35" d="M29.363,21.62a.6.6,0,0,1,.1-.4.783.783,0,0,1,.905-.6.865.865,0,0,1,.8.8v2.413a.821.821,0,0,1-.905.8H28.056a.887.887,0,0,1-.905-.8c0-.5.4-.8.905-.905h.2a3.224,3.224,0,0,0-2.011-1.006,3.925,3.925,0,0,0-4.525,2.615c-.2.5-.4.7-.8.7a.843.843,0,0,1-.8-.6.641.641,0,0,1,0-.6,5.39,5.39,0,0,1,4.525-3.922,5.4,5.4,0,0,1,4.726,1.408c-.1,0-.1.1,0,.1Z" fill="#ec6b00"/>
    </g>
  </g>
</svg>
