<?xml version="1.0" encoding="utf-8"?>
<!-- Generator: Adobe Illustrator 26.0.3, SVG Export Plug-In . SVG Version: 6.00 Build 0)  -->
<svg version="1.1" id="Layer_1" xmlns="http://www.w3.org/2000/svg" xmlns:xlink="http://www.w3.org/1999/xlink" x="0px" y="0px"
	 viewBox="0 0 36 36" style="enable-background:new 0 0 36 36;" xml:space="preserve">
<style type="text/css">
	.st0{fill:#FFFFFF;}
	.st1{fill:#EC6B00;}
</style>
<path class="st0" d="M30.5,35.9h-25c-3,0-5.4-2.4-5.4-5.4v-25c0-3,2.4-5.4,5.4-5.4h25c3,0,5.4,2.4,5.4,5.4v25
	C35.9,33.5,33.5,35.9,30.5,35.9z"/>
<g>
	<path class="st1" d="M24.8,5.2c0.7,0,1.4,0,2.1,0c0,0.7,0,1.4,0,2.1c0.5,0,0.9,0,1.3,0c1,0,1.8,0.5,2.4,1.2c0.3,0.4,0.5,1,0.6,1.5
		c0,6.3,0,12.6,0,18.9c0,0,0,0.1,0,0.1c-0.3,1.6-1.5,2.6-3.1,2.6c-6.7,0-13.4,0-20.1,0c-1.8,0-3.2-1.4-3.2-3.2c0-6,0-12,0-18
		c0-0.3,0-0.5,0.1-0.8C5.2,8.2,6.4,7.2,8,7.2c0.4,0,0.8,0,1.1,0c0-0.7,0-1.4,0-2.1c0.7,0,1.4,0,2.1,0c0,0.7,0,1.4,0,2
		c4.6,0,9.1,0,13.6,0C24.8,6.5,24.8,5.9,24.8,5.2z M6.9,14.9c0,0.1,0,0.2,0,0.2c0,4.4,0,8.9,0,13.3c0,0.7,0.4,1.1,1.2,1.1
		c6.6,0,13.3,0,19.9,0c0.8,0,1.2-0.4,1.2-1.2c0-4.4,0-8.8,0-13.2c0-0.1,0-0.2,0-0.3C21.7,14.9,14.3,14.9,6.9,14.9z M24.8,9.3
		c-4.6,0-9.1,0-13.6,0c0,0.7,0,1.4,0,2c-0.7,0-1.4,0-2.1,0c0-0.7,0-1.4,0-2c-0.4,0-0.8,0-1.2,0c-0.6,0-1.1,0.4-1.1,1.1
		c0,0.6,0,1.3,0,1.9c0,0.2,0,0.4,0,0.5c7.4,0,14.9,0,22.3,0c0-0.9,0-1.7,0-2.5c0-0.5-0.4-0.9-0.9-0.9c-0.5,0-0.9,0-1.4,0
		c0,0.7,0,1.4,0,2c-0.7,0-1.4,0-2.1,0C24.8,10.7,24.8,10,24.8,9.3z"/>
	<path class="st1" d="M11.4,22.5c0.5-0.5,0.9-1,1.4-1.5c1.2,1.2,2.5,2.4,3.7,3.6c2.2-2.5,4.4-5,6.7-7.5c0.5,0.5,1,0.9,1.5,1.4
		c-2.7,3-5.4,6-8.1,9.1C14.9,25.8,13.1,24.1,11.4,22.5z"/>
</g>
</svg>
