<svg xmlns="http://www.w3.org/2000/svg" width="55.23" height="65.1" viewBox="0 0 55.23 65.1">
  <g id="referral-people" transform="translate(0)">
    <path id="Path_130" data-name="Path 130" d="M58.8,17.356c-1.362-6.521-5.518-10.677-12.039-12.4A19.643,19.643,0,0,0,44.756,4.6h-3.3c-.072.143-.287.143-.43.143a15.084,15.084,0,0,0-6.02,2.078C29.42,10.476,26.7,15.564,27.27,22.3a15.226,15.226,0,0,0,6.091,10.821,15.478,15.478,0,0,0,9.746,3.368,12.833,12.833,0,0,0,3.3-.287,15.954,15.954,0,0,0,8.671-5.016A15.408,15.408,0,0,0,58.8,17.356Z" transform="translate(-15.922 -4.6)" fill="#ffc49e"/>
    <path id="Path_131" data-name="Path 131" d="M66.31,64.047a29.9,29.9,0,0,0-2.866-9.531,12.137,12.137,0,0,0-7.309-6.235c-2.58-.788-5.016-.932-7.238.932a12.854,12.854,0,0,1-3.153,1.935A16.111,16.111,0,0,1,38.649,52.8a16.635,16.635,0,0,1-3.3-.5A20.379,20.379,0,0,1,28.9,49a5.769,5.769,0,0,0-4.3-1.218,12.314,12.314,0,0,0-7.453,3.511A17.217,17.217,0,0,0,13.066,58.6,38.509,38.509,0,0,0,11.49,71.357a10.125,10.125,0,0,0,2.007,6.02,11.067,11.067,0,0,0,8.958,4.515c1.863.072,3.8,0,5.661,0h27.3A15.792,15.792,0,0,0,58,81.6a10.593,10.593,0,0,0,8.671-10.391A40.042,40.042,0,0,0,66.31,64.047Z" transform="translate(-11.463 -16.823)" fill="#5b52c7"/>
  </g>
</svg>
