<svg xmlns="http://www.w3.org/2000/svg" width="24.098" height="24.045" viewBox="0 0 24.098 24.045">
  <g id="referral-info" transform="translate(-1.039 -1)">
    <path id="Path_132" data-name="Path 132" d="M12.371,1h1.677A11,11,0,0,1,19.08,2.584a11.851,11.851,0,0,1,5.87,8.386c.093.466.093.839.186,1.3v1.491c0,.28-.093.559-.093.839a11.267,11.267,0,0,1-3.727,7.175A11.7,11.7,0,0,1,10.6,24.761,11.5,11.5,0,0,1,3.425,20.2a11.93,11.93,0,0,1-2.33-8.48A12.133,12.133,0,0,1,3.984,5.193a11.6,11.6,0,0,1,7.082-4.007A6.292,6.292,0,0,0,12.371,1Zm-9.6,12.114A10.343,10.343,0,1,0,13.116,2.77,10.38,10.38,0,0,0,2.773,13.114Z" transform="translate(0)" fill="#303030"/>
    <g id="Group_207" data-name="Group 207" transform="translate(9.744 5.939)">
      <path id="Path_133" data-name="Path 133" d="M14.965,19.1h1.677a.932.932,0,0,1,.932,1.211.836.836,0,0,1-.932.652h-5.4a.835.835,0,0,1-.839-.839.858.858,0,0,1,.652-1.025h1.957V12.764H11.8a.991.991,0,0,1-.932-.839A.89.89,0,0,1,11.7,10.9h2.423a.949.949,0,0,1,.839,1.025v6.989C14.965,18.82,14.965,18.914,14.965,19.1Z" transform="translate(-10.381 -6.614)" fill="#303030"/>
      <path id="Path_134" data-name="Path 134" d="M13.9,6.3a1.372,1.372,0,0,1,1.4,1.4,1.4,1.4,0,1,1-2.8,0A1.372,1.372,0,0,1,13.9,6.3Z" transform="translate(-10.525 -6.3)" fill="#303030"/>
    </g>
  </g>
</svg>
