<svg xmlns="http://www.w3.org/2000/svg" width="36" height="36" viewBox="0 0 36 36">
  <g id="profile-referral" transform="translate(-0.101 -0.101)">
    <path id="Path_40" data-name="Path 40" d="M30.67,36.1H5.531A5.408,5.408,0,0,1,.1,30.67V5.531A5.408,5.408,0,0,1,5.531.1H30.67a5.408,5.408,0,0,1,5.43,5.43V30.67A5.408,5.408,0,0,1,30.67,36.1Z" fill="#fff"/>
    <path id="Path_41" data-name="Path 41" d="M4.827,29.263c.1-.3.1-.5.2-.8a3.967,3.967,0,0,1,1.911-2.313l.1-.1-.6-1.508a3.275,3.275,0,0,1,1.911-3.821,3.178,3.178,0,0,1,4.123,1.106c.2.3.3.3.6.2a25.968,25.968,0,0,1,2.615-.8c.1-.1.2-.1.3-.3A2.333,2.333,0,0,1,17.4,19.006c.1,0,.1-.1.1-.2V15.486H14.179a.8.8,0,0,1-.905-.905,12.17,12.17,0,0,1,.1-1.911,4.161,4.161,0,0,1,2.011-2.514c.1-.1.1-.1.2-.1a3.2,3.2,0,0,1-.6-3.117,2.7,2.7,0,0,1,1.307-1.81,3.343,3.343,0,0,1,5.33,2.413,3.086,3.086,0,0,1-.8,2.413,3.86,3.86,0,0,1,1.508,1.307,4.556,4.556,0,0,1,.8,2.212V14.48a.8.8,0,0,1-.905.905H18.905V18.5c0,.1.1.2.1.3a2.333,2.333,0,0,1,1.408,1.911.351.351,0,0,0,.1.2c1.006.3,2.011.6,3.017,1.006a3.367,3.367,0,1,1,5.531,3.821c.1.1.1.1.2.1a3.813,3.813,0,0,1,2.011,3.419v.8c.1.5-.1.8-.6,1.106H21.922a1.155,1.155,0,0,1-.6-1.106v-.8a3.885,3.885,0,0,1,1.81-3.318,2.2,2.2,0,0,1,.5-.3,3.987,3.987,0,0,1-.8-2.212.1.1,0,0,0-.1-.1c-1.006-.3-1.911-.6-2.816-.905a.369.369,0,0,0-.3.1,2.281,2.281,0,0,1-3.52,0,.369.369,0,0,0-.3-.1c-1.006.3-1.81.6-2.715.905-.1,0-.1.1-.1.3a3.311,3.311,0,0,1-.6,1.911c-.1.1-.1.2-.2.3a.369.369,0,0,0,.3.1,3.967,3.967,0,0,1,1.911,2.313,12.321,12.321,0,0,1,.2,1.911,1.084,1.084,0,0,1-.6,1.106H5.229c-.3-.1-.4-.3-.6-.6A3.423,3.423,0,0,0,4.827,29.263ZM14.883,13.978h6.838a2.341,2.341,0,0,0-2.212-2.615H17.3A2.369,2.369,0,0,0,14.883,13.978ZM6.436,29.765h6.838a2.365,2.365,0,0,0-1.911-2.615,13.168,13.168,0,0,0-2.816,0A2.483,2.483,0,0,0,6.436,29.765Zm23.631,0a2.379,2.379,0,0,0-2.413-2.615H25.642a2.37,2.37,0,0,0-2.413,2.514C25.542,29.765,27.855,29.765,30.067,29.765ZM16.492,8.045a1.81,1.81,0,1,0,1.81-1.81A1.742,1.742,0,0,0,16.492,8.045ZM11.665,23.832a1.8,1.8,0,0,0-1.81-1.81,1.891,1.891,0,0,0-1.911,1.81,1.8,1.8,0,0,0,1.81,1.81A1.891,1.891,0,0,0,11.665,23.832Zm13.173,0a1.81,1.81,0,1,0,1.81-1.81A1.8,1.8,0,0,0,24.838,23.832Zm-5.832-2.615a.8.8,0,1,0-1.609,0,.865.865,0,0,0,.8.8A.793.793,0,0,0,19.006,21.218Z" fill="#ec6b00"/>
  </g>
</svg>
