<svg xmlns="http://www.w3.org/2000/svg" width="62.184" height="39.153" viewBox="0 0 62.184 39.153"><defs><style>.a,.b{fill:#8b3392;}.a{fill-rule:evenodd;}</style></defs><g transform="translate(0 0)"><path class="a" d="M199.215,109.477l-9.2,9.2.642,5.151,1.7-3.538,5.242,6.69,7.332-22.583L180.5,114.555l6.617,3.464Z" transform="translate(-152.962 -104.4)"/><g transform="translate(22.748 21.208)"><path class="b" d="M169.879,220.1H160.2c-7.387,1.136-8.139,11.86-.073,13.308h9.752v-9.678a3.057,3.057,0,0,1,1.54,5.646c.477.568,2.42,2.658,2.42,2.658A6.659,6.659,0,0,0,169.879,220.1Zm-3.556,9.678h-5.407c-3.354.2-4.436-5.316-.33-6.049H166.3v6.049Z" transform="translate(-154.365 -220.1)"/></g><path class="a" d="M296.07,197.038h-3.556l-1.54,3.556h4.509a.688.688,0,1,1,0,1.375h-7.827v-6.122h12.025v-3.629H297.9c-.532-7.5-9.495-7.717-11.86-3.629.458.385,2.658,2.346,2.658,2.346a3.066,3.066,0,0,1,5.646,1.283H284.1v13.308h11.53a4.117,4.117,0,0,0,4.106-3.629A4.3,4.3,0,0,0,296.07,197.038Z" transform="translate(-237.572 -170.991)"/><path class="a" d="M131.433,220.1h-4.674c-1.485,1.815-4.069,9.147,1.045,14.682,0,0,2.218-1.888,2.658-2.255A8.93,8.93,0,0,1,131.433,220.1Z" transform="translate(-107.451 -198.892)"/><path class="a" d="M69.966,287.833a2.933,2.933,0,1,1-2.933-2.933A2.941,2.941,0,0,1,69.966,287.833Z" transform="translate(-57.898 -251.814)"/><g transform="translate(0 21.208)"><path class="a" d="M36.1,220.1c-7.387,1.136-8.139,11.86-.073,13.308h.055a3.654,3.654,0,0,1,6.672,0H45.8V220.1Zm6.122,9.678H36.815c-3.354.2-4.436-5.316-.33-6.049H42.2v6.049Z" transform="translate(-30.265 -220.1)"/></g><g transform="translate(5.982 14.774)"><g transform="translate(0 0.092)"><path class="a" d="M66.218,188.689a1.671,1.671,0,0,0-.165-3.189H62.9v4.637h1.283v-1.448l1.448,1.448h2.016Zm-.147-1.631a.309.309,0,0,1-.312.312H64.22v-.642h1.54a.309.309,0,0,1,.312.312Z" transform="translate(-62.9 -185.5)"/></g><g transform="translate(4.674 0.037)"><path class="a" d="M90.746,185.2a2.346,2.346,0,1,0,2.346,2.346A2.339,2.339,0,0,0,90.746,185.2Zm0,3.373a1.026,1.026,0,1,1,1.026-1.026A1.025,1.025,0,0,1,90.746,188.573Z" transform="translate(-88.4 -185.2)"/></g><path class="a" d="M163.936,186.356h2.108V185h-1.8a2.371,2.371,0,1,0,0,4.729h1.8v-1.356h-2.108a.964.964,0,0,1-.77-.385h2.878V186.76h-2.878A.931.931,0,0,1,163.936,186.356Z" transform="translate(-143.59 -185)"/><g transform="translate(9.623)"><path class="a" d="M117.728,188.354a.978.978,0,0,1-.971-.971v-.055a.978.978,0,0,1,.971-.971h2.016V185h-1.8a2.371,2.371,0,1,0,0,4.729h1.8v-1.356h-2.016Z" transform="translate(-115.4 -185)"/></g><path class="a" d="M191.946,185.5H187.4v1.21h1.668v3.336h1.21V186.71h1.668Z" transform="translate(-164.579 -185.408)"/><path class="b" d="M143.953,187.755l2.236-2.255h-1.815l-1.246,1.265V185.5H141.9v4.546h1.228v-1.3l1.283,1.3h1.815Z" transform="translate(-127.419 -185.408)"/></g><g transform="translate(39.764 35.45)"><path class="b" d="M248.281,303.367a.825.825,0,0,0-.532.385,1.034,1.034,0,0,0-.22.623.874.874,0,0,0,.073.367c.073.147.147.22.275.22a.508.508,0,0,0,.22-.092l.128.33a.591.591,0,0,1-.33.11.646.646,0,0,1-.422-.165.9.9,0,0,1-.22-.367,1.114,1.114,0,0,1-.055-.4v-.128a1.536,1.536,0,0,1,.44-.935c.055-.073.165-.165.312-.312h.458v.33A.2.2,0,0,1,248.281,303.367Z" transform="translate(-247.2 -302.047)"/><path class="b" d="M254.318,303.53v1.925h-.385v-.238a.55.55,0,0,0-.2-.33,1.367,1.367,0,0,0-.312-.257.743.743,0,0,0-.385-.128.323.323,0,0,0-.312.183c0,.018-.018.037-.018.055a.189.189,0,0,0,.073.147.244.244,0,0,0,.147.055,1.464,1.464,0,0,0,.293-.092l.11.348a.9.9,0,0,1-.422.128.6.6,0,0,1-.348-.11.685.685,0,0,1-.238-.275.555.555,0,0,1,.238-.678.806.806,0,0,1,.4-.128H253a.317.317,0,0,0-.11-.22c-.073-.092-.128-.128-.2-.128h-.422v-.257H252.1v-.33h2.475v.33Zm-.385,0h-.9a.809.809,0,0,1,.4.642,1.141,1.141,0,0,1,.495.385V303.53Z" transform="translate(-251.202 -302.21)"/><path class="b" d="M265.36,303.53v1.925h-.385V303.53H264.7v-.33h.917v.33Z" transform="translate(-261.492 -302.21)"/><path class="b" d="M270.723,303.53H269v-.33h2.383v.33h-.257v1.925h-.33A1.5,1.5,0,0,0,270.3,305a1.926,1.926,0,0,0-.513-.238,1.457,1.457,0,0,0-.55-.128l-.11-.385a3.58,3.58,0,0,1,.733-.367A8.856,8.856,0,0,1,270.723,303.53Zm.018.4a2.052,2.052,0,0,0-.238.092c-.128.055-.33.147-.66.293l-.073.037a2.856,2.856,0,0,1,.862.477.4.4,0,0,1,.092.073v-.971Z" transform="translate(-265.004 -302.21)"/><path class="b" d="M281.66,303.53v1.925h-.385V303.53H281v-.33h.917v.33Z" transform="translate(-274.804 -302.21)"/><path class="b" d="M285.3,300.263v-.33h1.136V299.9a.338.338,0,0,0-.257-.348h-.073a.456.456,0,0,0-.147.018c-.073.018-.128.037-.147.037a.852.852,0,0,0-.165.055,1.22,1.22,0,0,1-.22.11l-.128-.275a1.756,1.756,0,0,1,.587-.257.808.808,0,0,1,.293-.037.7.7,0,0,1,.33.11.682.682,0,0,1,.312.623h.22v.33Zm1.338,2.236a2.556,2.556,0,0,0-.495-.385,2.29,2.29,0,0,0-.422-.2,1.456,1.456,0,0,0-.275-.092v-.44h.293a.966.966,0,0,0,.422-.073c.2-.092.312-.183.312-.312a.261.261,0,0,0-.11-.22c-.073-.037-.147-.092-.238-.128-.018-.018-.037-.018-.073-.018a.431.431,0,0,0-.147.037c-.073.037-.092.073-.092.11.018.092.11.147.312.128l-.2.312a.5.5,0,0,1-.495-.458.408.408,0,0,1,.238-.367.871.871,0,0,1,.44-.11.542.542,0,0,1,.183.037c.055.018.11.055.165.073a.636.636,0,0,1,.385.6.558.558,0,0,1-.238.477,1.463,1.463,0,0,1-.532.2c.073.037.165.092.293.165.22.165.385.312.532.44Z" transform="translate(-278.316 -298.943)"/><path class="b" d="M296.256,303.53v1.925h-.385V304.7a.334.334,0,0,0-.092-.2.193.193,0,0,0-.348,0,.421.421,0,0,0-.073.257h-.422a.442.442,0,0,0-.073-.275.223.223,0,0,0-.183-.11.3.3,0,0,0-.165.055.187.187,0,0,0-.092.147l-.018.092v.037c0,.2.128.293.367.293a.988.988,0,0,0,.2-.018l-.128.385a.987.987,0,0,0-.147.018.742.742,0,0,1-.495-.2.59.59,0,0,1-.147-.238.735.735,0,0,1-.055-.275.663.663,0,0,1,.183-.495.677.677,0,0,1,.495-.2.552.552,0,0,1,.477.275.6.6,0,0,1,.458-.275.32.32,0,0,1,.257.128v-.568H293.8v-.33h2.676v.33Z" transform="translate(-285.258 -302.21)"/><path class="b" d="M315.223,303.53H313.5v-.33h2.383v.33h-.257v1.925h-.33A1.5,1.5,0,0,0,314.8,305a1.926,1.926,0,0,0-.513-.238,1.457,1.457,0,0,0-.55-.128l-.11-.385a3.581,3.581,0,0,1,.733-.367A8.852,8.852,0,0,1,315.223,303.53Zm.018.4a2.052,2.052,0,0,0-.238.092c-.128.055-.33.147-.66.293l-.073.037a2.856,2.856,0,0,1,.861.477.4.4,0,0,1,.092.073v-.971Z" transform="translate(-301.347 -302.21)"/><path class="b" d="M326.406,303.53a.735.735,0,0,0-.183.422,3.035,3.035,0,0,0,.183.6,1.171,1.171,0,0,1,.092.44.465.465,0,0,1-.367.458,1.438,1.438,0,0,1-.4.073l.055-.33c.22-.055.348-.128.348-.238a1.452,1.452,0,0,0-.147-.477,1.452,1.452,0,0,1-.147-.477.986.986,0,0,1,.165-.477h-.4v-.33h1.063v.33Z" transform="translate(-311.229 -302.21)"/><path class="b" d="M331.56,303.53v1.925h-.385V303.53H330.9v-.33h.916v.33Z" transform="translate(-315.558 -302.21)"/><path class="b" d="M336.6,304.673a.568.568,0,0,1-.6-.6.539.539,0,0,1,.165-.4.581.581,0,0,1,.422-.165.528.528,0,0,1,.495.33.768.768,0,0,1,.073.275.571.571,0,0,1-.147.4A.487.487,0,0,1,336.6,304.673Zm.422,1.228a5.216,5.216,0,0,0-.99-.733v-.532a7.254,7.254,0,0,1,1.32,1.136v.385Zm-.33-2.016a.261.261,0,0,0-.11-.037q-.22.027-.22.22a.252.252,0,0,0,.238.238h.055c.11-.037.165-.092.165-.2A.461.461,0,0,0,336.7,303.885Z" transform="translate(-319.723 -302.455)"/><path class="b" d="M345.066,298.552a2.253,2.253,0,0,0-1.1-.422.865.865,0,0,0-.733.312.544.544,0,0,0-.092.33h.275v.33h-.275v1.925h-.385V299.12H342.5v-.33h.257a.844.844,0,0,1,.275-.66,1.172,1.172,0,0,1,.7-.312c.037,0,.092-.018.165-.018h.073a1.9,1.9,0,0,1,.7.147c.128.055.33.183.623.348Z" transform="translate(-325.031 -297.8)"/><path class="b" d="M347.776,303.53h0a1.317,1.317,0,0,1,.495.165.609.609,0,0,1,.367.55.484.484,0,0,1-.128.348.5.5,0,0,1-.312.183.693.693,0,0,1-.33.018v-.367H348c.183,0,.293-.073.293-.2,0-.165-.165-.275-.495-.312v1.521h-.348a.889.889,0,0,0-.165-.238c-.018-.018-.073-.092-.147-.183a.829.829,0,0,0-.128-.128.409.409,0,0,1-.128-.128.2.2,0,0,0-.092-.055,1.365,1.365,0,0,0-.4-.092l-.11-.385c.092-.055.275-.183.568-.348a2.332,2.332,0,0,1,.275-.165,2.772,2.772,0,0,1,.293-.165v-.018H346.2v-.33h2.621v.33Zm-.385.44a1.671,1.671,0,0,1-.293.183.384.384,0,0,0-.11.073.8.8,0,0,1-.128.11,1.154,1.154,0,0,0,.2.147c.092.092.183.22.33.348Z" transform="translate(-328.053 -302.21)"/><path class="b" d="M360.9,304.673a.568.568,0,0,1-.6-.6.539.539,0,0,1,.165-.4.581.581,0,0,1,.422-.165.528.528,0,0,1,.495.33.768.768,0,0,1,.073.275.571.571,0,0,1-.147.4A.539.539,0,0,1,360.9,304.673Zm.422,1.228a5.894,5.894,0,0,0-.99-.733v-.532a6.4,6.4,0,0,1,1.3,1.136v.385Zm-.348-2.016a.26.26,0,0,0-.11-.037q-.22.027-.22.22a.252.252,0,0,0,.238.238h.055c.11-.037.165-.092.165-.2A.349.349,0,0,0,360.978,303.885Z" transform="translate(-339.569 -302.455)"/></g><g transform="translate(13.351 36.422)"><path class="b" d="M132.5,315.157l.715.238.293-.238-.715-.257Z" transform="translate(-127.111 -312.737)"/><path class="b" d="M108.727,303.54v-.44h-5.609v.44h.935v.971h.807s.238-.073.293-.183v.385a.305.305,0,0,1-.293.312h-1.191c-.073,0-.147-.037-.147-.312v-.9H103.1v1.155c0,.092.055.44.367.44h1.613a.493.493,0,0,0,.44-.477v-1.1h-.385c-.037.165-.018.293-.183.33h-.477v-.587h1.375v1.833h.477v-1.833h.33v1.833h1.576a.488.488,0,0,0,.477-.495v-1.081h-.385c0,.11-.018.257-.183.257H107.1v-.513h1.631Zm-.623.9c.073.018.165-.092.238-.183v.44c0,.165-.128.312-.238.312H107.1v-.568Z" transform="translate(-103.1 -303.1)"/><rect class="b" width="0.953" height="0.513" transform="translate(6.159 0.953)"/><g transform="translate(7.625)"><path class="b" d="M144.7,303.1v.44h1.576v.257H144.7v1.026c.037.33.2.55.532.55h1.411V303.54h.33v1.833h.422V303.1Zm1.576,1.98h-.953c-.147-.018-.238-.183-.238-.385v-.513h1.191Z" transform="translate(-144.7 -303.1)"/></g><path class="b" d="M170.7,303.54h1.943v.257h-.568a.194.194,0,0,1-.385,0h-.99v1.081c0,.11.018.458.312.495h.77v-.367h-.532a.231.231,0,0,1-.183-.257v-.568h.532v.312h.477v-.257c-.037-.11.495-.11.532,0v1.136h.422V303.54h.293v1.833h.422V303.1H170.7Z" transform="translate(-158.309 -303.1)"/><g transform="translate(10.705 0.128)"><path class="b" d="M162.508,303.8H161.5v.6a.5.5,0,0,0,.495.44h.807v-.733A.348.348,0,0,0,162.508,303.8Zm-.293.642c-.183,0-.33-.073-.33-.147s.147-.147.33-.147.33.073.33.147S162.4,304.442,162.215,304.442Z" transform="translate(-161.5 -303.8)"/></g><path class="b" d="M161.9,310.7v.385l1.228.495v-.385Z" transform="translate(-151.122 -309.307)"/><g transform="translate(20.97 0.128)"><path class="b" d="M218.508,303.8H217.5v.6a.5.5,0,0,0,.495.44h.807v-.733C218.765,303.983,218.673,303.818,218.508,303.8Zm-.312.642c-.183,0-.33-.073-.33-.147s.147-.147.33-.147.33.073.33.147S218.38,304.442,218.2,304.442Z" transform="translate(-217.5 -303.8)"/></g><path class="b" d="M217.8,310.7v.385l1.228.495v-.385Z" transform="translate(-196.775 -309.307)"/><path class="b" d="M228.443,303.8v-.257h.788v-.44H226.5v.44h1.576v.257H226.5v1.026c.037.33.2.55.532.55h1.411v-1.136h.385c.055,0,.073-.037.092.055v.183c-.018.092-.037.165-.092.183h-.147v.385h.275c.092-.018.275-.11.293-.257V303.76h-.807Zm-.367,1.283h-.953c-.147-.018-.238-.183-.238-.385v-.513h1.173v.055h0v.843Z" transform="translate(-203.881 -303.1)"/><g transform="translate(16.717)"><path class="b" d="M194.3,303.1v.44h1.576v.257H194.3v1.026c.037.33.2.55.532.55h1.411V303.54h.495l-.183.367v.257h.33c.183.018.238.128.238.44,0,.22-.055.367-.22.385h-.312v.385h.33c.092,0,.532.037.568-.385.055-.862.092-1.081-.532-1.136l.092-.293h.678v1.833h.422v-2.273H194.3Zm1.558,1.98H194.9c-.147-.018-.238-.183-.238-.385v-.513h1.191Z" transform="translate(-194.3 -303.1)"/></g></g></g></svg>