<svg xmlns="http://www.w3.org/2000/svg" width="36" height="36" viewBox="0 0 36 36">
  <g id="profile-supports" transform="translate(-0.101 -0.101)">
    <path id="Path_42" data-name="Path 42" d="M30.67,36.1H5.531A5.408,5.408,0,0,1,.1,30.67V5.531A5.408,5.408,0,0,1,5.531.1H30.67a5.408,5.408,0,0,1,5.43,5.43V30.67A5.408,5.408,0,0,1,30.67,36.1Z" fill="#fff"/>
    <g id="Group_15" data-name="Group 15">
      <path id="Path_43" data-name="Path 43" d="M30.872,19.911c-.1.5-.1.905-.2,1.408a12.44,12.44,0,0,1-6.939,9.251,11.159,11.159,0,0,1-4.425,1.207A12.611,12.611,0,0,1,5.732,22.123a13.651,13.651,0,0,1-.3-2.916.821.821,0,0,1,.8-.905c.5,0,.8.3.8.905a11.115,11.115,0,0,0,9.754,10.961A11.117,11.117,0,0,0,22.827,9.05a9.065,9.065,0,0,0-3.218-.905.783.783,0,0,1-.7-.905.829.829,0,0,1,1.006-.7A12.826,12.826,0,0,1,30.67,16.693c.1.5.1,1.006.2,1.508v1.709Z" fill="#ec6b00"/>
      <path id="Path_44" data-name="Path 44" d="M9.05,6.335c.1,0,.3.1.4.1a2.878,2.878,0,0,1,2.011,3.62,3.236,3.236,0,0,1-1.207,1.81c-.6.5-1.307,1.006-1.911,1.609-.2.2-.4.3-.5.6h3.318c.4,0,.7.2.7.6a.811.811,0,0,1-.3.905.754.754,0,0,1-.5.1H6.335a.775.775,0,0,1-.7-1.207,6.393,6.393,0,0,1,2.212-2.413c.6-.5,1.207-.905,1.709-1.408a1.544,1.544,0,0,0,.5-1.307,1.01,1.01,0,0,0-.6-1.006,1.6,1.6,0,0,0-1.709-.3.979.979,0,0,0-.7,1.106v.4c-.1.4-.4.7-.8.6a.687.687,0,0,1-.7-.7A2.464,2.464,0,0,1,7.542,6.436c.1,0,.1,0,.2-.1Z" fill="#ec6b00"/>
      <path id="Path_45" data-name="Path 45" d="M16.793,6.335a1.021,1.021,0,0,1,.5,1.006v4.525h.3a.793.793,0,0,1,.8.8.865.865,0,0,1-.8.8h-.3v1.408a.765.765,0,0,1-.6.8.8.8,0,0,1-1.006-.8V13.475H11.966c-.4,0-.7-.1-.8-.5-.2-.3-.1-.6.2-.905l4.525-5.43a1.388,1.388,0,0,1,.4-.3ZM15.587,9.352c-.7.905-1.408,1.709-2.112,2.514h2.112Z" fill="#ec6b00"/>
      <path id="Path_46" data-name="Path 46" d="M11.564,24.637a.673.673,0,0,1-.7-.4.759.759,0,0,1,.1-.8l.2-.2L22.726,11.665a.913.913,0,0,1,.7-.3.756.756,0,0,1,.7.5.631.631,0,0,1-.2.8l-1.207,1.207L12.268,24.335A.913.913,0,0,1,11.564,24.637Z" fill="#ec6b00"/>
      <path id="Path_47" data-name="Path 47" d="M23.832,19.709H20.816a.77.77,0,0,1-.8-.905.853.853,0,0,1,.8-.7h4.525a.785.785,0,0,1,.6,1.307l-3.017,4.827c-.6.905-1.207,1.911-1.81,2.816a.816.816,0,0,1-.8.4.735.735,0,0,1-.7-.6.826.826,0,0,1,.1-.7l3.922-6.034A.522.522,0,0,1,23.832,19.709Z" fill="#ec6b00"/>
    </g>
  </g>
</svg>
