<svg id="Layer_1" data-name="Layer 1" xmlns="http://www.w3.org/2000/svg" viewBox="0 0 100 100"><defs><style>.cls-1{fill:#a8d1db;}.cls-2{fill:#fff;}.cls-3{fill:#d2e2ea;}</style></defs><path class="cls-1" d="M32.49,56.08,39,76a2.12,2.12,0,0,0,3.36,1l19.45-16s-20.67-8.07-20.67-7.63S32.49,56.08,32.49,56.08Z"/><path class="cls-2" d="M83.81,17.79C71.1,22.82,30.11,39.62,14.59,46a2.38,2.38,0,0,0,.18,4.46l17.72,5.64L39,75.94a2.16,2.16,0,0,0,1.66,1.45c.6.11,1.48-16.08,1.48-16.08S60.74,75.12,69.58,81.64a3.68,3.68,0,0,0,5.8-2.25C78,65.82,84.59,31.91,86.84,20.31A2.25,2.25,0,0,0,83.81,17.79Z"/><path class="cls-3" d="M40.64,77.39c.6.11,1.48-16.08,1.48-16.08L72.71,32.57a.24.24,0,0,0-.28-.38L32.49,56.08,39,75.94A2.16,2.16,0,0,0,40.64,77.39Z"/></svg>