<?xml version="1.0" encoding="utf-8"?>
<!-- Generator: Adobe Illustrator 26.3.1, SVG Export Plug-In . SVG Version: 6.00 Build 0)  -->
<svg version="1.1" id="Layer_1" xmlns="http://www.w3.org/2000/svg" xmlns:xlink="http://www.w3.org/1999/xlink" x="0px" y="0px"
	 viewBox="0 0 36 36" style="enable-background:new 0 0 36 36;" xml:space="preserve">
<style type="text/css">
	.st0{fill:#FFFFFF;}
	.st1{fill:#EC6B00;}
</style>
<path class="st0" d="M30.5,35.9h-25c-3,0-5.4-2.4-5.4-5.4v-25c0-3,2.4-5.4,5.4-5.4h25c3,0,5.4,2.4,5.4,5.4v25
	C35.9,33.5,33.5,35.9,30.5,35.9z"/>
<path class="st1" d="M3.1,16.4c0.2-0.8,0.8-1.2,1.5-1.5c8-2.6,15.9-5.2,23.9-7.9c1.1-0.4,2.2,0.2,2.3,1.3c0,0.3,0,0.5,0,0.8
	C29.2,16,27.6,22.8,26,29.6c-0.3,1.4-1.7,1.9-2.8,1c-1.6-1.3-3.3-2.7-4.9-4c-0.2-0.1-0.2-0.1-0.4,0c-1.4,1.1-2.9,2.2-4.3,3.2
	c-0.2,0.1-0.4,0.3-0.6,0.3c-0.4,0.1-0.8-0.2-0.9-0.6c-0.2-0.7-0.3-1.5-0.5-2.2c-0.4-2-0.9-4.1-1.3-6.1c0-0.2-0.1-0.3-0.3-0.3
	c-1.8-0.8-3.6-1.6-5.5-2.4c-0.7-0.3-1.2-0.7-1.3-1.4C3.1,16.7,3.1,16.6,3.1,16.4z M29.3,8.5c-8.2,2.7-16.4,5.4-24.5,8.1
	c0.1,0.1,0.2,0.2,0.3,0.2c1.8,0.8,3.7,1.6,5.5,2.4c0.2,0.1,0.4,0.1,0.6,0c4-2.3,8.1-4.5,12.2-6.8c0.1-0.1,0.2-0.1,0.4-0.2
	c0.3-0.1,0.7,0,0.9,0.3c0.2,0.3,0.2,0.6,0,0.9c-0.1,0.1-0.2,0.2-0.3,0.4c-2.7,2.8-5.4,5.6-8.1,8.5c-0.1,0.1-0.1,0.1-0.2,0.2
	c2.8,2.3,5.6,4.6,8.4,6.9C26,22.5,27.6,15.5,29.3,8.5z M19.4,16.5C19.4,16.5,19.4,16.5,19.4,16.5c-2.6,1.4-5.1,2.8-7.6,4.2
	c0.4,1.7,0.7,3.4,1.1,5.1c0.1-0.1,0.1-0.1,0.1-0.2c0.3-1,0.6-2,0.9-3c0.1-0.3,0.2-0.5,0.4-0.7c1.6-1.7,3.2-3.4,4.8-5.1
	C19.2,16.7,19.3,16.6,19.4,16.5z M15.2,24c-0.3,1-0.6,2.1-0.9,3.1c0.9-0.6,1.7-1.2,2.5-1.8C16.2,24.9,15.7,24.5,15.2,24z"/>
</svg>
