<?xml version="1.0" encoding="utf-8"?>
<!-- Generator: Adobe Illustrator 26.0.3, SVG Export Plug-In . SVG Version: 6.00 Build 0)  -->
<svg version="1.1" id="Layer_1" xmlns="http://www.w3.org/2000/svg" xmlns:xlink="http://www.w3.org/1999/xlink" x="0px" y="0px"
	 viewBox="0 0 20 20" style="enable-background:new 0 0 20 20;" xml:space="preserve">
<style type="text/css">
	.st0{fill:#FFFFFF;}
</style>
<g>
	<path class="st0" d="M9.5,19c-0.2,0-0.5-0.1-0.7-0.1c-2.9-0.4-5.2-2.7-5.8-5.5c-0.4-2.1-0.1-4,1.1-5.7C4.5,7,5,6.4,5.4,5.8
		C5.6,6,5.8,6.1,5.9,6.3c0.2,0.2,0.4,0.4,0.5,0.5C6.7,7.1,7,7.1,7.4,7c0.4-0.1,0.5-0.4,0.5-0.8c0-0.4,0-0.9,0.1-1.3
		c0.2-1.3,1-2.3,2-3.1c0.4-0.3,0.9-0.6,1.4-0.8c0,0.1,0,0.2,0.1,0.3c0.2,1,0.7,1.9,1.3,2.8c0.7,1.2,1.6,2.4,2.6,3.4
		c0.7,0.9,1.3,1.8,1.6,2.9c0.3,1.2,0.2,2.4-0.2,3.5c-0.9,2.6-2.7,4.2-5.3,4.8c-0.3,0.1-0.7,0.1-1,0.2C10.1,19,9.8,19,9.5,19z
		 M5.6,7.4C5.3,7.7,5.1,8,4.9,8.3C3.9,9.8,3.6,11.5,4,13.3c0.8,3.1,3.8,5,7,4.5c2.8-0.5,4.9-3,5.1-5.8c0-1-0.3-1.9-0.8-2.8
		c-0.4-0.7-0.9-1.2-1.5-1.8c-1.2-1.5-2.3-3-3-4.8c0,0,0,0,0-0.1C9.9,3.2,9.2,4,9,5.1C9,5.6,9,6,8.9,6.5C8.8,7.2,8.4,7.8,7.7,8
		C7,8.3,6.3,8.1,5.8,7.6C5.7,7.6,5.6,7.5,5.6,7.4z"/>
	<g>
		<path class="st0" d="M13.6,14.4c0,0.5-0.2,0.9-0.5,1.2c-0.6,0.6-1.4,0.6-2,0c-0.6-0.6-0.6-1.6-0.1-2.3c0.3-0.4,0.8-0.6,1.3-0.5
			c0.6,0.1,1,0.4,1.2,1C13.6,14,13.6,14.2,13.6,14.4z M12.7,14.4c-0.1-0.2-0.1-0.3-0.2-0.5c-0.2-0.2-0.4-0.2-0.6,0
			c-0.2,0.3-0.2,0.7,0,1c0.2,0.2,0.4,0.2,0.6,0C12.5,14.8,12.6,14.6,12.7,14.4z"/>
		<path class="st0" d="M6.3,11.2c0-0.4,0.1-0.8,0.4-1.1C7.3,9.3,8.4,9.3,9,10.2c0.4,0.6,0.4,1.5,0,2.1c-0.3,0.4-0.8,0.7-1.3,0.6
			c-0.6-0.1-1-0.4-1.2-1C6.4,11.6,6.3,11.4,6.3,11.2z M7.3,11.2c0.1,0.2,0.1,0.3,0.2,0.4c0.2,0.2,0.4,0.2,0.6,0
			c0.2-0.2,0.2-0.7,0-0.9c-0.2-0.2-0.4-0.2-0.6,0C7.4,10.9,7.4,11,7.3,11.2z"/>
		<path class="st0" d="M11,9.4c0.4,0,0.7,0.4,0.5,0.7c-0.3,0.7-0.6,1.3-0.8,2c-0.4,1.1-0.9,2.2-1.3,3.2c-0.1,0.2-0.3,0.4-0.6,0.4
			c-0.3,0-0.5-0.4-0.4-0.7c0.3-0.7,0.6-1.5,0.9-2.2c0.4-1,0.8-2,1.2-3C10.7,9.6,10.8,9.4,11,9.4z"/>
	</g>
</g>
</svg>
