<?xml version="1.0" encoding="utf-8"?>
<!-- Generator: Adobe Illustrator 26.0.3, SVG Export Plug-In . SVG Version: 6.00 Build 0)  -->
<svg version="1.1" id="Layer_1" xmlns="http://www.w3.org/2000/svg" xmlns:xlink="http://www.w3.org/1999/xlink" x="0px" y="0px"
	 viewBox="0 0 20 20" style="enable-background:new 0 0 20 20;" xml:space="preserve">
<style type="text/css">
	.st0{fill:#FFFFFF;}
</style>
<path class="st0" d="M7.2,9.6C6,8.6,5.4,7.4,5.5,5.9C5.6,4.6,6.1,3.6,7,2.7c1.8-1.6,4.5-1.5,6.2,0.1c1.8,1.8,1.8,5-0.3,6.7
	c0.2,0.1,0.4,0.2,0.6,0.2c2.6,1.3,4.2,3.4,4.8,6.2c0.1,0.4,0.1,0.8,0.1,1.3c0,0.4-0.3,0.7-0.7,0.7c-0.4,0-0.8-0.3-0.8-0.7
	c0-1.3-0.4-2.6-1.1-3.7c-1.2-1.8-2.9-2.8-5-3c-3.5-0.3-6.6,2-7.3,5.4c-0.1,0.4-0.1,0.9-0.1,1.3c0,0.4-0.3,0.7-0.7,0.7
	c-0.3,0-0.7-0.2-0.8-0.5c0-0.1,0-0.2,0-0.3c0.1-2.7,1.2-4.9,3.3-6.5c0.6-0.5,1.3-0.8,2-1.1C7.1,9.6,7.1,9.6,7.2,9.6z M10,9.1
	c1.7,0,3-1.3,3-3c0-1.7-1.3-3-3-3c-1.7,0-3,1.3-3,3C7,7.7,8.3,9.1,10,9.1z"/>
</svg>
