<?xml version="1.0" encoding="utf-8"?>
<!-- Generator: Adobe Illustrator 26.0.3, SVG Export Plug-In . SVG Version: 6.00 Build 0)  -->
<svg version="1.1" id="Layer_1" xmlns="http://www.w3.org/2000/svg" xmlns:xlink="http://www.w3.org/1999/xlink" x="0px" y="0px"
	 viewBox="0 0 20 20" style="enable-background:new 0 0 20 20;" xml:space="preserve">
<style type="text/css">
	.st0{fill:#FFFFFF;}
</style>
<path class="st0" d="M19.6,10.6c0,0.1-0.1,0.2-0.1,0.2c-0.2,0.3-0.6,0.4-0.9,0.1c-0.3-0.3-0.6-0.6-0.9-0.9c0,0-0.1-0.1-0.2-0.2
	c0,0.1,0,0.2,0,0.2c0,2.6,0,5.2,0,7.7c0,0.1,0,0.2,0,0.3c0,0.3-0.3,0.5-0.6,0.5c-1.6,0-3.1,0-4.7,0c-0.4,0-0.6-0.2-0.6-0.7
	c0-1,0-1.9,0-2.9c0-0.3,0-0.7,0-1c-1,0-2.1,0-3.1,0c0,0.1,0,0.2,0,0.2c0,1.2,0,2.3,0,3.5c0,0.1,0,0.1,0,0.2c0,0.4-0.2,0.6-0.6,0.6
	c-1.5,0-3.1,0-4.6,0c-0.4,0-0.6-0.2-0.6-0.6c0-0.1,0-0.2,0-0.2c0-2.6,0-5.2,0-7.9c0-0.1,0-0.2,0-0.3C2.3,9.9,2,10.2,1.8,10.5
	c-0.1,0.1-0.2,0.2-0.4,0.4c-0.3,0.2-0.6,0.2-0.9,0c-0.2-0.2-0.2-0.6,0-0.9C1,9.5,1.5,9.1,2,8.6c2.5-2.3,5-4.7,7.5-7
	c0.1-0.1,0.2-0.2,0.4-0.2c0.2-0.1,0.4,0,0.6,0.2c0.9,0.8,1.8,1.7,2.6,2.5c2,1.9,4.1,3.8,6.1,5.8c0.1,0.1,0.2,0.3,0.4,0.4
	C19.6,10.4,19.6,10.5,19.6,10.6z M7.1,17.4c0-0.1,0-0.2,0-0.2c0-1.2,0-2.4,0-3.6c0-0.5,0.2-0.7,0.7-0.7c1.4,0,2.7,0,4.1,0
	c0.5,0,0.7,0.2,0.7,0.8c0,1.2,0,2.4,0,3.6c0,0.1,0,0.2,0,0.2c1.2,0,2.3,0,3.4,0c0-0.1,0-0.2,0-0.2c0-2.8,0-5.5,0-8.3
	c0-0.1,0-0.2-0.1-0.3c-2-1.9-4-3.8-6-5.6c0,0,0,0-0.1-0.1l0,0c-2,1.9-4,3.7-6,5.6L3.7,8.8c0,2.8,0,5.6,0,8.4c0,0.1,0,0.1,0,0.2
	C4.9,17.4,6,17.4,7.1,17.4z"/>
</svg>
