<?xml version="1.0" encoding="utf-8"?>
<!-- Generator: Adobe Illustrator 26.0.3, SVG Export Plug-In . SVG Version: 6.00 Build 0)  -->
<svg version="1.1" id="Layer_1" xmlns="http://www.w3.org/2000/svg" xmlns:xlink="http://www.w3.org/1999/xlink" x="0px" y="0px"
	 viewBox="0 0 20 20" style="enable-background:new 0 0 20 20;" xml:space="preserve">
<style type="text/css">
	.st0{fill:#FFFFFF;}
</style>
<g>
	<path class="st0" d="M15.2,1.2c0.1,0,0.2,0,0.2,0.1c0.7,0.2,1.2,0.8,1.2,1.5c0,0.9,0,1.7,0,2.6c0,1.5,0,2.9,0,4.4
		c0,0.1,0,0.1,0,0.2c0.7,0,1.5,0,2.2,0c0,1.1,0,2.2,0,3.3c-5.9,0-11.8,0-17.7,0c0-1.1,0-2.2,0-3.3c0.7,0,1.5,0,2.2,0
		c0-0.1,0-0.2,0-0.2c0-2.3,0-4.6,0-6.9c0-0.8,0.5-1.6,1.3-1.7l0,0C8.2,1.2,11.7,1.2,15.2,1.2z M6.6,2.3c-0.3,1.1-1,1.9-2.1,2.2
		c0,2.6,0,5.2,0,7.8c3.7,0,7.3,0,11,0c0-2.6,0-5.2,0-7.8c-1.1-0.3-1.9-1-2.1-2.2C11.1,2.3,8.9,2.3,6.6,2.3z M2.3,11.1
		c0,0.4,0,0.7,0,1.1c0.4,0,0.7,0,1.1,0c0-0.4,0-0.7,0-1.1C3,11.1,2.7,11.1,2.3,11.1z M17.7,11.1c-0.4,0-0.7,0-1.1,0
		c0,0.4,0,0.7,0,1.1c0.4,0,0.7,0,1.1,0C17.7,11.8,17.7,11.5,17.7,11.1z M4.5,3.2c0.4-0.1,0.9-0.6,1-1c-0.2,0-0.3,0-0.5,0
		c-0.3,0-0.4,0.1-0.5,0.4C4.5,2.9,4.5,3.1,4.5,3.2z M14.5,2.3c0.2,0.5,0.5,0.8,1,1c0-0.1,0-0.1,0-0.2c0-0.1,0-0.2,0-0.3
		c0-0.2-0.1-0.4-0.4-0.4C14.9,2.3,14.7,2.3,14.5,2.3z"/>
	<path class="st0" d="M10.6,17c0.4-0.4,0.9-0.9,1.3-1.3c0.2-0.2,0.4-0.2,0.6-0.1c0.2,0.1,0.3,0.3,0.3,0.5c0,0.1-0.1,0.3-0.2,0.3
		c-0.7,0.7-1.5,1.5-2.2,2.2c-0.2,0.2-0.6,0.2-0.8,0c-0.7-0.7-1.5-1.5-2.2-2.2c-0.2-0.2-0.2-0.6,0-0.8s0.6-0.2,0.8,0
		c0.4,0.4,0.7,0.7,1.1,1.1l0.1,0.1c0-0.1,0-0.1,0-0.2c0-0.8,0-1.5,0-2.3c0-0.4,0.2-0.6,0.5-0.6s0.6,0.3,0.6,0.6c0,0.7,0,1.5,0,2.2
		C10.6,16.8,10.6,16.8,10.6,17z"/>
	<path class="st0" d="M7.7,8.3c0.6,0,1.2,0,1.8,0l0.1-0.1C9.7,8,9.7,7.9,9.8,7.7c0.5-0.9,1.2-1.2,2.2-1c0.7,0.2,1.2,0.7,1.4,1.4
		c0,0.1,0.1,0.2,0.2,0.2c0.1,0,0.2,0,0.3,0c0.3,0.1,0.4,0.3,0.4,0.6s-0.2,0.5-0.5,0.5s-0.4,0.1-0.5,0.4c-0.3,0.8-1.1,1.3-2,1.3
		c-0.3,0-0.5-0.2-0.6-0.5c0-0.3,0.2-0.5,0.5-0.6c0.2,0,0.3,0,0.5-0.1s0.4-0.2,0.5-0.5c-0.1,0-0.1,0-0.2,0c-0.6,0-1.1,0-1.7,0
		c-0.1,0-0.1,0-0.2,0.1C10,9.7,9.9,9.9,9.8,10.1C9.6,11,8.9,11.3,8,11c-0.8-0.2-1.3-0.7-1.5-1.6c-0.1,0-0.2,0-0.3,0
		c-0.3,0-0.6-0.2-0.6-0.6c0-0.3,0.2-0.5,0.6-0.6c0.1,0,0.2,0,0.3,0C6.6,7.7,6.9,7.3,7.3,7c0.4-0.3,0.8-0.4,1.3-0.4
		c0.3,0,0.6,0.2,0.6,0.5S9,7.6,8.6,7.7C8.4,7.8,8.2,7.9,7.9,8C7.8,8.1,7.7,8.2,7.7,8.3L7.7,8.3z M12.3,8.3c-0.2-0.4-0.6-0.6-1-0.5
		c-0.2,0-0.4,0.3-0.5,0.5C11.3,8.3,11.8,8.3,12.3,8.3z M7.7,9.5c0.1,0.3,0.6,0.6,1,0.5c0.2,0,0.4-0.2,0.5-0.5
		C8.7,9.5,8.2,9.5,7.7,9.5z"/>
</g>
</svg>
