<svg xmlns="http://www.w3.org/2000/svg" width="36" height="36" viewBox="0 0 36 36">
  <g id="profile-transfer-record" transform="translate(-0.101 -0.101)">
    <path id="Path_11" data-name="Path 11" d="M30.67,36.1H5.531A5.408,5.408,0,0,1,.1,30.67V5.531A5.408,5.408,0,0,1,5.531.1H30.67a5.408,5.408,0,0,1,5.43,5.43V30.67A5.408,5.408,0,0,1,30.67,36.1Z" fill="#fff"/>
    <g id="Group_8" data-name="Group 8">
      <path id="Path_12" data-name="Path 12" d="M17.7,25.542c-.905-.4-1.709-.7-2.413-1.106a1.078,1.078,0,1,1,1.106-1.81c.4.2.8.4,1.307.6a28.133,28.133,0,0,1,0-2.916A2.181,2.181,0,0,0,16.391,17.8c-1.307-.6-1.609-1.81-1.508-3.218a3.667,3.667,0,0,1,2.212-3.017c.4-.2.5-.3.5-.7a1.11,1.11,0,1,1,2.212,0c0,.4.2.4.5.6a5.1,5.1,0,0,1,1.609.905,1.012,1.012,0,0,1,.1,1.508,1.093,1.093,0,0,1-1.508.1,6.159,6.159,0,0,1-.6-.4v3.419c0,.1.3.3.5.4a3.941,3.941,0,0,1,2.615,2.715,4.378,4.378,0,0,1-2.615,5.128c-.4.1-.5.3-.5.7,0,.905-.4,1.307-1.106,1.307s-1.106-.5-1.106-1.307C17.7,25.642,17.7,25.542,17.7,25.542Zm2.212-6.134v3.419a2.446,2.446,0,0,0,1.106-2.011A1.736,1.736,0,0,0,19.911,19.408ZM17.7,15.989V13.877C16.994,14.682,16.994,15.486,17.7,15.989Z" fill="#ec6b00"/>
      <path id="Path_13" data-name="Path 13" d="M7.24,17.7H8.849a1.113,1.113,0,0,1,1.006,1.709c-.8,1.408-1.609,2.816-2.514,4.324a1.057,1.057,0,0,1-1.911,0c-.8-1.408-1.709-2.816-2.514-4.324A1.088,1.088,0,0,1,3.922,17.7H5.028a18.768,18.768,0,0,1,.4-2.514A13.541,13.541,0,0,1,13.374,5.43,13.471,13.471,0,0,1,28.156,7.24a13.434,13.434,0,0,1,5.128,9.05A13.991,13.991,0,0,1,21.821,31.877a13.889,13.889,0,0,1-12.168-3.52,1.142,1.142,0,0,1-.2-1.609,1.045,1.045,0,0,1,1.609,0A12.718,12.718,0,0,0,17.7,29.866,11.979,11.979,0,1,0,7.441,15.385,17.952,17.952,0,0,1,7.24,17.7Z" fill="#ec6b00"/>
    </g>
  </g>
</svg>
