<svg xmlns="http://www.w3.org/2000/svg" width="36" height="36" viewBox="0 0 36 36">
  <g id="profile-transaction-record" transform="translate(-0.101 -0.101)">
    <path id="Path_14" data-name="Path 14" d="M30.67,36.1H5.531A5.408,5.408,0,0,1,.1,30.67V5.531A5.408,5.408,0,0,1,5.531.1H30.67a5.408,5.408,0,0,1,5.43,5.43V30.67A5.408,5.408,0,0,1,30.67,36.1Z" fill="#fff"/>
    <g id="Group_9" data-name="Group 9">
      <path id="Path_15" data-name="Path 15" d="M7.24,17.7H8.849a1.113,1.113,0,0,1,1.006,1.709c-.8,1.408-1.609,2.816-2.514,4.324a1.057,1.057,0,0,1-1.911,0c-.8-1.408-1.709-2.816-2.514-4.324A1.088,1.088,0,0,1,3.922,17.7H5.028a18.768,18.768,0,0,1,.4-2.514A13.541,13.541,0,0,1,13.374,5.43,13.471,13.471,0,0,1,28.156,7.24a13.434,13.434,0,0,1,5.128,9.05A13.991,13.991,0,0,1,21.821,31.877a13.889,13.889,0,0,1-12.168-3.52,1.142,1.142,0,0,1-.2-1.609,1.045,1.045,0,0,1,1.609,0A12.718,12.718,0,0,0,17.7,29.866,11.979,11.979,0,1,0,7.441,15.385,17.952,17.952,0,0,1,7.24,17.7Z" fill="#ec6b00"/>
    </g>
    <g id="Group_10" data-name="Group 10">
      <path id="Path_16" data-name="Path 16" d="M14.883,22.123l1.106,1.106a.869.869,0,0,1,.3.6.8.8,0,0,1-.5.8.749.749,0,0,1-.905-.1l-2.715-2.715a.915.915,0,0,1,0-1.207L14.782,18a.918.918,0,0,1,1.207,0,.822.822,0,0,1,0,1.207l-1.006,1.006-.2.2H25.14a.6.6,0,0,1,.4.1.929.929,0,0,1,.6,1.006.853.853,0,0,1-.8.7H15.084C15.084,22.123,14.983,22.123,14.883,22.123Z" fill="#ec6b00"/>
      <path id="Path_17" data-name="Path 17" d="M23.33,14.078l-1.106-1.106a.869.869,0,0,1-.3-.6.8.8,0,0,1,.5-.8.749.749,0,0,1,.905.1l2.715,2.715a.915.915,0,0,1,0,1.207L23.43,18.2a.918.918,0,0,1-1.207,0,.822.822,0,0,1,0-1.207l1.006-1.006.2-.2H13.073a.6.6,0,0,1-.4-.1.929.929,0,0,1-.6-1.006.853.853,0,0,1,.8-.7H23.128C23.128,14.078,23.229,14.078,23.33,14.078Z" fill="#ec6b00"/>
    </g>
  </g>
</svg>
