<svg id="svg" version="1.1" xmlns="http://www.w3.org/2000/svg" xmlns:xlink="http://www.w3.org/1999/xlink" width="400" height="328.08988764044943" viewBox="0, 0, 400,328.08988764044943"><g id="svgg"><path id="path0" d="M38.611 7.110 C 38.491 7.230,38.392 8.167,38.392 9.193 L 38.392 11.057 34.243 11.253 C 29.484 11.478,29.557 11.439,29.304 13.899 L 29.112 15.751 27.545 15.751 C 25.326 15.751,24.938 15.969,24.938 17.221 C 24.938 19.933,24.676 20.345,22.952 20.345 C 20.521 20.345,20.345 20.679,20.345 25.290 L 20.345 29.204 18.682 29.204 C 15.459 29.204,15.751 27.203,15.751 49.331 C 15.751 71.160,15.538 69.565,18.441 69.565 L 20.345 69.565 20.345 73.627 C 20.345 78.272,20.381 78.344,22.921 78.644 L 24.583 78.841 24.782 80.356 C 24.891 81.189,25.009 82.092,25.045 82.363 C 25.092 82.727,25.630 82.880,27.117 82.951 L 29.125 83.048 29.278 84.887 C 29.491 87.456,29.792 87.613,34.517 87.613 L 38.392 87.613 38.392 89.707 C 38.392 92.423,36.543 92.197,58.795 92.202 C 80.315 92.207,78.753 92.425,78.753 89.421 L 78.753 87.666 82.828 87.558 C 87.548 87.432,87.365 87.531,87.550 84.981 L 87.692 83.019 89.610 83.019 C 91.842 83.019,92.207 82.636,92.207 80.293 L 92.207 78.837 93.837 78.680 C 96.400 78.434,96.473 78.295,96.473 73.627 L 96.473 69.565 98.376 69.565 C 101.279 69.565,101.066 71.160,101.066 49.331 C 101.066 27.203,101.358 29.204,98.135 29.204 L 96.473 29.204 96.473 25.168 C 96.473 20.500,96.393 20.345,93.985 20.345 L 92.286 20.345 92.141 18.350 C 91.972 16.015,91.704 15.763,89.376 15.756 L 87.694 15.751 87.543 13.934 C 87.341 11.490,87.275 11.453,82.727 11.243 L 78.753 11.060 78.753 9.610 C 78.753 6.634,80.673 6.891,58.452 6.891 C 47.660 6.891,38.731 6.989,38.611 7.110 M11.879 110.648 C 11.662 110.865,11.483 111.566,11.480 112.207 C 11.471 114.591,11.264 114.848,9.354 114.848 C 6.660 114.848,6.869 110.956,6.967 159.299 L 7.055 202.847 7.830 203.474 C 8.256 203.819,8.945 204.102,9.361 204.102 C 11.175 204.102,11.156 204.032,11.171 210.453 C 11.197 220.961,11.518 222.149,14.337 222.149 L 15.751 222.149 15.751 226.109 C 15.751 231.129,15.856 231.337,18.387 231.337 L 20.345 231.337 20.345 235.132 C 20.345 239.796,20.464 240.054,22.752 240.340 L 24.522 240.561 24.706 242.580 C 24.813 243.760,25.082 244.741,25.355 244.941 C 25.612 245.129,26.076 245.775,26.386 246.375 C 26.714 247.009,27.405 247.657,28.032 247.920 C 29.085 248.359,29.119 248.434,29.281 250.706 C 29.482 253.510,29.587 253.636,31.947 253.879 L 33.798 254.070 33.798 255.982 C 33.798 258.243,34.171 258.573,36.730 258.573 L 38.392 258.573 38.392 260.705 L 38.392 262.838 40.525 262.838 C 42.007 262.838,42.661 262.963,42.668 263.249 C 42.816 269.528,43.340 270.694,46.416 271.586 C 47.202 271.814,47.451 272.130,47.729 273.251 C 48.172 275.037,48.762 275.592,50.543 275.896 C 51.951 276.136,52.002 276.187,52.243 277.598 C 52.579 279.567,53.379 280.298,55.256 280.351 C 56.085 280.375,56.765 280.505,56.766 280.640 C 56.767 280.775,57.654 280.886,58.737 280.886 L 60.705 280.886 60.705 282.789 C 60.705 285.163,61.022 285.480,63.396 285.480 L 65.299 285.480 65.299 287.457 C 65.299 289.723,65.720 290.074,68.438 290.074 L 69.893 290.074 69.898 291.632 C 69.905 293.810,70.169 294.075,72.553 294.304 L 74.624 294.504 74.890 295.791 C 75.338 297.952,76.519 298.529,81.132 298.839 L 83.347 298.987 83.347 300.937 C 83.347 303.216,83.759 303.527,86.773 303.527 C 88.436 303.527,88.524 303.571,88.707 304.487 C 88.942 305.664,90.013 306.707,91.267 306.983 C 91.784 307.096,92.207 307.325,92.207 307.491 C 92.207 307.657,93.221 307.793,94.461 307.793 L 96.716 307.793 96.934 309.434 C 97.230 311.671,97.817 311.995,102.066 312.267 C 105.707 312.500,105.976 312.633,105.983 314.211 C 105.995 316.578,107.585 316.964,117.353 316.975 C 124.277 316.982,124.017 316.897,124.032 319.145 C 124.044 321.038,124.287 321.074,137.980 321.183 L 150.544 321.282 150.764 323.046 C 150.887 324.024,151.218 325.004,151.507 325.244 C 152.265 325.873,221.473 326.065,221.532 325.438 C 221.554 325.208,221.547 324.257,221.516 323.325 C 221.447 321.217,223.577 318.679,226.033 317.943 C 227.160 317.605,227.665 317.184,228.557 315.841 C 229.225 314.834,230.143 313.936,230.849 313.600 C 231.723 313.183,232.231 312.597,232.821 311.323 C 233.457 309.949,233.895 309.475,235.020 308.943 C 236.348 308.315,236.444 308.173,236.814 306.313 C 237.465 303.044,239.192 299.918,240.347 299.918 C 242.326 299.918,241.894 271.696,239.896 270.512 C 238.883 269.911,237.017 266.213,236.733 264.243 C 236.559 263.039,236.354 262.760,235.166 262.110 C 234.252 261.610,233.581 260.914,233.142 260.011 C 232.259 258.195,231.749 257.634,230.391 256.987 C 229.693 256.655,228.911 255.872,228.400 254.996 C 227.692 253.782,227.280 253.461,225.810 252.982 C 224.848 252.668,223.955 252.284,223.825 252.129 C 223.696 251.973,223.204 251.318,222.733 250.674 C 221.964 249.621,221.568 249.426,218.838 248.757 C 215.986 248.057,214.553 247.450,213.782 246.614 C 213.601 246.418,213.036 245.991,212.526 245.664 C 211.638 245.096,211.603 244.977,211.706 242.880 L 211.813 240.689 199.133 240.603 L 186.454 240.517 186.237 239.291 C 185.869 237.214,185.733 236.983,184.646 236.575 C 183.997 236.332,180.745 236.117,176.169 236.015 L 168.745 235.849 168.551 234.215 C 168.253 231.697,168.188 231.665,163.415 231.665 L 159.232 231.665 159.062 230.155 C 158.795 227.786,157.214 227.078,152.174 227.073 L 150.287 227.071 150.287 225.595 C 150.287 223.405,149.654 222.940,146.298 222.660 C 144.780 222.534,143.395 222.458,143.221 222.493 C 141.705 222.791,141.461 222.520,141.361 220.427 L 141.263 218.376 139.951 218.288 C 137.337 218.114,137.259 218.055,137.012 216.081 C 136.751 213.992,136.311 213.618,134.112 213.618 L 132.659 213.618 132.457 211.915 C 132.206 209.792,131.805 209.386,129.714 209.138 L 128.048 208.941 127.899 207.148 C 127.727 205.066,127.405 204.770,125.312 204.763 L 123.799 204.758 123.616 202.743 C 123.404 200.397,123.165 200.176,120.837 200.169 L 119.114 200.164 119.114 198.386 C 119.114 196.096,118.893 195.570,117.930 195.570 C 117.452 195.570,116.633 195.058,115.833 194.258 L 114.520 192.945 114.520 190.221 C 114.520 186.988,114.322 186.710,112.020 186.710 L 110.306 186.710 110.198 182.417 C 110.111 178.952,109.989 178.051,109.566 177.742 C 109.278 177.531,108.792 176.873,108.485 176.280 C 108.179 175.686,107.418 174.958,106.794 174.660 L 105.660 174.120 105.622 168.028 C 105.569 159.758,105.642 160.007,103.198 159.803 L 101.231 159.639 101.066 139.857 C 100.882 117.650,101.156 119.624,98.213 119.256 L 96.502 119.042 96.405 117.027 L 96.308 115.012 94.258 114.720 L 92.207 114.429 92.207 113.183 C 92.207 112.498,92.063 111.559,91.887 111.096 L 91.567 110.254 51.920 110.254 C 21.520 110.254,12.181 110.346,11.879 110.648 " stroke="none" fill="#fcdc04" fill-rule="evenodd"></path><path id="path1" d="M326.041 7.407 C 325.931 7.694,325.841 8.633,325.841 9.495 L 325.841 11.060 321.891 11.242 C 317.215 11.458,316.981 11.588,316.981 13.986 L 316.981 15.751 315.200 15.751 C 312.872 15.751,312.387 16.236,312.387 18.563 L 312.387 20.345 310.623 20.345 C 308.225 20.345,308.094 20.579,307.879 25.255 L 307.697 29.204 306.022 29.209 C 305.101 29.212,304.162 29.332,303.935 29.476 C 303.609 29.683,303.540 33.922,303.607 49.570 L 303.692 69.401 305.693 69.498 L 307.695 69.594 307.890 73.729 C 308.114 78.472,308.076 78.400,310.536 78.654 L 312.387 78.845 312.387 80.538 C 312.387 82.692,312.742 83.019,315.078 83.019 L 316.981 83.019 316.986 84.742 C 316.994 87.417,317.021 87.433,321.727 87.558 L 325.841 87.666 325.841 89.421 C 325.841 92.427,324.236 92.207,346.143 92.207 C 367.777 92.207,366.202 92.418,366.202 89.516 L 366.202 87.613 370.077 87.613 C 374.802 87.613,375.103 87.456,375.316 84.887 L 375.469 83.048 377.480 82.951 L 379.491 82.855 379.588 80.843 L 379.685 78.832 381.486 78.683 C 384.009 78.473,384.069 78.362,384.194 73.651 L 384.303 69.565 386.179 69.565 C 389.050 69.565,388.843 71.124,388.843 49.507 C 388.843 27.600,389.064 29.204,386.057 29.204 L 384.303 29.204 384.194 25.090 C 384.070 20.384,384.054 20.357,381.378 20.350 L 379.655 20.345 379.655 18.441 C 379.655 16.105,379.328 15.751,377.175 15.751 L 375.481 15.751 375.290 13.899 C 375.036 11.439,375.109 11.478,370.366 11.254 L 366.231 11.058 366.134 9.057 L 366.038 7.055 346.139 6.970 C 328.207 6.894,326.221 6.937,326.041 7.407 M312.614 110.465 C 312.489 110.590,312.387 111.535,312.387 112.567 L 312.387 114.441 310.392 114.586 C 308.051 114.755,307.805 115.020,307.798 117.391 L 307.793 119.114 306.179 119.114 C 303.257 119.114,303.527 117.017,303.527 139.641 L 303.527 159.770 301.649 159.869 C 298.940 160.011,298.944 159.997,298.938 169.519 L 298.934 177.431 297.082 177.622 C 294.582 177.880,294.553 177.935,294.398 182.572 L 294.263 186.634 292.756 186.804 C 290.470 187.061,290.074 187.751,290.074 191.478 C 290.074 195.462,290.024 195.569,288.152 195.575 C 285.965 195.582,285.670 195.879,285.480 198.265 L 285.316 200.328 283.950 200.510 C 282.199 200.744,281.661 201.211,281.401 202.719 C 280.948 205.352,280.818 205.742,280.393 205.742 C 279.678 205.742,278.021 207.313,277.798 208.202 C 277.685 208.654,277.392 209.024,277.147 209.024 C 276.651 209.024,276.292 210.419,276.292 212.346 L 276.292 213.618 274.159 213.618 C 272.672 213.618,272.026 213.742,272.025 214.028 C 272.025 214.253,271.471 214.733,270.795 215.094 C 270.113 215.458,269.346 216.216,269.073 216.795 C 268.535 217.937,267.952 218.200,265.947 218.207 C 263.898 218.214,263.167 218.910,263.167 220.855 L 263.167 222.477 261.504 222.477 C 258.933 222.477,258.573 222.802,258.573 225.114 L 258.573 227.071 254.553 227.076 C 249.745 227.082,249.823 227.043,249.533 229.609 L 249.302 231.647 244.996 231.738 L 240.689 231.829 240.637 232.814 C 240.609 233.355,240.572 234.258,240.555 234.820 L 240.525 235.842 232.173 235.997 C 222.727 236.173,222.983 236.099,222.654 238.730 L 222.430 240.525 218.735 240.525 C 214.363 240.525,214.740 240.288,214.876 242.947 L 214.985 245.097 216.757 245.936 C 217.732 246.397,219.012 246.865,219.601 246.976 C 221.032 247.247,222.337 247.976,224.118 249.500 C 224.930 250.196,226.160 251.054,226.851 251.407 C 227.542 251.761,229.059 253.001,230.221 254.163 C 231.383 255.325,232.465 256.276,232.625 256.276 C 232.913 256.276,235.275 259.376,235.275 259.755 C 235.275 259.863,235.906 260.592,236.678 261.374 C 237.450 262.157,238.280 263.361,238.523 264.049 C 239.272 266.167,240.243 268.193,241.169 269.565 C 243.909 273.625,244.527 285.685,242.627 298.025 C 242.523 298.698,241.781 300.249,240.977 301.470 C 240.173 302.692,239.278 304.503,238.989 305.495 C 238.371 307.613,237.220 309.547,236.169 310.236 C 235.757 310.506,234.848 311.625,234.148 312.723 C 233.449 313.821,232.466 314.932,231.965 315.191 C 231.464 315.450,230.565 316.344,229.965 317.178 C 229.257 318.165,228.246 319.023,227.071 319.635 C 224.329 321.062,224.180 321.239,224.051 323.234 C 223.987 324.217,223.815 325.212,223.669 325.446 C 223.452 325.794,227.294 325.854,244.627 325.775 L 265.850 325.677 266.477 324.902 C 266.878 324.406,267.104 323.616,267.104 322.708 L 267.104 321.288 275.461 321.185 C 284.929 321.069,284.771 321.113,285.067 318.492 L 285.237 316.981 289.437 316.981 C 292.732 316.981,293.742 316.875,294.129 316.489 C 294.399 316.218,294.816 315.996,295.054 315.995 C 296.112 315.992,297.589 314.696,297.797 313.588 L 298.008 312.461 302.401 312.333 C 307.443 312.186,307.513 312.150,307.724 309.610 L 307.875 307.793 310.049 307.779 C 313.667 307.755,315.402 306.970,315.997 305.088 L 316.489 303.531 318.233 303.529 C 320.892 303.527,321.247 303.216,321.247 300.891 L 321.247 298.934 323.134 298.930 C 327.221 298.921,329.407 297.872,329.749 295.756 C 329.951 294.504,329.952 294.504,331.783 294.340 C 334.210 294.122,334.701 293.674,334.701 291.674 L 334.701 290.074 336.658 290.074 C 338.970 290.074,339.295 289.713,339.295 287.142 L 339.295 285.480 341.198 285.480 C 343.569 285.480,343.888 285.162,343.888 282.805 L 343.888 280.917 345.939 280.820 L 347.990 280.722 348.087 278.522 L 348.184 276.321 350.384 276.225 L 352.584 276.128 352.682 274.077 L 352.779 272.026 354.667 272.026 C 357.024 272.026,357.342 271.707,357.342 269.336 L 357.342 267.432 359.123 267.432 C 361.451 267.432,361.936 266.947,361.936 264.620 L 361.936 262.838 363.495 262.833 C 365.725 262.826,365.983 262.560,366.139 260.108 L 366.274 257.989 367.495 257.793 C 369.640 257.450,370.438 255.870,370.704 251.436 L 370.848 249.057 372.098 249.057 C 374.662 249.057,375.390 247.054,375.390 239.994 L 375.390 235.962 377.441 235.865 L 379.491 235.767 379.655 231.337 L 379.820 226.907 381.564 226.694 C 384.091 226.386,384.213 226.004,384.235 218.329 C 384.250 212.995,384.261 212.961,386.018 212.961 C 388.223 212.961,388.816 210.472,388.832 201.138 L 388.843 194.401 389.826 194.030 C 390.367 193.826,391.068 193.192,391.385 192.622 C 391.702 192.051,392.219 191.277,392.535 190.902 C 393.185 190.129,393.452 119.693,392.806 119.294 C 392.640 119.191,392.407 118.669,392.290 118.135 C 392.049 117.039,390.419 115.505,389.497 115.505 C 388.845 115.505,388.687 115.155,388.344 112.949 C 387.918 110.212,391.144 110.430,349.626 110.328 C 329.394 110.279,312.739 110.340,312.614 110.465 " stroke="none" fill="#04448c" fill-rule="evenodd"></path><path id="path2" d="M239.690 234.216 C 238.137 235.529,238.046 235.931,239.300 235.931 C 240.374 235.931,240.462 235.852,240.587 234.783 C 240.739 233.483,240.635 233.417,239.690 234.216 M375.390 237.141 L 375.390 238.351 376.374 237.408 C 376.916 236.889,377.358 236.345,377.358 236.198 C 377.358 236.051,376.916 235.931,376.374 235.931 C 375.458 235.931,375.390 236.015,375.390 237.141 M211.706 242.803 C 211.617 244.984,211.651 245.105,212.533 245.669 C 213.039 245.993,213.601 246.418,213.782 246.614 C 214.553 247.450,215.986 248.057,218.838 248.757 C 221.568 249.426,221.964 249.621,222.733 250.674 C 223.204 251.318,223.696 251.973,223.825 252.129 C 223.955 252.284,224.848 252.668,225.810 252.982 C 227.280 253.461,227.692 253.782,228.400 254.996 C 228.911 255.872,229.693 256.655,230.391 256.987 C 231.749 257.634,232.259 258.195,233.142 260.011 C 233.581 260.914,234.252 261.610,235.166 262.110 C 236.354 262.760,236.559 263.039,236.733 264.243 C 237.017 266.213,238.883 269.911,239.896 270.512 C 241.894 271.696,242.326 299.918,240.347 299.918 C 239.192 299.918,237.465 303.044,236.814 306.313 C 236.444 308.173,236.348 308.315,235.020 308.943 C 233.895 309.475,233.457 309.949,232.821 311.323 C 232.231 312.597,231.723 313.183,230.849 313.600 C 230.143 313.936,229.225 314.834,228.557 315.841 C 227.665 317.184,227.160 317.605,226.033 317.943 C 223.381 318.737,221.482 321.161,221.559 323.652 C 221.666 327.165,223.819 326.804,224.051 323.234 C 224.180 321.239,224.329 321.062,227.071 319.635 C 228.246 319.023,229.257 318.165,229.965 317.178 C 230.565 316.344,231.464 315.450,231.965 315.191 C 232.466 314.932,233.449 313.821,234.148 312.723 C 234.848 311.625,235.757 310.506,236.169 310.236 C 237.220 309.547,238.371 307.613,238.989 305.495 C 239.278 304.503,240.173 302.692,240.977 301.470 C 241.781 300.249,242.523 298.698,242.627 298.025 C 244.527 285.685,243.909 273.625,241.169 269.565 C 240.243 268.193,239.272 266.167,238.523 264.049 C 238.280 263.361,237.450 262.157,236.678 261.374 C 235.906 260.592,235.275 259.863,235.275 259.755 C 235.275 259.376,232.913 256.276,232.625 256.276 C 232.465 256.276,231.383 255.325,230.221 254.163 C 229.059 253.001,227.542 251.761,226.851 251.407 C 226.160 251.054,224.930 250.196,224.118 249.500 C 222.337 247.976,221.032 247.247,219.601 246.976 C 219.012 246.865,217.720 246.391,216.730 245.923 L 214.930 245.071 214.891 243.044 C 214.870 241.929,214.870 240.906,214.891 240.771 C 214.913 240.636,214.226 240.525,213.365 240.525 L 211.799 240.525 211.706 242.803 " stroke="none" fill="#bce048" fill-rule="evenodd"></path><path id="path3" d="M239.690 234.216 C 238.137 235.529,238.046 235.931,239.300 235.931 C 240.374 235.931,240.462 235.852,240.587 234.783 C 240.739 233.483,240.635 233.417,239.690 234.216 M375.390 237.141 L 375.390 238.351 376.374 237.408 C 376.916 236.889,377.358 236.345,377.358 236.198 C 377.358 236.051,376.916 235.931,376.374 235.931 C 375.458 235.931,375.390 236.015,375.390 237.141 M211.706 242.803 C 211.617 244.984,211.651 245.105,212.533 245.669 C 213.039 245.993,213.601 246.418,213.782 246.614 C 214.553 247.450,215.986 248.057,218.838 248.757 C 221.568 249.426,221.964 249.621,222.733 250.674 C 223.204 251.318,223.696 251.973,223.825 252.129 C 223.955 252.284,224.848 252.668,225.810 252.982 C 227.280 253.461,227.692 253.782,228.400 254.996 C 228.911 255.872,229.693 256.655,230.391 256.987 C 231.749 257.634,232.259 258.195,233.142 260.011 C 233.581 260.914,234.252 261.610,235.166 262.110 C 236.354 262.760,236.559 263.039,236.733 264.243 C 237.017 266.213,238.883 269.911,239.896 270.512 C 241.894 271.696,242.326 299.918,240.347 299.918 C 239.192 299.918,237.465 303.044,236.814 306.313 C 236.444 308.173,236.348 308.315,235.020 308.943 C 233.895 309.475,233.457 309.949,232.821 311.323 C 232.231 312.597,231.723 313.183,230.849 313.600 C 230.143 313.936,229.225 314.834,228.557 315.841 C 227.665 317.184,227.160 317.605,226.033 317.943 C 223.381 318.737,221.482 321.161,221.559 323.652 C 221.666 327.165,223.819 326.804,224.051 323.234 C 224.180 321.239,224.329 321.062,227.071 319.635 C 228.246 319.023,229.257 318.165,229.965 317.178 C 230.565 316.344,231.464 315.450,231.965 315.191 C 232.466 314.932,233.449 313.821,234.148 312.723 C 234.848 311.625,235.757 310.506,236.169 310.236 C 237.220 309.547,238.371 307.613,238.989 305.495 C 239.278 304.503,240.173 302.692,240.977 301.470 C 241.781 300.249,242.523 298.698,242.627 298.025 C 244.527 285.685,243.909 273.625,241.169 269.565 C 240.243 268.193,239.272 266.167,238.523 264.049 C 238.280 263.361,237.450 262.157,236.678 261.374 C 235.906 260.592,235.275 259.863,235.275 259.755 C 235.275 259.376,232.913 256.276,232.625 256.276 C 232.465 256.276,231.383 255.325,230.221 254.163 C 229.059 253.001,227.542 251.761,226.851 251.407 C 226.160 251.054,224.930 250.196,224.118 249.500 C 222.337 247.976,221.032 247.247,219.601 246.976 C 219.012 246.865,217.720 246.391,216.730 245.923 L 214.930 245.071 214.891 243.044 C 214.870 241.929,214.870 240.906,214.891 240.771 C 214.913 240.636,214.226 240.525,213.365 240.525 L 211.799 240.525 211.706 242.803 " stroke="none" fill="#bce048" fill-rule="evenodd"></path><path id="path4" d="M239.690 234.216 C 238.137 235.529,238.046 235.931,239.300 235.931 C 240.374 235.931,240.462 235.852,240.587 234.783 C 240.739 233.483,240.635 233.417,239.690 234.216 M375.390 237.141 L 375.390 238.351 376.374 237.408 C 376.916 236.889,377.358 236.345,377.358 236.198 C 377.358 236.051,376.916 235.931,376.374 235.931 C 375.458 235.931,375.390 236.015,375.390 237.141 M211.706 242.803 C 211.617 244.984,211.651 245.105,212.533 245.669 C 213.039 245.993,213.601 246.418,213.782 246.614 C 214.553 247.450,215.986 248.057,218.838 248.757 C 221.568 249.426,221.964 249.621,222.733 250.674 C 223.204 251.318,223.696 251.973,223.825 252.129 C 223.955 252.284,224.848 252.668,225.810 252.982 C 227.280 253.461,227.692 253.782,228.400 254.996 C 228.911 255.872,229.693 256.655,230.391 256.987 C 231.749 257.634,232.259 258.195,233.142 260.011 C 233.581 260.914,234.252 261.610,235.166 262.110 C 236.354 262.760,236.559 263.039,236.733 264.243 C 237.017 266.213,238.883 269.911,239.896 270.512 C 241.894 271.696,242.326 299.918,240.347 299.918 C 239.192 299.918,237.465 303.044,236.814 306.313 C 236.444 308.173,236.348 308.315,235.020 308.943 C 233.895 309.475,233.457 309.949,232.821 311.323 C 232.231 312.597,231.723 313.183,230.849 313.600 C 230.143 313.936,229.225 314.834,228.557 315.841 C 227.665 317.184,227.160 317.605,226.033 317.943 C 223.381 318.737,221.482 321.161,221.559 323.652 C 221.666 327.165,223.819 326.804,224.051 323.234 C 224.180 321.239,224.329 321.062,227.071 319.635 C 228.246 319.023,229.257 318.165,229.965 317.178 C 230.565 316.344,231.464 315.450,231.965 315.191 C 232.466 314.932,233.449 313.821,234.148 312.723 C 234.848 311.625,235.757 310.506,236.169 310.236 C 237.220 309.547,238.371 307.613,238.989 305.495 C 239.278 304.503,240.173 302.692,240.977 301.470 C 241.781 300.249,242.523 298.698,242.627 298.025 C 244.527 285.685,243.909 273.625,241.169 269.565 C 240.243 268.193,239.272 266.167,238.523 264.049 C 238.280 263.361,237.450 262.157,236.678 261.374 C 235.906 260.592,235.275 259.863,235.275 259.755 C 235.275 259.376,232.913 256.276,232.625 256.276 C 232.465 256.276,231.383 255.325,230.221 254.163 C 229.059 253.001,227.542 251.761,226.851 251.407 C 226.160 251.054,224.930 250.196,224.118 249.500 C 222.337 247.976,221.032 247.247,219.601 246.976 C 219.012 246.865,217.720 246.391,216.730 245.923 L 214.930 245.071 214.891 243.044 C 214.870 241.929,214.870 240.906,214.891 240.771 C 214.913 240.636,214.226 240.525,213.365 240.525 L 211.799 240.525 211.706 242.803 " stroke="none" fill="#bce048" fill-rule="evenodd"></path></g></svg>