<svg xmlns="http://www.w3.org/2000/svg" width="19" height="18.974" viewBox="0 0 19 18.974">
  <g id="personal-info-warning" transform="translate(-1.533 -1.6)">
    <path id="Path_121" data-name="Path 121" d="M10.868,1.6h.3a.28.28,0,0,1,.228.076c.533.076.989.076,1.522.152A9.44,9.44,0,0,1,18.4,5.177a9.852,9.852,0,0,1,2.055,4.946c0,.3.076.609.076.837v.3a.575.575,0,0,1-.076.3c-.076.457-.076.989-.152,1.446a8.932,8.932,0,0,1-3.12,5.251,9.444,9.444,0,0,1-12.556-.152,9.416,9.416,0,0,1-2.892-8.9A9.1,9.1,0,0,1,6.378,2.818,9.177,9.177,0,0,1,10.564,1.6Zm.152,17.2A7.724,7.724,0,1,0,11.1,3.35a7.7,7.7,0,0,0-7.838,7.686A7.8,7.8,0,0,0,11.02,18.8Z" transform="translate(0)" fill="#ec6b00"/>
    <path id="Path_122" data-name="Path 122" d="M12.6,10.586V8.151a.947.947,0,0,1,.837-1.065,1.3,1.3,0,0,1,1.065.152.8.8,0,0,1,.38.685V13.1a.828.828,0,0,1-.533.761,1.681,1.681,0,0,1-1.218,0,.823.823,0,0,1-.533-.837Z" transform="translate(-2.645 -1.3)" fill="#ec6b00"/>
    <path id="Path_123" data-name="Path 123" d="M13.67,20.563A1.3,1.3,0,0,1,12.3,19.27a1.332,1.332,0,1,1,2.663-.076A1.258,1.258,0,0,1,13.67,20.563Z" transform="translate(-2.573 -3.896)" fill="#ec6b00"/>
  </g>
</svg>
