<svg xmlns="http://www.w3.org/2000/svg" width="36" height="36" viewBox="0 0 36 36">
  <g id="profile-whatapps" transform="translate(-0.101 -0.101)">
    <path id="Path_48" data-name="Path 48" d="M30.67,36.1H5.531A5.408,5.408,0,0,1,.1,30.67V5.531A5.408,5.408,0,0,1,5.531.1H30.67a5.408,5.408,0,0,1,5.43,5.43V30.67A5.408,5.408,0,0,1,30.67,36.1Z" fill="#fff"/>
    <g id="Group_16" data-name="Group 16">
      <path id="Path_49" data-name="Path 49" d="M5.33,30.972c.4-1.709.905-3.419,1.408-5.028.1-.4.2-.905.3-1.408v-.4A12.342,12.342,0,0,1,5.43,17.095a12.25,12.25,0,0,1,5.732-9.754A11.582,11.582,0,0,1,18.8,5.33a11.947,11.947,0,0,1,10.86,7.441,12.215,12.215,0,0,1-1.307,12.872,12.692,12.692,0,0,1-8.346,5.128,12.865,12.865,0,0,1-7.743-1.307.306.306,0,0,0-.4,0c-2.112.5-4.123,1.106-6.235,1.609A.369.369,0,0,0,5.33,30.972Zm3.117-3.017h.1c1.207-.3,2.313-.6,3.52-.905a.665.665,0,0,1,.6.1,9.987,9.987,0,0,0,7.542,1.307,10.541,10.541,0,0,0,8.346-12.168A10.4,10.4,0,0,0,18.7,7.642a10.61,10.61,0,0,0-7.24,2.313A10.408,10.408,0,0,0,7.542,17.6a9.96,9.96,0,0,0,1.709,6.235.665.665,0,0,1,.1.6C9.05,25.542,8.749,26.749,8.447,27.955Z" fill="#ec6b00"/>
      <path id="Path_50" data-name="Path 50" d="M14.078,12.168c.5-.1.8.2,1.106.7.3.7.6,1.508.905,2.212a.474.474,0,0,1-.1.6,10.6,10.6,0,0,0-.7,1.106.474.474,0,0,0-.1.6,8.808,8.808,0,0,0,4.324,3.821.474.474,0,0,0,.6-.1l.905-1.207c.2-.2.4-.3.6-.2a21.134,21.134,0,0,1,2.615,1.307.522.522,0,0,1,.2.4c0,1.408-.4,2.011-1.911,2.615a4.284,4.284,0,0,1-2.514,0,12.271,12.271,0,0,1-7.14-5.33,8.579,8.579,0,0,1-1.307-2.514,3.6,3.6,0,0,1,1.106-3.62A1.562,1.562,0,0,1,14.078,12.168Z" fill="#ec6b00"/>
    </g>
  </g>
</svg>
